<?xml version="1.0" encoding="UTF-8"?>
<!-- Created by grConvert v0.1-0 -->
<svg xmlns="http://www.w3.org/2000/svg" xmlns:xlink="http://www.w3.org/1999/xlink" width="258pt" height="144pt" viewBox="0 0 258 144" version="1.1">
<g id="surface6">
<path style="fill-rule:nonzero;fill:rgb(100%,100%,100%);fill-opacity:1;stroke-width:4.638647;stroke-linecap:butt;stroke-linejoin:miter;stroke:rgb(0%,0%,0%);stroke-opacity:1;stroke-miterlimit:4;" d="M 480.004723 361.986872 C 480.004723 361.986872 491.500309 363.496809 497.988929 365.492995 C 504.503095 367.514774 519.498449 376.497615 527.494268 386.990391 C 535.490088 397.50876 550.510987 406.00535 557.995892 409.485881 C 565.506342 412.992003 565.506342 426.990903 564.995427 435.487493 C 564.484512 444.009675 553.985209 467.989508 549.514703 474.00366 C 544.993106 480.017813 526.497984 530.511101 516.484051 543.998157 C 506.495664 557.510806 469.99079 625.995367 460.998686 637.99808 C 452.006583 650.000793 426.001011 645.982827 408.987543 664.997786 C 391.999621 684.012744 371.001016 674.006218 344.995444 678.484842 C 324.405571 682.067742 303.509149 676.002405 303.509149 676.002405 M 67.3898 518.201282 C 59.445072 508.527454 58.831974 496.371189 79.983854 478.687021 C 111.328486 449.665537 172.663828 395.998824 197.979664 375.345968 C 223.346592 354.667521 291.323827 307.322066 318.683324 292.657771 C 347.984297 270.008729 351.994979 263.994576 382.675423 246.310409 C 418.669382 220.667087 483.657765 190.673101 497.656835 188.318624 C 511.68145 185.98974 536.997287 180.666575 565.685162 186.655135 C 594.321945 192.669288 646.997278 193.334683 657.675401 193.667381 C 668.327978 194.000079 724.324257 214.678527 762.004236 219.336296 C 799.658669 223.994065 883.653088 262.663785 930.018621 265.325368 C 976.333062 268.012542 1045.332128 315.332405 1073.662362 324.673535 C 1102.018143 334.014666 1175.666535 389.344868 1191.326078 397.995011 C 1207.011167 406.670745 1260.325144 427.681891 1280.685105 430.983276 C 1300.993975 434.335846 1320.996295 437.995522 1334.995365 437.995522 C 1348.994435 437.995522 1361.000937 440.657105 1384.988394 432.314068 C 1409.001398 423.996623 1402.998147 426.658205 1421.339994 422.998529 C 1439.681841 419.338854 1440.678125 427.681891 1442.670693 434.335846 C 1444.663262 440.989802 1452.684627 456.319493 1450.334418 465.993321 C 1448.009755 475.667149 1444.995357 487.337164 1444.331167 495.654609 C 1443.666978 503.997646 1440.013936 508.322717 1440.984674 519.327337 C 1442.006504 530.331956 1448.34185 555.002777 1443.334883 562.680418 C 1438.327916 570.332467 1431.992571 582.002482 1427.343245 585.662158 C 1422.668373 589.347426 1405.654905 600.019347 1399.319559 602.32264 C 1392.984213 604.677117 1389.331171 608.004094 1386.010224 608.004094 C 1382.689277 608.004094 1368.332567 606.315013 1356.683705 607.006001 C 1344.983753 607.671397 1309.321888 612.994561 1293.33025 619.341412 C 1277.338612 625.66267 1269.010698 629.01524 1253.325609 634.005707 C 1237.666065 638.996174 1237.001876 642.323151 1213.985157 650.666188 C 1190.993983 659.009225 1158.014423 653.686061 1137.015818 661.005412 C 1115.991667 668.324764 1075.016287 677.665894 1059.331198 684.67814 C 1043.671654 691.664793 998.327951 699.009737 988.671659 702.336715 C 979.015366 705.663693 900.002367 722.324175 889.681885 725.011349 C 879.310311 727.672931 883.653088 725.98385 851.669812 727.672931 C 819.686535 729.33642 813.657738 728.005629 802.340972 730.667212 C 790.99866 733.328794 770.996339 730.999909 761.314501 730.667212 C 751.658208 730.334514 666.003315 726.981944 640.994027 721.658779 C 615.98474 716.335614 615.32055 714.672125 587.680051 715.337521 C 560.014006 716.002917 480.336817 717.00101 468.330316 715.337521 C 456.323814 713.674032 392.995905 706.661786 362.673102 699.675133 C 332.324753 692.662887 340.320572 690.6667 336.999625 689.335909 C 333.653132 688.005118 318.683324 679.329383 300.673571 675.004312 C 282.663819 670.653648 237.320116 659.341923 197.979664 635.336498 C 158.664758 611.331072 132.327091 598.662964 115.671264 588.32374 C 99.015436 578.010109 44.986179 538.009597 48.000577 529.66656 C 51.014975 521.323523 58.576517 511.905617 63.251389 512.238314 M 144.333593 446.312967 C 140.9871 448.667444 139.684267 451.661724 139.684267 451.661724 M 122.006609 463.331739 C 124.331272 467.989508 125.327556 470.343985 125.327556 470.011287 " transform="matrix(0.152912,0,0,0.152635,-6.960955,-6.915844)"/>
<path style="fill-rule:nonzero;fill:rgb(100%,100%,100%);fill-opacity:1;stroke-width:4.638647;stroke-linecap:butt;stroke-linejoin:miter;stroke:rgb(0%,0%,0%);stroke-opacity:1;stroke-miterlimit:4;" d="M 86.498019 533.505381 C 81.005683 530.38314 67.619711 521.118786 63.251389 512.238314 C 58.576517 511.905617 51.014975 521.323523 48.000577 529.66656 C 44.986179 538.009597 99.015436 578.010109 115.671264 588.32374 C 132.327091 598.662964 158.664758 611.331072 197.979664 635.336498 C 209.347522 640.659662 215.325227 625.995367 221.328478 617.319633 C 227.331728 608.66949 239.33823 582.667878 227.331728 575.348526 C 215.325227 568.003583 190.67358 558.662453 178.002889 555.335475 C 165.332198 551.982905 142.673119 543.998157 123.999178 529.333862 C 106.67916 511.982393 78.016831 482.679395 68.462721 490.305852 C 59.521709 501.975867 61.335457 510.805155 67.3898 518.201282 C 73.21423 525.264713 82.972706 531.022944 91.019617 536.653214 C 94.493838 540.005784 96.741864 541.259799 100.67591 544.689145 C 101.570011 545.636054 124.382364 562.782787 136.005679 575.348526 C 176.393507 616.116802 163.314084 610.665677 199.997778 625.995367 " transform="matrix(0.152912,0,0,0.152635,-6.960955,-6.915844)"/>
<path style="fill-rule:nonzero;fill:rgb(100%,100%,100%);fill-opacity:1;stroke-width:4.638647;stroke-linecap:butt;stroke-linejoin:miter;stroke:rgb(0%,0%,0%);stroke-opacity:1;stroke-miterlimit:4;" d="M 181.502656 462.000948 C 187.505907 475.488004 197.979664 498.009086 215.989416 502.513302 C 233.999169 506.991926 235.480822 514.490422 262.508224 505.507582 C 289.510079 496.499149 288.00288 496.499149 300.009382 476.99794 C 311.990338 457.496731 310.483138 447.003955 309.001485 432.006962 C 307.494286 416.984377 289.510079 394.488888 274.489179 390.010264 C 259.493825 385.506047 236.988021 383.996111 215.989416 388.500327 C 194.990811 393.004544 192.001959 406.517193 187.505907 414.015689 C 183.009856 421.514185 175.499406 448.488299 181.502656 462.000948 Z M 181.502656 462.000948 " transform="matrix(0.152912,0,0,0.152635,-6.960955,-6.915844)"/>
<path style="fill-rule:nonzero;fill:rgb(0%,0%,0%);fill-opacity:1;stroke-width:4.638647;stroke-linecap:butt;stroke-linejoin:miter;stroke:rgb(0%,0%,0%);stroke-opacity:1;stroke-miterlimit:4;" d="M 240.00242 408.001537 C 223.499866 409.485881 215.989416 408.001537 208.504512 418.494313 C 201.019608 429.012682 196.676831 467.324112 206.511944 480.504063 C 213.485933 485.00828 220.000099 489.000653 229.503117 489.000653 C 239.006135 489.000653 253.490575 488.00256 260.00474 485.00828 C 266.49336 481.988407 275.485464 483.012093 281.003345 475.488004 C 286.495681 467.989508 288.999164 463.997134 288.488249 452.506264 C 288.00288 440.989802 288.00288 433.005055 282.995914 425.992809 C 277.988947 419.006156 274.489179 409.485881 264.986161 407.003443 C 255.508689 404.495414 256.504973 406.517193 240.00242 408.001537 Z M 240.00242 408.001537 " transform="matrix(0.152912,0,0,0.152635,-6.960955,-6.915844)"/>
<path style="fill-rule:nonzero;fill:rgb(100%,100%,100%);fill-opacity:1;stroke-width:5.798309;stroke-linecap:round;stroke-linejoin:round;stroke:rgb(0%,0%,0%);stroke-opacity:1;stroke-miterlimit:4;" d="M 996.540514 398.64413 C 990.313738 398.676121 983.927301 399.251944 977.476999 400.627521 C 948.131321 406.865605 859.359847 440.647227 837.518232 456.258431 C 815.612753 471.869635 793.132495 502.48423 783.776364 518.127424 C 774.388302 533.738629 745.010692 566.880447 731.886564 581.883838 C 718.762436 596.887229 688.746182 633.132094 679.996763 644.360645 C 671.247344 655.621185 671.885988 671.872193 671.885988 679.357893 C 671.885988 686.875584 671.247344 693.753471 678.751408 714.387132 C 686.255471 734.988803 691.875536 755.014651 701.263598 756.262268 C 710.619728 757.477894 727.511854 758.757501 752.482823 756.262268 C 777.517656 753.735044 838.763587 747.496961 853.13307 745.641531 C 867.502554 743.75411 884.39468 747.496961 897.486876 738.731653 C 910.611004 729.998336 940.627258 714.387132 958.764739 696.248704 C 976.870288 678.142267 1015.63596 644.360645 1025.024023 626.894011 C 1034.380153 609.395386 1061.873764 558.754943 1065.641762 540.616516 C 1069.377828 522.510078 1076.243248 479.355335 1076.243248 473.117252 C 1076.243248 466.879168 1066.887117 416.878529 1051.240347 410.608455 C 1039.042252 405.745949 1018.829179 398.58015 996.540514 398.64413 Z M 996.540514 398.64413 " transform="matrix(0.12233,0,0,0.122108,-6.961045,-6.915844)"/>
<path style=" stroke:none;fill-rule:nonzero;fill:rgb(100%,0%,0%);fill-opacity:1;" d="M 70.410156 24.070312 C 70.410156 25.441406 66.894531 28.953125 67.8125 34.601562 C 68.730469 40.25 70.109375 38.875 72.246094 42.078125 C 74.386719 45.285156 74.539062 49.558594 73.777344 51.851562 C 73.011719 54.140625 70.871094 55.359375 68.882812 55.359375 C 66.894531 55.359375 61.847656 54.140625 59.863281 52.917969 C 57.875 51.695312 54.355469 44.675781 54.355469 44.675781 C 54.355469 44.675781 46.863281 33.378906 51.554688 30.679688 C 57.058594 26.765625 66.996094 22.1875 69.136719 21.828125 C 71.28125 21.472656 70.410156 22.695312 70.410156 24.070312 Z M 132.417969 41.316406 C 133.792969 43.757812 134.867188 48.796875 137.007812 55.511719 C 139.144531 62.226562 134.40625 71.078125 132.496094 78.328125 C 130.582031 85.578125 132.113281 86.113281 131.882812 89.09375 C 131.65625 92.066406 128.519531 94.207031 125.691406 94.585938 C 122.859375 94.96875 119.039062 87.03125 117.050781 82.832031 C 115.0625 78.636719 106.804688 71.613281 102.140625 68.105469 C 99.785156 66.328125 98.777344 60.433594 95.109375 57.113281 C 91.515625 53.863281 88.304688 56.730469 86.007812 53.375 C 85.398438 51.769531 85.625 48.796875 82.417969 44.140625 C 79.207031 39.484375 81.652344 31.777344 81.652344 31.777344 C 81.652344 31.777344 84.597656 22.265625 87.28125 22.417969 C 90.175781 22.578125 92.757812 22.617188 93.605469 22.644531 C 95.234375 22.695312 103.796875 25.851562 109.558594 26.5625 C 114.261719 27.144531 123.6875 31.183594 130.847656 32.871094 C 132.457031 33.25 131.042969 38.875 132.417969 41.316406 Z M 180.96875 58.867188 C 180.96875 59.632812 181.882812 62.683594 181.425781 64.363281 C 180.96875 66.042969 182.496094 71.078125 183.109375 74.285156 C 183.722656 77.492188 183.722656 81 182.957031 83.140625 C 182.191406 85.277344 181.121094 85.734375 178.671875 86.496094 C 176.230469 87.257812 174.542969 90.007812 172.253906 90.007812 C 169.957031 90.007812 169.652344 89.246094 168.890625 85.886719 C 168.125 82.527344 169.347656 75.964844 169.957031 73.21875 C 170.570312 70.46875 169.039062 64.363281 169.039062 64.363281 C 169.039062 64.363281 166.910156 48.234375 171.320312 51.265625 C 173.101562 52.484375 174.519531 53.453125 175.207031 53.832031 C 175.90625 54.21875 177.09375 54.761719 178.503906 55.355469 C 181.929688 56.796875 180.96875 58.105469 180.96875 58.867188 Z M 201.917969 65.28125 C 201.917969 67.722656 204.054688 69.25 204.054688 72.148438 C 204.054688 75.046875 203.140625 76.269531 201.152344 79.324219 C 199.164062 82.375 200.082031 80.542969 196.566406 81.613281 C 193.050781 82.679688 191.976562 80.695312 192.4375 79.324219 C 192.894531 77.949219 195.953125 77.183594 196.257812 75.355469 C 196.566406 73.523438 193.964844 71.230469 194.882812 68.332031 C 195.800781 65.433594 192.578125 59.5 194.21875 59.707031 C 195.316406 59.847656 196.320312 59.9375 197.175781 59.9375 C 198.722656 59.9375 200.105469 60.152344 202.136719 59.792969 C 202.921875 59.652344 201.917969 62.835938 201.917969 65.28125 Z M 155.355469 45.972656 C 154.894531 47.652344 154.894531 48.949219 155.890625 51.695312 C 156.882812 54.441406 158.414062 62.761719 158.566406 66.042969 C 158.71875 69.324219 159.5625 76.652344 158.644531 80.851562 C 157.722656 85.046875 156.808594 88.328125 155.816406 90.3125 C 154.820312 92.296875 154.054688 93.0625 152.371094 91.839844 C 150.691406 90.617188 152.144531 85.734375 152.296875 82.910156 C 152.449219 80.085938 150.308594 76.957031 150.082031 72.683594 C 149.851562 67.035156 149.316406 62.152344 149.238281 59.25 C 150.003906 49.101562 145.109375 40.707031 145.25 36.746094 C 150.070312 39.019531 154.695312 41.8125 157.214844 42.640625 C 155.738281 43.683594 155.585938 44.367188 155.355469 45.972656 Z M 155.355469 45.972656 "/>
<path style="fill-rule:nonzero;fill:rgb(100%,100%,100%);fill-opacity:1;stroke-width:5.798309;stroke-linecap:butt;stroke-linejoin:miter;stroke:rgb(0%,0%,0%);stroke-opacity:1;stroke-miterlimit:4;" d="M 985.204588 59.548303 C 979.776117 59.516313 970.994766 64.186878 967.482225 65.850367 C 959.594976 69.593217 947.907796 75.415428 939.573495 79.606141 C 931.239195 83.732873 924.597301 86.260097 912.079884 94.993414 C 899.5944 103.758721 879.57292 121.673218 870.855433 124.584323 C 862.074082 127.495429 865.011843 127.495429 862.904319 122.504962 C 860.828727 117.514495 860.828727 114.155527 862.904319 96.241031 C 865.011843 78.326534 857.092661 91.250564 843.745008 98.768254 C 830.397355 106.253955 829.151999 110.412677 816.666515 122.08909 C 804.149098 133.733513 797.507204 135.397002 788.757785 137.924225 C 779.976434 140.419459 776.655487 135.428992 774.164777 123.752579 C 773.494201 120.553562 777.932775 107.725502 773.33454 109.580932 C 761.20031 114.411448 732.014292 145.249975 724.158975 154.591105 C 713.333964 167.515135 698.740955 171.257985 697.910719 169.178624 C 697.080482 167.099262 694.589771 165.851646 692.897366 165.851646 C 691.236892 165.851646 675.398528 179.159557 669.58687 183.734152 C 663.743281 188.340737 604.572942 238.341376 622.071779 235.398281 C 639.602549 232.487175 671.247344 225.833219 707.107188 233.318919 C 742.903167 240.83661 808.747333 241.668354 822.094986 242.084227 C 835.410708 242.500099 905.406057 268.348158 952.50603 274.17037 C 999.574071 279.992581 1104.567096 328.329731 1162.49208 331.656709 C 1220.417063 335.015677 1306.665895 394.165506 1342.078689 405.841919 C 1377.491482 417.518332 1469.583904 486.681085 1489.158333 497.493763 C 1502.761444 505.011454 1539.196067 520.014845 1568.637542 529.867818 C 1581.538145 534.154501 1569.595508 522.92595 1575.407165 519.982854 C 1581.250755 517.103739 1604.593182 519.982854 1615.833312 520.398727 C 1627.073441 520.846589 1659.165287 516.240004 1670.820534 511.249537 C 1682.507714 506.25907 1677.494361 473.757055 1677.909479 464.160004 C 1678.133005 459.201527 1683.17829 439.079708 1680.40019 419.565703 C 1677.845615 401.395285 1667.467655 383.80069 1666.66935 379.162115 C 1665.839113 374.42757 1657.185491 355.521378 1645.849566 337.926783 C 1634.194318 319.884326 1619.824835 303.185456 1617.493785 298.770812 C 1612.927483 290.005505 1572.086218 252.896905 1564.582154 247.906438 C 1557.078091 242.915971 1508.349577 209.582211 1500.398462 205.839361 C 1492.511213 202.096511 1479.993796 191.251843 1452.915303 184.597887 C 1441.515513 181.782752 1430.403113 176.088501 1418.332747 173.337346 C 1401.72801 169.594496 1384.899749 169.274594 1377.9066 169.978378 C 1365.836234 171.257985 1362.898473 169.978378 1355.84146 169.178624 C 1348.752515 168.346879 1350.828107 167.099262 1341.66357 168.762751 C 1332.499033 170.39425 1328.731035 173.337346 1321.258904 176.248452 C 1313.754841 179.159557 1310.401961 177.911941 1302.482779 178.327813 C 1294.595529 178.743685 1293.765293 172.921474 1290.412413 170.842113 C 1287.091466 168.762751 1280.417639 170.39425 1265.856563 170.842113 C 1251.263554 171.257985 1255.861789 169.978378 1252.061859 163.324422 C 1248.325793 156.670466 1247.495556 150.816265 1247.495556 150.816265 C 1247.495556 150.816265 1241.236848 149.600638 1232.902548 150.01651 C 1224.568248 150.432383 1222.077537 147.489287 1217.096116 143.330564 C 1212.082763 139.139852 1213.328118 138.75597 1207.899647 128.327173 C 1202.503108 117.930367 1206.271105 122.920834 1199.150228 122.08909 C 1192.093215 121.257345 1189.602505 122.504962 1173.764141 122.504962 C 1157.925777 122.504962 1166.675196 119.593856 1161.661843 113.739655 C 1156.680422 107.917443 1157.510659 105.838082 1157.510659 105.838082 C 1157.510659 105.838082 1149.591477 108.333316 1143.332769 109.580932 C 1137.07406 110.828549 1132.092639 114.571399 1121.235697 112.90791 C 1110.410686 111.244421 1114.976988 105.42221 1114.976988 105.42221 L 1111.656041 94.993414 C 1111.656041 94.993414 1098.34032 100.015871 1091.251375 102.479114 C 1084.16243 105.006338 1077.073485 106.253955 1072.9223 105.006338 C 1068.771116 103.758721 1067.493829 97.072775 1062.927527 82.485256 C 1058.329292 67.929728 1053.347871 71.672578 1046.258926 73.336067 C 1039.169981 74.999556 1036.67927 76.663045 1030.005444 80.022013 C 1023.331617 83.317001 999.98919 91.666436 996.253124 91.250564 C 992.517058 90.834691 986.673469 90.834691 987.503705 80.022013 C 987.886892 75.031546 991.910347 63.131202 988.333942 60.412037 C 987.535638 59.804224 986.449943 59.548303 985.204588 59.548303 Z M 985.204588 59.548303 " transform="matrix(0.12233,0,0,0.122108,-6.961045,-6.915844)"/>
<path style="fill-rule:nonzero;fill:rgb(100%,100%,100%);fill-opacity:1;stroke-width:4.638647;stroke-linecap:butt;stroke-linejoin:miter;stroke:rgb(0%,0%,0%);stroke-opacity:1;stroke-miterlimit:4;" d="M 921.486341 244.007117 C 922.508171 235.996777 930.018621 225.504001 935.510957 217.519254 C 941.003293 209.483323 959.498414 196.508109 971.504916 187.499676 C 983.485872 178.491243 985.503986 175.010713 998.992141 161.498064 C 1012.505842 148.011007 1014.345135 154.229897 1017.640537 145.989228 C 1011.126371 149.009101 997.995857 158.503784 990.996322 163.008 C 983.996787 167.512216 979.500735 170.506496 970.508632 177.518742 C 961.490983 184.505396 952.01351 188.497769 944.50306 196.508109 C 936.99261 204.492856 931.500274 206.002792 927.004223 208.997072 C 922.508171 211.991352 904.983788 227.500188 897.498884 233.488748 C 890.013979 239.5029 886.999581 240.014743 882.988899 234.998684 C 879.003762 230.008217 886.488666 224.505908 891.981002 216.495568 C 897.498884 208.485229 904.983788 201.984826 914.512352 192.003892 C 923.989824 181.997366 923.504455 183.48171 935.510957 171.99084 C 947.491913 160.499971 948.488197 163.494251 964.505381 148.497258 C 969.07807 143.276462 978.555542 136.366584 977.814716 134.344806 C 971.223913 137.518231 963.994466 142.994948 949.510027 151.51713 C 935.000042 160.01372 927.004223 166.00228 921.486341 168.484718 C 915.994005 170.992747 882.988899 192.515735 864.493777 212.503195 C 845.998656 232.516247 844.517002 215.983726 849.498423 204.492856 C 854.50539 193.001986 859.486811 193.488236 866.000976 183.993553 C 872.489596 174.49887 894.9954 155.995754 916.479374 138.004481 C 938.01444 120.013208 938.01444 119.501366 927.004223 125.003675 C 915.994005 130.505985 911.497954 132.988422 902.50585 139.002575 C 893.513747 145.016727 882.01816 151.005287 870.497028 161.984315 C 859.001441 172.988934 882.988899 151.51713 833.506785 192.515735 C 783.999125 233.488748 821.985652 195.510015 823.492851 186.987833 C 825.000051 178.491243 829.496102 170.506496 837.006552 160.499971 C 844.517002 150.493445 858.005157 143.993042 889.503065 118.503272 C 921.000972 92.987911 900.998651 104.504373 891.981002 108.010496 C 882.988899 111.516619 879.003762 116.993336 868.50446 123.007488 C 858.005157 128.996049 847.020485 139.002575 838.002836 145.502978 C 829.010733 152.003381 825.510966 159.501877 796.005627 179.003086 C 766.500288 198.504295 767.496572 189.009612 771.481708 179.489337 C 775.492391 169.994654 782.006557 166.00228 793.502143 151.51713 C 804.99773 137.006388 817.515146 129.482299 839.510036 112.514712 C 861.504925 95.49594 859.001441 88.483694 842.498888 103.480687 C 825.996335 118.503272 830.492386 111.004776 819.993084 118.503272 C 809.519327 126.001769 808.982867 128.484206 759.986122 160.986221 C 711.014923 193.488236 730.506328 168.484718 732.498897 154.997661 C 733.597364 147.703902 745.118496 135.086978 759.986122 122.90512 C 771.609437 113.384845 785.53187 100.076933 797.998195 92.731989 C 799.096662 92.092186 805.84074 88.816392 806.913661 88.176589 C 813.657738 82.904608 819.328895 80.140657 821.653558 73.281964 C 807.143573 83.262898 798.994479 86.5131 789.491461 93.499753 C 780.013988 100.511999 770.996339 105.502466 765.989373 106.98681 C 760.982406 108.496746 754.493786 115.508992 709.993093 152.003381 C 665.4924 188.497769 691.497971 152.515223 693.490539 140.512511 C 695.508654 128.484206 729.510044 100.99825 752.501218 77.504667 C 775.492391 54.011085 749.997734 73.000451 739.498432 80.498947 C 728.999129 87.997444 724.988447 88.995537 712.496576 99.488314 C 700.004705 110.006682 678.009816 127.997955 670.499366 132.988422 C 662.988916 138.004481 646.000994 154.485818 634.990776 169.482811 C 623.980559 184.505396 619.510053 177.518742 618.999138 177.518742 C 618.488223 177.518742 619.510053 167.000374 620.991706 161.498064 C 622.498906 155.995754 639.001459 130.992235 646.997278 123.007488 C 654.993097 114.997149 670.013997 90.991724 667.510514 94.497847 C 665.00703 98.00397 655.504012 105.988717 649.015392 113.000963 C 642.501226 120.013208 606.507267 152.515223 600.504016 158.503784 C 594.500766 164.492344 588.497515 175.983214 580.987065 179.489337 C 573.502161 182.99546 574.498445 176.495057 572.991246 172.988934 C 571.509592 169.482811 584.997747 137.518231 589.519345 129.482299 C 593.989851 121.497552 606.507267 102.994437 601.98567 107.498653 C 597.489618 112.002869 592.993567 118.503272 588.497515 122.495646 C 584.001463 126.513611 582.494264 126.001769 571.994962 145.502978 C 561.495659 165.004187 550.510987 177.006899 544.993106 177.518742 C 539.50077 178.004993 535.490088 175.496963 536.001003 173.500777 C 536.511918 171.50459 540.011685 162.496157 542.489623 157.50569 C 544.993106 152.515223 555.492408 137.518231 554.496124 135.496452 C 553.49984 133.500265 539.50077 151.51713 532.501235 161.984315 C 525.5017 172.502683 483.657765 190.673101 497.656835 188.318624 C 511.68145 185.98974 536.997287 180.666575 565.685162 186.655135 C 594.321945 192.669288 646.997278 193.334683 657.675401 193.667381 C 668.327978 194.000079 724.324257 214.678527 762.004236 219.336296 C 799.658669 223.994065 883.653088 262.663785 930.018621 265.325368 C 932.343284 265.47892 920.490057 251.991864 921.486341 244.007117 Z M 921.486341 244.007117 " transform="matrix(0.152912,0,0,0.152635,-6.960955,-6.915844)"/>
<path style=" stroke:none;fill-rule:nonzero;fill:rgb(100%,0%,0%);fill-opacity:1;" d="M 33.40625 80.902344 C 32.386719 79.675781 28.714844 75.203125 28.617188 74.488281 C 28.515625 73.777344 28.207031 73.066406 29.023438 72.960938 C 29.839844 72.863281 32.289062 72.65625 33.816406 72.25 C 35.34375 71.84375 36.46875 71.539062 37.382812 71.03125 C 38.300781 70.519531 39.421875 69.097656 39.832031 69.503906 C 40.238281 69.910156 38.914062 71.640625 39.015625 72.148438 C 39.117188 72.65625 39.320312 73.878906 40.546875 76.015625 C 41.769531 78.152344 42.785156 79.78125 42.886719 81.917969 C 42.992188 84.054688 43.195312 85.277344 42.378906 86.089844 C 41.5625 86.90625 41.054688 88.328125 39.523438 87.207031 C 37.996094 86.089844 34.429688 82.121094 33.40625 80.902344 Z M 33.40625 80.902344 "/>
<path style="fill-rule:nonzero;fill:rgb(100%,100%,100%);fill-opacity:1;stroke-width:5.798309;stroke-linecap:round;stroke-linejoin:round;stroke:rgb(0%,0%,0%);stroke-opacity:1;stroke-miterlimit:4;" d="M 749.576994 893.756029 C 747.661063 893.788019 743.222489 893.94797 734.600799 894.171901 C 721.764061 894.491803 700.018243 894.811705 676.931273 895.067626 C 700.018243 925.842172 683.764761 904.600697 695.835127 953.32173 C 695.835127 953.32173 712.088609 1010.008316 715.409556 1025.011706 C 718.762436 1039.983107 744.595573 1098.749054 749.608926 1106.266744 C 754.590347 1113.752445 772.089185 1131.251069 777.102538 1140.848121 C 782.083959 1150.413182 790.00314 1162.505467 798.337441 1175.429497 C 806.671741 1188.321537 806.671741 1194.175738 820.402581 1208.315394 C 834.165352 1222.487041 840.839179 1232.499965 844.575245 1232.499965 C 848.343243 1232.499965 846.235718 1235.41107 852.909545 1224.18252 C 859.583372 1212.921979 867.917672 1193.343994 873.72933 1189.985026 C 879.57292 1186.658048 887.90722 1166.248318 887.90722 1166.248318 L 893.335691 1150.413182 C 893.335691 1150.413182 900.009518 1143.759226 903.330465 1128.339963 C 906.651413 1112.9207 907.896768 1097.501437 912.910121 1088.73613 C 917.891542 1080.002813 923.320013 1055.850233 923.320013 1055.850233 C 923.320013 1055.850233 928.333366 1030.002173 923.735132 1019.573377 C 919.168829 1009.144581 905.406057 987.903106 904.990939 987.903106 C 904.607753 987.903106 890.844981 972.099961 865.426962 959.143941 C 839.97701 946.251902 819.572344 926.641926 809.57757 925.010427 C 799.582796 923.346938 779.976434 914.165759 779.976434 913.749887 C 779.976434 913.334014 767.522882 908.343548 754.590347 907.479813 C 748.746757 907.479813 741.657812 900.409985 741.657812 900.409985 C 737.857882 895.003646 755.228991 893.724039 749.576994 893.756029 Z M 749.576994 893.756029 " transform="matrix(0.12233,0,0,0.122108,-6.961045,-6.915844)"/>
<path style="fill-rule:nonzero;fill:rgb(100%,100%,100%);fill-opacity:1;stroke-width:5.798309;stroke-linecap:round;stroke-linejoin:round;stroke:rgb(0%,0%,0%);stroke-opacity:1;stroke-miterlimit:4;" d="M 1517.482181 813.332736 C 1488.743215 823.761532 1447.518764 817.107576 1421.238576 826.224775 C 1394.990319 835.405954 1343.771095 847.082367 1324.164733 855.847675 C 1304.590303 864.580992 1247.910675 873.762171 1235.840309 877.920894 C 1223.738011 882.079616 1125.003694 902.905218 1112.103092 906.264186 C 1099.138624 909.591164 1101.661267 915.829248 1101.661267 915.829248 C 1101.661267 915.829248 1118.329868 939.981828 1144.993242 955.017209 C 1171.656617 969.98861 1235.010072 1008.344827 1269.145578 1015.830527 C 1303.344948 1023.348217 1384.165309 1035.856375 1404.985093 1050.827776 C 1425.83681 1065.831166 1437.492058 1066.662911 1460.004248 1072.485122 C 1482.484507 1078.339324 1500.845513 1080.834557 1515.821708 1073.348857 C 1530.829835 1065.831166 1570.010626 1048.332542 1584.156584 1033.329151 C 1598.334474 1018.357751 1603.315895 1022.484483 1616.663548 993.341436 C 1630.011202 964.134408 1640.005976 959.143941 1636.653096 927.505661 C 1633.332149 895.83539 1632.501912 871.65082 1629.180965 860.838142 C 1625.828086 849.993473 1604.146132 822.513915 1597.504237 820.818436 C 1590.862343 819.154947 1535.428069 819.986691 1535.428069 819.986691 C 1520.835061 822.513915 1522.080416 818.355193 1517.482181 813.332736 Z M 1517.482181 813.332736 " transform="matrix(0.12233,0,0,0.122108,-6.961045,-6.915844)"/>
<path style="fill-rule:nonzero;fill:rgb(100%,100%,100%);fill-opacity:1;stroke-width:5.798309;stroke-linecap:round;stroke-linejoin:round;stroke:rgb(0%,0%,0%);stroke-opacity:1;stroke-miterlimit:4;" d="M 2153.858698 396.084917 C 2149.164667 396.052926 2140.351384 397.620445 2122.086174 402.067079 C 2089.57921 410.000642 2035.422224 430.410372 2005.821088 442.502657 C 1976.251885 454.594942 1952.909458 460.417153 1924.170491 472.509439 C 1899.997827 480.411011 1871.673979 492.919169 1845.840841 500.820741 C 1827.096648 510.833665 1753.748419 533.322756 1776.675728 528.748162 C 1799.603037 524.173567 1800.81646 534.602363 1803.339102 542.919808 C 1805.829813 551.237253 1815.856519 570.399366 1812.886826 582.491651 C 1810.012929 594.583937 1806.244931 609.139465 1805.414695 619.568261 C 1804.584458 629.997057 1800.018155 635.403397 1801.231578 649.159171 C 1802.508866 662.914945 1810.428048 693.753471 1804.169339 703.350523 C 1797.910631 712.915584 1789.991449 727.503103 1784.147859 732.077698 C 1778.336202 736.652292 1757.069366 749.992194 1749.150184 752.9033 C 1741.231002 755.846396 1736.6647 760.005118 1732.513516 760.005118 C 1728.3304 760.005118 1780.826912 770.401924 1790.821686 775.008509 C 1800.81646 779.583104 1870.843742 809.142023 1890.418171 814.580352 C 1909.992601 819.986691 1999.977498 852.904579 2009.589086 853.736323 C 2019.168742 854.600058 2101.26639 878.752638 2108.323402 878.336766 C 2115.412348 877.920894 2139.169893 877.920894 2139.169893 877.920894 L 2138.339656 799.161089 C 2138.339656 799.161089 2126.652477 737.931899 2119.97865 725.423742 C 2113.336755 712.915584 2099.158865 670.816517 2094.145512 666.657795 C 2089.164091 662.499073 2083.352434 648.327426 2083.352434 648.327426 C 2083.352434 648.327426 2087.088499 639.594109 2092.06992 632.076419 C 2102.096626 619.152389 2107.493166 594.999809 2112.921637 581.244035 C 2125.82224 557.091454 2137.094301 521.230471 2140.00013 507.890569 C 2140.00013 507.890569 2158.744323 438.727816 2158.744323 438.343934 C 2158.744323 437.928062 2162.927439 401.235334 2159.989678 398.356219 C 2158.71239 397.044622 2157.5309 396.084917 2153.858698 396.084917 Z M 2153.858698 396.084917 " transform="matrix(0.12233,0,0,0.122108,-6.961045,-6.915844)"/>
<path style=" stroke:none;fill-rule:nonzero;fill:rgb(100%,100%,100%);fill-opacity:1;" d="M 24.003906 60.546875 C 24.308594 60.929688 24.691406 61.082031 25.683594 60.777344 C 26.679688 60.472656 26.984375 59.9375 28.820312 59.863281 C 30.652344 59.785156 31.496094 59.785156 32.335938 59.9375 C 33.179688 60.089844 33.714844 59.554688 33.867188 59.9375 C 34.019531 60.320312 35.242188 60.625 33.40625 61.007812 C 31.574219 61.390625 31.265625 62.300781 29.890625 62.300781 C 28.515625 62.300781 28.4375 62.914062 27.0625 62.761719 C 25.683594 62.609375 24.308594 63.371094 24.234375 63.753906 C 24.15625 64.136719 22.601562 63.496094 22.601562 62.886719 C 22.601562 62.277344 23.695312 60.167969 24.003906 60.546875 Z M 24.003906 60.546875 "/>
<path style=" stroke:none;fill-rule:nonzero;fill:rgb(100%,33.333333%,33.333333%);fill-opacity:1;" d="M 114.945312 41.761719 C 114.183594 41.765625 113.402344 41.835938 112.613281 42.003906 C 109.023438 42.765625 98.164062 46.890625 95.492188 48.796875 C 93.265625 50.382812 90.984375 53.234375 89.625 55.25 C 91.277344 55.386719 93.132812 55.328125 95.109375 57.113281 C 98.777344 60.433594 99.785156 66.328125 102.140625 68.105469 C 104.847656 70.140625 108.761719 73.359375 111.960938 76.523438 C 114.34375 74.273438 117.515625 71.332031 118.429688 69.632812 C 119.574219 67.496094 122.9375 61.3125 123.398438 59.097656 C 123.855469 56.886719 124.695312 51.617188 124.695312 50.855469 C 124.695312 50.09375 123.550781 43.988281 121.636719 43.222656 C 120.144531 42.628906 117.671875 41.753906 114.945312 41.761719 Z M 114.945312 41.761719 "/>
<path style="fill:none;stroke-width:5.798309;stroke-linecap:round;stroke-linejoin:round;stroke:rgb(0%,0%,0%);stroke-opacity:1;stroke-miterlimit:4;" d="M 996.540514 398.64413 C 990.313738 398.676121 983.927301 399.251944 977.476999 400.627521 C 948.131321 406.865605 859.359847 440.647227 837.518232 456.258431 C 815.612753 471.869635 793.132495 502.48423 783.776364 518.127424 C 774.388302 533.738629 745.010692 566.880447 731.886564 581.883838 C 718.762436 596.887229 688.746182 633.132094 679.996763 644.360645 C 671.247344 655.621185 671.885988 671.872193 671.885988 679.357893 C 671.885988 686.875584 671.247344 693.753471 678.751408 714.387132 C 686.255471 734.988803 691.875536 755.014651 701.263598 756.262268 C 710.619728 757.477894 727.511854 758.757501 752.482823 756.262268 C 777.517656 753.735044 838.763587 747.496961 853.13307 745.641531 C 867.502554 743.75411 884.39468 747.496961 897.486876 738.731653 C 910.611004 729.998336 940.627258 714.387132 958.764739 696.248704 C 976.870288 678.142267 1015.63596 644.360645 1025.024023 626.894011 C 1034.380153 609.395386 1061.873764 558.754943 1065.641762 540.616516 C 1069.377828 522.510078 1076.243248 479.355335 1076.243248 473.117252 C 1076.243248 466.879168 1066.887117 416.878529 1051.240347 410.608455 C 1039.042252 405.745949 1018.829179 398.58015 996.540514 398.64413 Z M 996.540514 398.64413 " transform="matrix(0.12233,0,0,0.122108,-6.961045,-6.915844)"/>
</g>
</svg>
