<?xml version="1.0" encoding="UTF-8"?>
<!-- Created by grConvert v0.1-0 -->
<svg xmlns="http://www.w3.org/2000/svg" xmlns:xlink="http://www.w3.org/1999/xlink" width="319pt" height="329pt" viewBox="0 0 319 329" version="1.1">
<g id="surface5185">
<path style=" stroke:none;fill-rule:nonzero;fill:rgb(0%,0%,0%);fill-opacity:1;" d="M 255.605469 0.0507812 C 244.867188 -0.652344 222.128906 6.175781 221.695312 11.652344 C 210.550781 9.207031 214.394531 35.628906 208.84375 36.855469 C 209.113281 31.785156 195.824219 35.9375 199.707031 37.917969 C 201.804688 39.710938 218.105469 38.265625 208.207031 46.640625 C 211.902344 39.773438 193.96875 42.921875 192.539062 37.921875 C 175.246094 36.878906 160.773438 49.386719 146.3125 57.292969 C 136.550781 59.9375 127.375 78.464844 124.34375 78.347656 C 123.152344 73.894531 119.984375 82.402344 120.917969 82.429688 C 112.417969 92.800781 101.183594 93.347656 93.542969 105.558594 C 85.203125 113.402344 78.800781 123.09375 70.742188 131.257812 C 62.953125 139.5 55.367188 148.050781 46.878906 157.066406 C 35.296875 168.269531 48.171875 162.152344 46.789062 164.636719 C 32.824219 172.59375 29.535156 188.65625 22.761719 201.171875 C 18.300781 205.160156 9.097656 222.851562 20.332031 210.605469 C 18.195312 215.996094 14.632812 218.363281 20.339844 218.449219 C 13.503906 226.515625 4.335938 233.136719 0 242.886719 C 4.902344 257.175781 21.207031 235.753906 32.355469 242.046875 C 40.757812 238.222656 62.53125 228.410156 60.925781 237.488281 C 73.128906 233.828125 81.011719 236.011719 93.058594 235.144531 C 107.789062 234.027344 110.621094 250.167969 122.863281 253.761719 C 124.480469 256.195312 132.089844 253.675781 136.449219 254.507812 C 133.304688 243.9375 143.003906 256.609375 141.617188 249.304688 C 150.878906 253.453125 175.195312 265.691406 173.175781 269.648438 C 161.335938 265.15625 142.640625 274.824219 139.070312 284.894531 C 146.324219 280.761719 143.046875 294.730469 138.761719 297.292969 C 164.203125 276.101562 157.082031 291.917969 146.773438 303.882812 C 203.417969 288.5 178.011719 290.742188 195.136719 289.429688 C 209.667969 287.328125 202.84375 289.648438 213.671875 292.523438 C 216.800781 293.441406 210.273438 306 215.453125 307.0625 C 216.023438 297.773438 234.539062 301.148438 241.765625 303.660156 C 251.511719 307.347656 260.964844 321.429688 266.511719 323.367188 C 267.574219 312.105469 266.234375 320.957031 265.289062 321.855469 C 260.933594 313.949219 265.074219 308.558594 269.71875 319.609375 C 271.382812 327.777344 275.394531 334.4375 275.894531 321.195312 C 271.570312 304.496094 253.839844 296.265625 246.46875 281.84375 C 242.980469 276.226562 234.292969 274.007812 243.445312 280.394531 C 230.292969 272.957031 216.332031 267.316406 204.828125 257.066406 C 197.898438 250.402344 190.574219 244.171875 183.257812 237.945312 C 190.285156 232.734375 185.773438 240.167969 193.042969 242.246094 C 202.242188 240.222656 214.652344 228.871094 218.300781 222.074219 C 214.601562 223.503906 207.960938 223.738281 218.210938 219.578125 C 224.046875 217.839844 237.75 207.175781 226.78125 217.15625 C 234.929688 209.285156 240.125 214.144531 250.15625 208.476562 C 263.453125 198.96875 277.699219 185.875 279.4375 168.941406 C 275.1875 165.921875 272.847656 177.746094 269.746094 178.320312 C 269.136719 166.917969 286.804688 164.730469 287.636719 153.339844 C 284.996094 147.339844 286.996094 145.816406 289.71875 151.015625 C 295.691406 141.894531 304.097656 127.425781 298.175781 121.613281 C 302.304688 120.609375 305.667969 113.90625 304.949219 119.507812 C 314.09375 113.140625 304.800781 93.925781 314.539062 101.105469 C 314.410156 91.113281 323.996094 78.59375 310.695312 74.613281 C 318.25 67.792969 317.234375 77.246094 319.261719 78.667969 C 317.679688 69.507812 312.265625 46.382812 307.792969 45.679688 C 313.3125 57.988281 306.003906 50.167969 306.027344 43.359375 C 307.453125 37.457031 296.539062 24.007812 293.136719 24.125 C 296.203125 24.742188 290.066406 11.085938 285.761719 16.726562 C 288.269531 8.96875 267.222656 1.601562 257.050781 0.0507812 Z M 255.605469 0.0507812 "/>
<path style=" stroke:none;fill-rule:nonzero;fill:rgb(100%,100%,100%);fill-opacity:1;" d="M 232.546875 23.367188 C 231.28125 33.71875 240.757812 40.523438 228.273438 44.183594 C 219.746094 51.628906 226.765625 51.246094 233.335938 48.023438 C 226.917969 52.230469 221.082031 58.703125 231.90625 52.335938 C 237.960938 44.824219 241.46875 50.882812 246.484375 50.6875 C 248.792969 46.359375 257.523438 52.488281 248.203125 53.183594 C 250.023438 71.820312 221.960938 58.027344 210.566406 67.371094 C 201.515625 75.5625 208.40625 54.117188 209.5 63.925781 C 209.785156 52.339844 215.488281 37.351562 225.996094 29.113281 C 228.179688 27.199219 230.363281 25.28125 232.546875 23.367188 Z M 232.546875 23.367188 "/>
</g>
</svg>
