<?xml version="1.0" encoding="UTF-8"?>
<!-- Created by grConvert v0.1-0 -->
<svg xmlns="http://www.w3.org/2000/svg" xmlns:xlink="http://www.w3.org/1999/xlink" width="183pt" height="144pt" viewBox="0 0 183 144" version="1.1">
<g id="surface1264">
<path style=" stroke:none;fill-rule:nonzero;fill:rgb(94.901961%,94.901961%,94.901961%);fill-opacity:1;" d="M 59.828125 52.5 C 61.800781 59.261719 145.535156 101.878906 154.328125 116.925781 C 154.730469 117.617188 154.917969 125.941406 149.480469 125.667969 C 144.648438 125.425781 134.566406 116.742188 128.53125 115.011719 C 119.578125 112.4375 110.894531 105.523438 108.613281 105.253906 C 105.132812 104.84375 96.121094 107.78125 87.742188 109.191406 C 78.214844 110.792969 69.113281 110.910156 62.882812 110.644531 C 58.378906 110.453125 39.515625 97.414062 31.222656 87.523438 C 24.839844 79.914062 24.0625 71.609375 19.085938 64.273438 C 11.71875 53.410156 9.488281 49.589844 9.488281 44.925781 C 9.488281 33.015625 9.703125 19.574219 22.820312 19.574219 C 35.9375 19.574219 56.496094 41.070312 59.828125 52.5 Z M 59.828125 52.5 "/>
<path style=" stroke:none;fill-rule:nonzero;fill:rgb(100%,100%,100%);fill-opacity:1;" d="M 43.882812 1.710938 C 43.421875 1.703125 42.933594 1.707031 42.410156 1.722656 C 41.015625 1.757812 39.378906 1.871094 37.378906 2.039062 C 32.195312 2.476562 27.777344 3.359375 27.5625 4.003906 C 27.34375 4.648438 26.21875 4.871094 25.0625 4.5 C 23.398438 3.96875 23.320312 2.214844 24.683594 3.1875 C 26.117188 4.207031 25.90625 5.34375 23.4375 9.816406 C 21.148438 13.957031 19.503906 15.410156 16.371094 16.046875 C 14.125 16.507812 11.984375 16.390625 11.609375 15.785156 C 11.238281 15.183594 9.980469 14.707031 8.820312 14.730469 C 7.105469 14.765625 7.261719 15.238281 9.65625 17.230469 C 12.929688 19.960938 12.726562 20.019531 5.140625 18.550781 C -1.425781 17.28125 -1.726562 18.554688 4.515625 21.183594 C 11.011719 23.914062 14.640625 24.632812 15.09375 23.265625 C 15.703125 21.449219 23.289062 24.59375 30.980469 29.851562 C 35.949219 33.25 38.816406 34.429688 40.953125 33.960938 C 45.636719 32.925781 53.414062 24.789062 57.453125 16.695312 C 60.996094 9.601562 61.050781 9.230469 58.917969 6.871094 C 57.703125 5.523438 54.476562 3.285156 51.75 1.894531 C 48.988281 0.484375 47.109375 1.765625 43.882812 1.710938 Z M 20.984375 4.691406 C 17.914062 4.691406 10.570312 11.601562 11.695312 13.425781 C 12.601562 14.886719 17.316406 15.078125 19.332031 13.734375 C 20.96875 12.640625 23.582031 7.898438 23.582031 6.019531 C 23.582031 5.289062 22.410156 4.691406 20.984375 4.691406 Z M 63.65625 11.722656 C 61.167969 11.761719 59.625 13.925781 56.71875 19.609375 C 53.414062 26.070312 46.976562 32.710938 42.308594 34.46875 C 39.675781 35.460938 37.65625 34.773438 29.8125 30.191406 C 19.917969 24.417969 16.085938 23.542969 13.628906 26.503906 C 11.007812 29.660156 14.6875 36.820312 22.335938 43.445312 C 26.660156 47.191406 29.699219 50.992188 30.472656 53.617188 C 31.460938 56.984375 32.433594 57.898438 35.394531 58.234375 C 37.421875 58.464844 40.453125 59.730469 42.125 61.046875 C 43.796875 62.363281 45.847656 63.4375 46.679688 63.4375 C 47.511719 63.4375 49.210938 64.566406 50.453125 65.941406 C 51.699219 67.316406 53.257812 68.441406 53.917969 68.441406 C 54.578125 68.441406 57.726562 70.335938 60.910156 72.65625 C 64.097656 74.976562 69.238281 78.148438 72.332031 79.703125 C 75.425781 81.257812 79.542969 83.859375 81.488281 85.484375 C 83.429688 87.109375 86.003906 88.441406 87.203125 88.441406 C 91.148438 88.441406 100.785156 92.292969 103.023438 94.765625 C 105.28125 97.257812 109.832031 98.101562 109.832031 96.023438 C 109.832031 95.382812 110.953125 94.5 112.328125 94.066406 C 116.210938 92.832031 115.289062 89.085938 110.140625 85.171875 C 113.652344 86.824219 119.121094 88.453125 119.863281 90.398438 C 120.542969 92.1875 122.902344 94.328125 125.296875 95.328125 C 127.621094 96.300781 129.84375 97.917969 130.226562 98.921875 C 130.613281 99.929688 132.953125 101.710938 135.421875 102.882812 C 137.894531 104.054688 140.515625 106.132812 141.242188 107.496094 C 142.347656 109.5625 141.945312 110.550781 138.828125 113.394531 L 135.085938 116.816406 L 130.511719 112.628906 C 127.996094 110.324219 124.917969 108.4375 123.664062 108.4375 C 122.410156 108.4375 120.769531 107.695312 120.011719 106.785156 C 119.207031 105.8125 116.566406 105.246094 113.609375 105.40625 C 110.84375 105.558594 108.578125 105.175781 108.578125 104.5625 C 108.578125 103.945312 109.125 103.441406 109.789062 103.441406 C 110.457031 103.441406 110.679688 102.597656 110.28125 101.566406 C 109.367188 99.179688 106.007812 99.160156 102.882812 101.523438 C 99.957031 103.738281 98.09375 103.984375 99.324219 101.996094 C 99.894531 101.074219 99.664062 100.894531 98.691406 101.496094 C 97.546875 102.203125 97.699219 103.027344 99.316406 104.8125 C 100.5 106.121094 100.847656 107.191406 100.085938 107.191406 C 119.59375 107.585938 116.769531 107.84375 119.59375 107.585938 C 121.78125 107.585938 125.074219 111.605469 130.585938 116.523438 C 131.792969 117.597656 134.542969 118.71875 135.796875 119.847656 C 139.546875 123.222656 144.078125 126.804688 146.734375 129.335938 C 154.058594 136.308594 162.160156 140.898438 164.828125 141.910156 C 167.894531 143.066406 170.878906 142.902344 171.730469 141.527344 C 172.183594 140.792969 174.300781 140.570312 176.660156 141.011719 C 185.609375 142.691406 174 139.074219 169.878906 126.070312 C 164.386719 120.664062 158.007812 112.789062 155.097656 107.816406 C 144.480469 95.09375 124.660156 78.660156 115.800781 71.488281 C 115.929688 71.769531 116.023438 71.980469 116.148438 72.25 C 115.859375 71.992188 115.585938 71.765625 115.347656 71.609375 C 114.554688 70.839844 114.03125 70.253906 113.691406 69.792969 C 111.332031 67.902344 111.058594 67.667969 113.460938 69.464844 C 110.667969 64.882812 135.613281 79.261719 137.871094 78.753906 C 139.011719 78.453125 132.957031 74.828125 132.214844 71.398438 C 131.40625 67.65625 129.953125 63.355469 128.871094 61.3125 C 128.019531 59.707031 126.664062 57.664062 124.699219 55.066406 C 116.207031 43.75 116.6875 44.121094 113.441406 46.394531 C 113.394531 46.429688 113.34375 46.453125 113.296875 46.484375 C 113.976562 45.910156 113.433594 44.875 111.648438 43.394531 C 110.585938 42.511719 110.023438 40.996094 110.394531 40.023438 C 110.765625 39.050781 110.488281 37.164062 109.773438 35.832031 C 107.535156 31.652344 92.085938 22.871094 79.125 18.410156 L 72.1875 16.027344 L 72.171875 16.761719 C 71.816406 14.75 69.425781 15.496094 67.550781 13.5625 C 66.242188 12.207031 64.785156 11.703125 63.65625 11.722656 Z M 113.460938 69.464844 C 113.519531 69.5625 113.609375 69.679688 113.691406 69.792969 C 114.359375 70.328125 114.859375 70.726562 115.800781 71.488281 C 115.726562 71.332031 115.679688 71.230469 115.605469 71.070312 C 114.4375 70.195312 114.136719 69.972656 113.460938 69.464844 Z M 10.589844 43.257812 C 10.25 43.207031 10.023438 43.761719 9.773438 44.769531 C 9.253906 46.859375 10.269531 50.195312 13.007812 55.417969 C 15.203125 59.597656 17.707031 65.226562 18.574219 67.917969 C 19.445312 70.609375 20.671875 73.464844 21.300781 74.261719 C 21.925781 75.054688 23.683594 78.25 25.199219 81.363281 C 27.757812 86.617188 36.351562 96.53125 44.050781 103.117188 C 45.855469 104.660156 59.023438 112.117188 59.023438 113.023438 C 62.585938 109.484375 62.152344 116.410156 68.582031 114.195312 C 72.363281 112.890625 78.652344 111.746094 82.558594 111.648438 C 89.820312 111.46875 95.6875 108.339844 93.96875 105.5625 C 93.480469 104.769531 93.972656 104.574219 95.234375 105.058594 C 96.757812 105.640625 97.207031 105.234375 96.945312 103.515625 C 96.40625 99.976562 93.589844 97.1875 90.550781 97.1875 C 89.054688 97.1875 87.15625 96.515625 86.332031 95.6875 C 85.503906 94.863281 84.828125 94.628906 84.828125 95.167969 C 84.828125 95.707031 82.71875 94.480469 80.140625 92.441406 C 77.5625 90.402344 74.328125 88.527344 72.953125 88.269531 C 71.578125 88.011719 69.898438 86.535156 69.21875 84.992188 C 68.539062 83.445312 67.414062 82.371094 66.722656 82.601562 C 66.027344 82.832031 62.792969 81.144531 59.53125 78.855469 C 52.808594 74.128906 47.894531 72.980469 51.511719 76.976562 C 52.652344 78.238281 53.207031 79.644531 52.75 80.101562 C 52.289062 80.5625 52.945312 80.941406 54.203125 80.941406 C 55.464844 80.941406 56.140625 81.292969 55.707031 81.726562 C 54.769531 82.664062 45.871094 78.667969 44.492188 76.691406 C 43.84375 75.761719 42.933594 76.097656 41.695312 77.722656 C 40.101562 79.808594 39.46875 79.917969 36.890625 78.539062 C 35.257812 77.664062 32.4375 75.574219 30.625 73.894531 C 26.730469 70.28125 26.109375 72.449219 29.28125 78.585938 C 32.570312 84.949219 30.488281 85.628906 26.828125 79.382812 C 24.933594 76.15625 23.707031 73 24.09375 72.367188 C 24.484375 71.738281 23.929688 70.496094 22.859375 69.609375 C 20.378906 67.550781 17.328125 61.683594 17.328125 58.96875 C 17.328125 57.816406 15.800781 53.46875 13.929688 49.300781 C 12.054688 45.121094 11.160156 43.34375 10.589844 43.257812 Z M 59.023438 113.023438 C 58.800781 113.246094 58.644531 113.417969 58.445312 113.621094 C 58.8125 113.449219 59.023438 113.253906 59.023438 113.023438 Z M 58.445312 113.621094 C 55.539062 114.988281 42.507812 114.691406 40.855469 114.691406 C 38.917969 114.691406 32.328125 121.808594 32.328125 123.902344 C 32.328125 124.855469 33.59375 126.515625 35.140625 127.59375 C 39.015625 130.296875 43.578125 127.1875 43.578125 127.1875 C 45.1875 124.179688 49.566406 120.492188 54.699219 123.144531 C 54.9375 118.59375 54.199219 117.953125 58.445312 113.621094 Z M 113.007812 46.664062 C 112.765625 46.8125 112.511719 46.882812 112.253906 46.894531 C 112.554688 46.835938 112.808594 46.761719 113.007812 46.664062 Z M 101.53125 46.722656 C 101.203125 47.296875 101 47.789062 100.984375 47.964844 C 100.972656 48.101562 100.625 48.320312 100.132812 48.597656 C 100.25 47.890625 100.375 47.316406 100.496094 47.125 C 100.605469 46.949219 100.988281 46.816406 101.53125 46.722656 Z M 103.421875 63.585938 C 103.707031 63.835938 103.984375 64.097656 104.253906 64.367188 C 103.886719 64.011719 103.742188 63.882812 103.421875 63.585938 Z M 39.363281 83.472656 C 40.167969 83.417969 41.496094 84.515625 42.839844 86.566406 C 43.964844 88.285156 44.453125 89.671875 43.921875 89.648438 C 42.207031 89.578125 38.582031 86.332031 38.582031 84.863281 C 38.582031 83.957031 38.878906 83.507812 39.363281 83.472656 Z M 147.960938 116.5 C 148.1875 116.503906 148.386719 116.578125 148.542969 116.734375 C 148.867188 117.058594 148.53125 117.714844 147.792969 118.195312 C 147.058594 118.671875 146.191406 119.878906 145.871094 120.878906 C 145.414062 122.292969 145.074219 122.34375 144.308594 121.105469 C 143.46875 119.75 146.382812 116.460938 147.960938 116.5 Z M 147.960938 116.5 "/>
<path style=" stroke:none;fill-rule:nonzero;fill:rgb(10.196078%,10.196078%,10.196078%);fill-opacity:1;" d="M 159.828125 139.960938 C 156.734375 137.972656 151.789062 133.707031 148.839844 130.484375 C 143.71875 124.898438 143.476562 127.28125 147.117188 127.28125 C 149.351562 127.28125 158.109375 129.023438 157.441406 126.222656 C 155.921875 119.839844 139.710938 104.761719 129.820312 97.8125 C 126.882812 95.75 122.507812 92.109375 120.097656 89.71875 C 117.6875 87.332031 113.539062 84.402344 110.878906 83.210938 C 108.21875 82.019531 105.710938 80.183594 105.304688 79.128906 C 104.246094 76.367188 93.054688 68.4375 90.21875 68.4375 C 86.863281 68.4375 81.964844 64.449219 70.75 52.582031 C 62.625 43.980469 62.519531 41.371094 61.078125 38.132812 C 57.640625 30.390625 63.515625 29.515625 69.308594 28.539062 C 74.042969 27.738281 75.410156 27.3125 73.929688 23.074219 C 71.386719 15.796875 74.855469 17 87.390625 22.214844 C 100.039062 27.476562 108.808594 34.289062 110.671875 40.4375 C 112.382812 46.078125 111.28125 47.417969 105.828125 46.328125 C 100.972656 45.355469 98.578125 47.78125 98.578125 53.675781 C 98.578125 59.667969 99.875 62.234375 105.964844 68.324219 C 108.546875 70.910156 112.027344 75.496094 113.691406 78.515625 C 116.589844 83.765625 122.378906 87.558594 124.40625 85.53125 C 125.652344 84.285156 121.921875 76.984375 117.410156 71.847656 C 114.21875 68.214844 113.898438 67.335938 115.539062 66.703125 C 116.777344 66.230469 122.28125 69.105469 130.234375 74.378906 C 141.6875 81.972656 142.953125 83.191406 142.953125 86.585938 C 142.953125 89.164062 144.789062 92.71875 148.761719 97.835938 C 151.957031 101.949219 155.730469 107.640625 157.152344 110.484375 C 158.574219 113.328125 164.246094 120.359375 169.761719 126.109375 C 178.660156 135.390625 182.207031 140.304688 180.882812 141.519531 C 180.648438 141.734375 177.078125 142.285156 172.953125 142.742188 C 166.082031 143.507812 164.984375 143.273438 159.828125 139.960938 Z M 35.765625 127.089844 C 31.21875 124.441406 34.210938 118.574219 42.695312 113.503906 C 45.386719 111.894531 56.410156 112.726562 57.625 110.140625 L 65.425781 109.433594 C 63.019531 110.355469 62.0625 111.546875 60.9375 111.933594 C 57.769531 113.027344 57.898438 112.410156 56.359375 117.476562 C 55.757812 119.460938 56.480469 126.058594 51.300781 125.34375 C 46.621094 124.703125 44.917969 124.953125 43.652344 126.476562 C 41.792969 128.71875 38.941406 128.9375 35.765625 127.089844 Z M 99.351562 119.6875 C 94.261719 114.054688 97.128906 110.460938 100.085938 107.191406 C 101.230469 105.929688 99.609375 105.910156 100.371094 104.367188 C 101.199219 102.703125 103.148438 101.402344 105.171875 101.167969 C 108.078125 100.832031 108.578125 101.234375 108.578125 103.898438 C 108.578125 107.269531 101.59375 112.367188 105.144531 111.003906 C 106.304688 112.804688 105.921875 115.742188 106.632812 117.003906 C 109.785156 122.582031 109.46875 121.738281 99.351562 119.6875 Z M 29.203125 28.175781 C 22.003906 23.855469 19.300781 22.914062 13.941406 22.855469 C 10.359375 22.816406 6.792969 22.152344 6.019531 21.378906 C 4.3125 19.671875 4.964844 19.28125 12.953125 17.1875 C 20.839844 15.125 22.191406 14.046875 25.089844 7.5 C 26.386719 4.578125 27.597656 2.1875 27.785156 2.1875 C 27.96875 2.1875 31.304688 1.601562 35.191406 0.882812 C 43.929688 -0.734375 50.808594 0.867188 56.324219 5.792969 L 60.21875 9.273438 L 56.773438 16.3125 C 53.074219 23.871094 43.792969 33.445312 40.171875 33.433594 C 38.953125 33.429688 34.015625 31.0625 29.203125 28.175781 Z M 29.203125 28.175781 "/>
<path style=" stroke:none;fill-rule:nonzero;fill:rgb(10.196078%,10.196078%,10.196078%);fill-opacity:1;" d="M 158.441406 140.492188 C 151.972656 135.550781 141.945312 125.910156 142.597656 125.253906 C 142.832031 125.019531 145.257812 125.34375 147.988281 125.980469 C 155.597656 127.742188 157.378906 127.539062 156.453125 125 C 155.109375 121.316406 141.0625 107.753906 135.367188 104.640625 C 132.414062 103.027344 129.75 100.777344 129.453125 99.636719 C 129.15625 98.5 127.089844 97.203125 124.859375 96.757812 C 121.683594 96.121094 120.988281 95.484375 121.636719 93.792969 C 122.089844 92.609375 122.0625 92.042969 121.570312 92.53125 C 121.082031 93.023438 119.859375 92.253906 118.859375 90.824219 C 117.859375 89.394531 114.714844 87.199219 111.871094 85.941406 C 109.03125 84.683594 104.320312 81.429688 101.40625 78.707031 C 96.242188 73.878906 92.453125 71.84375 86.078125 70.46875 C 84.359375 70.097656 77.542969 64.484375 70.929688 57.996094 C 59.933594 47.210938 58.828125 45.691406 58.011719 40.257812 C 56.933594 33.066406 59.574219 28.601562 66.195312 26.398438 C 68.539062 25.621094 70.398438 24.355469 70.328125 23.585938 C 70.261719 22.820312 70.117188 20.921875 70.007812 19.375 C 69.792969 16.335938 64.742188 13.199219 62.398438 14.648438 C 61.625 15.125 59.820312 17.722656 58.386719 20.414062 C 55.539062 25.769531 45.320312 35.730469 42.328125 36.070312 C 37.777344 36.585938 36.246094 36.0625 30.402344 31.988281 C 22.84375 26.714844 17.652344 24.402344 16.734375 25.894531 C 16.355469 26.507812 14.476562 26.554688 12.550781 26.003906 C 6.976562 24.402344 1.824219 20.753906 0.726562 19.507812 C -0.113281 18.550781 0.00390625 18.257812 0.00390625 18.257812 C 0.203125 17.835938 0.566406 17.34375 2.230469 17.289062 C 4.214844 17.222656 7.226562 14.996094 10.980469 10.820312 C 17.066406 4.042969 18.25 3.570312 36.316406 0.617188 C 46.5 -1.046875 53.460938 0.628906 58.886719 6.050781 C 60.886719 8.050781 62.796875 9.6875 63.132812 9.6875 C 63.472656 9.6875 65.589844 11.09375 67.84375 12.8125 C 70.097656 14.53125 73.117188 15.9375 74.554688 15.9375 C 80.722656 15.9375 109.828125 31.386719 109.828125 34.664062 C 109.828125 35.367188 111.09375 37.203125 112.640625 38.75 C 123.40625 49.511719 140.515625 73.464844 132.953125 67.1875 C 131.921875 66.332031 131.613281 66.570312 131.613281 67.210938 C 131.613281 69.21875 134.550781 72.8125 136.292969 72.8125 C 138.800781 72.8125 145.433594 85.835938 143.769531 87.5 C 142.816406 88.449219 143.824219 90.5 147.238281 94.582031 C 149.882812 97.742188 154.105469 103.835938 156.621094 108.125 C 159.136719 112.417969 165.675781 120.570312 171.152344 126.246094 C 179.773438 135.179688 183.808594 141.21875 182.167969 142.734375 C 181.914062 142.96875 177.765625 143.546875 172.949219 144.019531 C 164.304688 144.871094 164.117188 144.824219 158.441406 140.492188 Z M 170.429688 139.730469 C 170.839844 139.066406 172.84375 138.855469 174.878906 139.261719 C 179.734375 140.234375 179.554688 139.246094 174.285156 135.988281 C 169.523438 133.046875 163.226562 125.140625 155.058594 111.847656 C 152.089844 107.015625 147.167969 100.003906 144.121094 96.261719 C 141.074219 92.519531 138.578125 88.417969 138.578125 87.144531 C 138.578125 83.976562 134.511719 79.867188 124.460938 72.886719 L 115.96875 66.984375 L 122.273438 75.625 C 129.875 86.042969 130.433594 89.117188 124.515625 87.949219 C 120.640625 87.183594 120.742188 87.34375 126.703125 91.472656 C 130.140625 93.851562 134.714844 96.617188 136.863281 97.613281 C 139.011719 98.613281 141.824219 100.984375 143.113281 102.882812 C 144.402344 104.785156 147.144531 108.074219 149.214844 110.199219 C 155.804688 116.976562 157.660156 119.566406 158.007812 122.472656 C 158.195312 124.035156 158.742188 126.296875 159.222656 127.5 C 159.925781 129.257812 159.4375 129.6875 156.757812 129.6875 C 154.917969 129.6875 152.328125 129.105469 150.996094 128.394531 C 147.046875 126.28125 148.25 127.988281 152.640625 130.726562 C 154.875 132.117188 159.179688 134.988281 162.207031 137.097656 C 168.128906 141.234375 169.273438 141.601562 170.429688 139.730469 Z M 119.980469 78.632812 C 113.652344 70.636719 111.96875 70.015625 115.597656 77.007812 C 117.875 81.398438 119.707031 83.4375 121.363281 83.4375 C 123.527344 83.4375 123.375 82.917969 119.980469 78.632812 Z M 112.707031 79.75 C 112.355469 78.40625 109.308594 74.429688 105.9375 70.910156 C 97.222656 61.824219 95.660156 58.386719 97.367188 52.050781 C 98.878906 46.433594 98.355469 45.65625 90.535156 41.933594 C 78.039062 35.992188 77.277344 35.492188 78.628906 34.160156 C 79.609375 33.195312 80.46875 33.449219 81.65625 35.0625 C 82.570312 36.296875 84.851562 37.585938 86.726562 37.925781 C 88.597656 38.265625 91.894531 39.867188 94.042969 41.488281 C 96.515625 43.351562 100.140625 44.601562 103.890625 44.882812 C 109.527344 45.308594 111.332031 44.515625 108.578125 42.8125 C 107.890625 42.390625 107.328125 41 107.328125 39.726562 C 107.328125 36.84375 94.875 27.910156 83.210938 22.429688 C 73.261719 17.757812 72.429688 17.59375 75.453125 20.9375 C 76.699219 22.3125 77.207031 23.472656 76.585938 23.507812 C 75.964844 23.546875 79.109375 24.722656 83.578125 26.117188 C 88.046875 27.511719 92.546875 29.527344 93.578125 30.597656 C 95.253906 32.335938 95.214844 32.460938 93.203125 31.757812 C 88.765625 30.203125 92.355469 33.109375 98.449219 36 C 101.867188 37.621094 104.375 39.414062 104.023438 39.980469 C 103.675781 40.546875 100.476562 39.367188 96.921875 37.355469 C 93.363281 35.347656 86.859375 32.660156 82.460938 31.382812 C 74.652344 29.117188 74.566406 29.046875 78.710938 28.292969 L 82.953125 27.519531 L 78.148438 27.355469 C 74.367188 27.222656 73.210938 27.703125 72.710938 29.609375 C 72.195312 31.585938 71.535156 31.824219 69.125 30.910156 C 67.304688 30.214844 65.882812 30.246094 65.425781 30.988281 C 65.015625 31.648438 66.089844 32.1875 67.808594 32.1875 C 69.527344 32.1875 71.238281 32.683594 71.609375 33.289062 C 72.671875 35.003906 64.699219 36.136719 62.777344 34.539062 C 61.445312 33.4375 60.785156 33.542969 60.785156 35.46875 C 60.785156 37.675781 61.65625 37.957031 66.730469 37.183594 C 70.804688 36.566406 72.984375 36.824219 74.542969 38.101562 C 75.734375 39.078125 76.058594 39.554688 75.273438 39.164062 C 73.523438 38.296875 62.328125 39.71875 62.328125 40.808594 C 62.328125 41.996094 67.351562 47.0625 76.085938 54.6875 C 85.816406 63.183594 89.832031 65.921875 92.597656 65.929688 C 93.777344 65.9375 95.34375 67.0625 96.078125 68.4375 C 96.816406 69.8125 98.042969 70.9375 98.808594 70.9375 C 99.570312 70.9375 102.902344 73.46875 106.210938 76.5625 C 112.972656 82.890625 113.609375 83.203125 112.707031 79.75 Z M 134.371094 74.863281 C 132.488281 72.898438 130.792969 69.839844 130.601562 68.070312 C 130.414062 66.300781 127.070312 61.113281 123.171875 56.546875 C 119.269531 51.976562 116.078125 47.613281 116.078125 46.851562 C 116.078125 46.085938 115.320312 46.5 114.390625 47.769531 C 113.019531 49.644531 111.667969 49.9375 107.203125 49.324219 L 101.703125 48.570312 L 101.871094 55.007812 C 102.011719 60.46875 102.570312 61.867188 105.578125 64.265625 C 107.527344 65.816406 109.421875 66.601562 109.789062 66.003906 C 110.160156 65.40625 112.429688 64.574219 114.832031 64.152344 C 119.4375 63.347656 121.226562 64.394531 132.242188 74.34375 C 137.785156 79.347656 138.9375 79.628906 134.371094 74.863281 Z M 48.140625 26.480469 C 51.132812 24.027344 53.578125 21.335938 53.578125 20.496094 C 53.578125 19.65625 54.632812 16.90625 55.917969 14.386719 L 58.253906 9.800781 L 53.5 6.507812 C 48.234375 2.859375 39.683594 0.40625 38.558594 2.222656 C 38.167969 2.855469 35.660156 3.824219 32.980469 4.382812 C 28.867188 5.238281 27.675781 6.261719 25.300781 10.980469 C 23.609375 14.34375 21.144531 17.117188 19.101562 17.953125 L 15.714844 19.339844 L 22.460938 22.535156 C 26.167969 24.292969 30.890625 26.859375 32.953125 28.242188 C 38.441406 31.921875 42.003906 31.507812 48.140625 26.480469 Z M 29.152344 20.855469 C 28.699219 20.121094 28.597656 19.253906 28.925781 18.925781 C 29.253906 18.601562 29.855469 19.199219 30.261719 20.261719 C 31.105469 22.464844 30.386719 22.851562 29.152344 20.855469 Z M 34.84375 20.976562 C 33.371094 20.042969 33.550781 19.84375 35.695312 20.003906 C 37.1875 20.117188 38.132812 20.652344 37.792969 21.199219 C 37.046875 22.410156 37.125 22.414062 34.84375 20.976562 Z M 31.078125 15.980469 C 31.078125 14.304688 31.679688 13.746094 32.953125 14.238281 C 33.984375 14.632812 34.828125 15.742188 34.828125 16.699219 C 34.828125 17.65625 33.984375 18.4375 32.953125 18.4375 C 31.921875 18.4375 31.078125 17.332031 31.078125 15.980469 Z M 88.578125 29.6875 C 87.546875 29.023438 85.859375 28.507812 84.828125 28.546875 C 83.59375 28.589844 83.804688 28.980469 85.453125 29.6875 C 88.890625 31.167969 90.863281 31.167969 88.578125 29.6875 Z M 18.800781 13.53125 C 19.265625 13.480469 20.488281 11.75 21.515625 9.6875 C 23.800781 5.113281 22.246094 4.824219 16.476562 8.75 C 11.6875 12.011719 10.964844 14.929688 15.140625 14.148438 C 16.6875 13.859375 18.335938 13.582031 18.800781 13.53125 Z M 35.140625 128.164062 C 28.980469 125.191406 32.699219 117.363281 42.328125 113.035156 C 52.832031 108.316406 67.574219 106.257812 65.375 109.820312 C 64.992188 110.4375 65.3125 110.9375 66.078125 110.9375 C 66.847656 110.9375 67.109375 111.539062 66.65625 112.269531 C 66.097656 113.167969 67.386719 113.339844 70.644531 112.800781 C 74.210938 112.207031 74.96875 112.34375 73.578125 113.328125 C 72.546875 114.054688 70.515625 114.660156 69.0625 114.671875 C 67.605469 114.679688 64.933594 115.855469 63.125 117.28125 C 60.304688 119.5 59.828125 119.578125 59.828125 117.832031 C 59.828125 116.710938 59.265625 116.140625 58.578125 116.5625 C 57.890625 116.988281 57.328125 119.289062 57.328125 121.675781 C 57.328125 126.65625 55.484375 127.851562 50.648438 126.011719 C 47.878906 124.960938 46.847656 125.171875 44.808594 127.210938 C 42.070312 129.949219 39.390625 130.210938 35.140625 128.164062 Z M 43.605469 122.691406 C 44.945312 121.546875 46.855469 121.378906 50.101562 122.109375 L 54.699219 123.148438 L 55.078125 118.085938 C 55.414062 113.566406 55.921875 112.855469 59.828125 111.453125 C 62.234375 110.585938 63.589844 109.835938 62.839844 109.785156 C 60.179688 109.597656 47.621094 114.472656 42.613281 117.632812 C 36.566406 121.453125 35.175781 123.359375 37.421875 124.746094 C 39.160156 125.820312 40.425781 125.398438 43.605469 122.691406 Z M 97.945312 120.765625 C 93.851562 116.230469 92.042969 112.339844 94.828125 114.0625 C 95.515625 114.488281 96.078125 114.242188 96.078125 113.511719 C 96.078125 112.785156 95.375 112.171875 94.515625 112.148438 C 93.65625 112.128906 94.359375 110.824219 96.078125 109.253906 C 97.796875 107.683594 100.066406 104.746094 101.121094 102.730469 C 103.058594 99.027344 107.84375 97.203125 109.992188 99.351562 C 110.660156 100.019531 110.308594 102.097656 109.132812 104.457031 C 106.625 109.484375 105.929688 109.511719 106.921875 104.546875 C 107.65625 100.871094 107.546875 100.734375 105.015625 102.089844 C 102.378906 103.5 101.996094 104.671875 102.109375 110.9375 C 102.148438 113.011719 101.953125 113.324219 101.53125 111.863281 C 101.179688 110.648438 100.371094 109.980469 99.734375 110.371094 C 98.3125 111.253906 98.195312 115.9375 99.59375 115.9375 C 100.152344 115.9375 101.839844 117.085938 103.34375 118.488281 L 105.660156 118.859375 L 105.992188 116.925781 C 105.917969 113.492188 105.726562 113.226562 104.828125 115.3125 C 103.96875 117.320312 103.738281 116.886719 103.667969 113.125 C 103.621094 110.546875 104 108.480469 104.515625 108.527344 C 106.503906 108.714844 110.371094 110.769531 108.890625 110.851562 C 107.058594 110.953125 106.777344 115.449219 108.535156 116.535156 C 118.8125 115.3125 103.835938 127.710938 97.945312 120.765625 Z M 136.539062 121.859375 C 122.996094 114.019531 119.128906 110.648438 126.84375 113.410156 C 130 114.542969 130.179688 114.488281 128.265625 112.996094 C 127.0625 112.058594 126.078125 110.957031 126.078125 110.554688 C 126.078125 109.1875 133.578125 112.421875 133.769531 113.875 C 133.875 114.667969 134.019531 116.054688 134.09375 116.957031 C 134.164062 117.859375 135.625 119.675781 137.339844 120.992188 C 140.886719 123.714844 140.488281 124.144531 136.539062 121.859375 Z M 133.578125 116.636719 C 133.578125 116.335938 133.015625 115.738281 132.328125 115.3125 C 131.640625 114.890625 131.078125 115.136719 131.078125 115.867188 C 131.078125 116.59375 131.640625 117.1875 132.328125 117.1875 C 133.015625 117.1875 133.578125 116.941406 133.578125 116.636719 Z M 12.328125 30.9375 C 11.53125 29.445312 11.160156 27.945312 11.503906 27.601562 C 11.847656 27.257812 12.78125 28.195312 13.578125 29.6875 C 14.378906 31.183594 14.75 32.683594 14.40625 33.027344 C 14.0625 33.371094 13.128906 32.433594 12.328125 30.9375 Z M 12.328125 30.9375 "/>
<path style=" stroke:none;fill-rule:nonzero;fill:rgb(40%,40%,40%);fill-opacity:1;" d="M 35.265625 15.316406 C 36.277344 17.527344 35.417969 19.636719 33.648438 19.636719 C 31.878906 19.636719 29.773438 18.667969 29.773438 16.238281 C 29.773438 13.804688 31.125 13.171875 32.894531 13.171875 C 34.667969 13.171875 34.34375 13.300781 35.265625 15.316406 Z M 35.265625 15.316406 "/>
<path style="fill:none;stroke-width:0.176389;stroke-linecap:round;stroke-linejoin:round;stroke:rgb(0%,0%,0%);stroke-opacity:1;stroke-miterlimit:4;" d="M 81.18075 86.151746 C 83.0174 86.158361 84.40977 86.711781 85.5574 87.859411 C 86.121844 88.424958 86.662035 88.886876 86.756844 88.886876 C 86.851653 88.886876 87.450273 89.283751 88.086375 89.768821 C 88.722478 90.25389 89.574657 90.650765 89.979249 90.650765 C 91.721089 90.650765 99.935299 95.010878 99.935299 95.934715 C 99.935299 96.133152 100.292487 96.651295 100.729049 97.087857 C 103.767348 100.126156 108.594891 106.885157 106.461688 105.114654 C 106.170646 104.872119 106.082452 104.939368 106.082452 105.120166 C 106.082452 105.686815 106.912582 106.702154 107.403164 106.702154 C 108.112026 106.702154 109.982851 110.376555 109.514318 110.84619 C 109.245325 111.114081 109.52865 111.692857 110.493276 112.844897 C 111.239622 113.736763 112.431349 115.456555 113.141315 116.667024 C 113.850178 117.878595 115.695646 120.179368 117.241254 121.781199 C 119.675421 124.302458 120.814231 126.006815 120.351211 126.434559 C 120.279553 126.500704 119.107669 126.663864 117.749474 126.797258 C 115.309796 127.037588 115.256879 127.024359 113.655047 125.801763 C 112.053216 124.579168 109.680785 122.336824 109.245325 121.678673 C 108.965308 121.440548 108.678676 121.196911 108.38102 120.944454 C 108.354561 121.003986 108.048086 120.876104 107.472617 120.54317 C 105.170742 119.210331 103.867669 118.339411 103.664822 118.025218 C 102.573415 117.528022 101.620915 116.948144 100.86575 116.499454 C 100.493129 116.486225 99.946323 116.471894 99.285967 116.454255 C 99.073198 116.780574 98.976184 116.781677 98.993823 116.44764 C 98.612382 116.437718 98.258502 116.427796 97.765716 116.416772 C 97.750282 116.696789 97.749179 117.036338 97.756896 117.461876 C 97.767921 118.046164 97.712799 118.134359 97.592634 117.72205 C 97.493415 117.379194 97.266315 117.190678 97.086619 117.302024 C 96.685334 117.550071 96.651158 118.872987 97.046931 118.872987 C 97.204579 118.872987 97.680829 119.195999 98.105264 119.591772 L 98.759006 119.696503 L 98.852712 119.1508 C 98.831766 118.182866 98.777747 118.106798 98.524188 118.696598 C 98.280551 119.262145 98.215507 119.139776 98.195664 118.079237 C 98.182434 117.351633 98.290473 116.767345 98.435994 116.780574 C 98.997131 116.833491 100.088537 117.413369 99.670716 117.43652 C 99.153676 117.466286 99.073198 118.734081 99.569292 119.040557 C 102.470889 118.695496 98.243068 122.194611 96.581705 120.234489 C 95.425256 118.954567 94.91483 117.856546 95.701966 118.343821 C 95.895994 118.462883 96.054744 118.39343 96.054744 118.187276 C 96.054744 117.982223 95.856306 117.809142 95.613771 117.80363 C 95.371237 117.797015 95.569674 117.428803 96.054744 116.985626 C 96.239952 116.816954 96.446106 116.585444 96.647851 116.340704 C 96.233337 116.437718 95.817721 116.534732 95.374544 116.632848 C 94.936879 117.173039 93.688928 117.626138 92.239231 117.661416 C 91.592105 117.677953 90.71457 117.797015 89.88444 117.965687 C 89.867903 118.006477 89.808372 118.061598 89.704744 118.135461 C 89.413702 118.340513 88.839336 118.51139 88.429231 118.514697 C 88.019127 118.516902 87.265065 118.848734 86.753537 119.251121 C 85.957582 119.877302 85.824188 119.89935 85.824188 119.406564 C 85.824188 119.090166 85.665438 118.929211 85.47141 119.049376 C 85.277382 119.169541 85.118632 119.81777 85.118632 120.492458 C 85.118632 121.896954 84.598285 122.234298 83.233476 121.716156 C 82.451853 121.418499 82.160811 121.478031 81.58424 122.053499 C 80.812539 122.826303 80.055169 122.900166 78.856827 122.322493 C 77.117191 121.483543 78.167808 119.274272 80.885299 118.052779 C 81.898433 117.597475 83.04937 117.232571 84.104396 116.986729 C 83.007478 116.302119 81.663615 115.50396 81.371471 115.253708 C 79.19858 113.39501 76.773233 110.597041 76.051141 109.114272 C 75.623398 108.236737 75.127304 107.333847 74.949813 107.110053 C 74.772322 106.885157 74.426158 106.079281 74.181419 105.319706 C 73.936679 104.560131 73.228919 102.972631 72.610455 101.791928 C 72.384457 101.360878 72.204761 100.980539 72.060342 100.636581 C 71.74174 99.953074 71.617165 99.415088 71.617165 98.8308 C 71.617165 96.914776 71.638112 94.858743 72.341462 93.444324 C 70.823415 92.973586 69.445377 91.997935 69.143311 91.657284 C 69.072756 91.576807 69.030863 91.516173 68.999995 91.466564 C 68.960308 91.422466 68.942669 91.383881 68.947079 91.353013 C 68.939362 91.322145 68.940464 91.304506 68.940464 91.304506 C 68.995586 91.185444 69.099214 91.046538 69.568849 91.031104 C 70.127782 91.012362 70.978858 90.383977 72.038294 89.205479 C 73.755881 87.292762 74.088815 87.159368 79.188658 86.32593 C 79.906341 86.20797 80.568901 86.149541 81.18075 86.151746 Z M 81.18075 86.151746 " transform="matrix(3.543307,0,0,3.543307,-244.277235,-305.262092)"/>
</g>
</svg>
