<?xml version="1.0" encoding="UTF-8"?>
<!-- Created by grConvert v0.1-0 -->
<svg xmlns="http://www.w3.org/2000/svg" xmlns:xlink="http://www.w3.org/1999/xlink" width="446pt" height="249pt" viewBox="0 0 446 249" version="1.1">
<g id="surface1">
<path style=" stroke:none;fill-rule:nonzero;fill:rgb(90.196078%,90.196078%,90.196078%);fill-opacity:1;" d="M 114.917969 83.5 C 114.917969 83.5 117.96875 83.898438 119.691406 84.429688 C 121.421875 84.957031 125.398438 87.34375 127.523438 90.121094 C 129.648438 92.90625 133.632812 95.160156 135.625 96.089844 C 137.617188 97.015625 137.617188 100.722656 137.480469 102.976562 C 137.347656 105.230469 134.5625 111.59375 133.367188 113.179688 C 132.171875 114.769531 127.261719 128.15625 124.605469 131.734375 C 121.953125 135.308594 112.261719 153.460938 109.875 156.640625 C 107.480469 159.824219 100.578125 158.765625 96.0625 163.796875 C 91.554688 168.832031 85.976562 166.179688 79.070312 167.375 C 73.601562 168.320312 68.054688 166.714844 68.054688 166.714844 M 5.371094 124.890625 C 3.261719 122.328125 3.09375 119.105469 8.714844 114.417969 C 17.035156 106.734375 33.320312 92.507812 40.042969 87.03125 C 46.773438 81.558594 64.824219 69.007812 72.085938 65.125 C 79.867188 59.117188 80.933594 57.53125 89.078125 52.847656 C 98.632812 46.046875 115.890625 38.09375 119.605469 37.476562 C 123.324219 36.855469 130.046875 35.445312 137.660156 37.035156 C 145.269531 38.625 159.253906 38.796875 162.085938 38.890625 C 164.917969 38.976562 179.785156 44.453125 189.785156 45.6875 C 199.785156 46.929688 222.085938 57.171875 234.382812 57.882812 C 246.6875 58.589844 265.003906 71.132812 272.53125 73.601562 C 280.054688 76.078125 299.609375 90.742188 303.769531 93.039062 C 307.929688 95.335938 322.089844 100.902344 327.484375 101.78125 C 332.886719 102.664062 338.195312 103.636719 341.914062 103.636719 C 345.628906 103.636719 348.8125 104.34375 355.1875 102.140625 C 361.558594 99.929688 359.964844 100.632812 364.835938 99.664062 C 369.703125 98.691406 369.964844 100.902344 370.5 102.664062 C 371.03125 104.433594 373.15625 108.496094 372.53125 111.058594 C 371.914062 113.625 371.117188 116.714844 370.9375 118.921875 C 370.761719 121.132812 369.789062 122.28125 370.054688 125.195312 C 370.316406 128.109375 372 134.648438 370.671875 136.679688 C 369.34375 138.710938 367.664062 141.800781 366.425781 142.773438 C 365.1875 143.746094 360.671875 146.570312 358.988281 147.1875 C 357.308594 147.808594 356.335938 148.691406 355.453125 148.691406 C 354.570312 148.691406 350.761719 148.246094 347.664062 148.429688 C 344.566406 148.601562 335.097656 150.015625 330.851562 151.695312 C 326.601562 153.375 324.390625 154.257812 320.230469 155.582031 C 316.070312 156.910156 315.894531 157.789062 309.785156 160 C 303.679688 162.207031 294.921875 160.796875 289.34375 162.738281 C 283.769531 164.679688 272.886719 167.152344 268.726562 169.007812 C 264.566406 170.863281 252.53125 172.808594 249.964844 173.691406 C 247.398438 174.574219 226.421875 178.988281 223.679688 179.695312 C 220.933594 180.40625 222.085938 179.960938 213.589844 180.40625 C 205.097656 180.84375 203.5 180.492188 200.492188 181.203125 C 197.484375 181.90625 192.171875 181.289062 189.605469 181.203125 C 187.039062 181.109375 164.296875 180.230469 157.660156 178.8125 C 151.019531 177.402344 150.84375 176.960938 143.5 177.132812 C 136.152344 177.3125 115.003906 177.578125 111.816406 177.132812 C 108.632812 176.695312 91.816406 174.839844 83.765625 172.984375 C 75.707031 171.128906 77.832031 170.601562 76.949219 170.242188 C 76.0625 169.890625 72.085938 167.59375 67.304688 166.445312 C 62.523438 165.296875 50.488281 162.296875 40.042969 155.933594 C 29.605469 149.574219 22.613281 146.21875 18.1875 143.476562 C 13.765625 140.742188 -0.578125 130.140625 0.21875 127.933594 C 1.019531 125.722656 3.03125 123.226562 4.273438 123.316406 M 25.796875 105.851562 C 24.914062 106.46875 24.5625 107.261719 24.5625 107.261719 M 19.867188 110.351562 C 20.488281 111.59375 20.75 112.207031 20.75 112.117188 "/>
<path style="fill-rule:nonzero;fill:rgb(80%,80%,80%);fill-opacity:1;stroke-width:0.24;stroke-linecap:butt;stroke-linejoin:miter;stroke:rgb(0%,0%,0%);stroke-opacity:1;stroke-miterlimit:4;" d="M 54.443098 909.478046 C 53.508096 908.948046 51.233092 907.378043 50.493091 905.873041 C 49.69809 905.815541 48.410588 907.413043 47.898087 908.828045 C 47.388086 910.240548 56.568101 917.025558 59.398105 918.775561 C 62.23061 920.530564 66.705617 922.678067 73.385628 926.748074 C 75.310631 927.653075 76.333133 925.165571 77.350634 923.693069 C 78.370636 922.225567 80.410639 917.81556 78.370636 916.573058 C 76.333133 915.328056 72.143126 913.748053 69.988122 913.178052 C 67.835619 912.615551 63.985613 911.260549 60.813108 908.768045 C 57.870603 905.830541 52.998095 900.855533 51.375593 902.153035 C 49.85809 904.128038 50.163091 905.62804 51.195592 906.880542 C 52.185594 908.080544 53.843097 909.060546 55.208099 910.015547 C 55.8006 910.578048 56.1831 910.790548 56.848101 911.373049 C 57.000602 911.53805 60.875608 914.443054 62.850611 916.573058 C 69.713122 923.488069 67.495618 922.565567 73.725628 925.165571 " transform="matrix(1.562497,0,0,1.562497,-74.621891,-1292.107955)"/>
<path style="fill-rule:nonzero;fill:rgb(50.196078%,50.196078%,50.196078%);fill-opacity:1;stroke-width:0.24;stroke-linecap:butt;stroke-linejoin:miter;stroke:rgb(0%,0%,0%);stroke-opacity:1;stroke-miterlimit:4;" d="M 70.583123 897.350527 C 71.605625 899.640531 73.385628 903.455537 76.445633 904.218038 C 79.505638 904.980539 79.758138 906.253041 84.345645 904.728039 C 88.935653 903.200536 88.680652 903.200536 90.718156 899.893031 C 92.758159 896.588026 92.500658 894.805523 92.248158 892.263019 C 91.993158 889.718015 88.935653 885.900509 86.385649 885.138007 C 83.835645 884.375506 80.013138 884.123006 76.445633 884.885507 C 72.875627 885.648008 72.368126 887.938012 71.605625 889.210514 C 70.838124 890.480516 69.563122 895.060523 70.583123 897.350527 Z M 70.583123 897.350527 " transform="matrix(1.562497,0,0,1.562497,-74.621891,-1292.107955)"/>
<path style="fill-rule:nonzero;fill:rgb(9.803922%,5.490196%,2.745098%);fill-opacity:1;stroke-width:0.24;stroke-linecap:butt;stroke-linejoin:miter;stroke:rgb(0%,0%,0%);stroke-opacity:1;stroke-miterlimit:4;" d="M 80.523139 888.190512 C 77.720635 888.448013 76.445633 888.190512 75.170631 889.973015 C 73.898129 891.753018 73.160627 898.253028 74.83313 900.488032 C 76.020632 901.250533 77.125634 901.928034 78.738136 901.928034 C 80.355639 901.928034 82.818143 901.760534 83.923145 901.250533 C 85.025646 900.740532 86.555649 900.913033 87.48815 899.640531 C 88.423152 898.368029 88.848153 897.690528 88.763152 895.738024 C 88.680652 893.788021 88.680652 892.430519 87.830651 891.243017 C 86.98065 890.055515 86.385649 888.448013 84.770646 888.023012 C 83.158143 887.598011 83.325644 887.938012 80.523139 888.190512 Z M 80.523139 888.190512 " transform="matrix(1.562497,0,0,1.562497,-74.621891,-1292.107955)"/>
<path style="fill-rule:nonzero;fill:rgb(80%,80%,80%);fill-opacity:1;stroke-width:0.24;stroke-linecap:butt;stroke-linejoin:miter;stroke:rgb(0%,0%,0%);stroke-opacity:1;stroke-miterlimit:4;" d="M 173.663288 827.072915 C 172.925787 827.065415 171.733285 827.700416 171.258284 827.925416 C 170.183283 828.435417 168.59578 829.225418 167.463278 829.790419 C 166.330777 830.35542 165.425775 830.69292 163.725772 831.880422 C 162.02577 833.067924 159.308265 835.500428 158.120763 835.897929 C 156.930761 836.290429 157.325762 836.290429 157.043262 835.612928 C 156.760761 834.935427 156.760761 834.480426 157.043262 832.050422 C 157.325762 829.622919 156.25076 831.372921 154.435757 832.390423 C 152.623255 833.410425 152.455754 833.972926 150.755752 835.555428 C 149.055749 837.140431 148.150747 837.365431 146.960746 837.702932 C 145.770744 838.042932 145.318243 837.365431 144.975742 835.780428 C 144.885742 835.347928 145.493243 833.612925 144.868242 833.860425 C 143.21324 834.515426 139.248233 838.697933 138.183231 839.965435 C 136.710729 841.717938 134.725726 842.227939 134.613226 841.942938 C 134.500726 841.662938 134.160725 841.492938 133.933225 841.492938 C 133.708224 841.492938 131.555721 843.30044 130.76322 843.925441 C 129.970718 844.547942 121.925705 851.330453 124.305709 850.935453 C 126.685713 850.537952 130.98822 849.635451 135.860728 850.652952 C 140.730736 851.667954 149.68075 851.780454 151.493253 851.840454 C 153.305756 851.892954 162.820771 855.40046 169.220781 856.190461 C 175.620791 856.985462 189.893314 863.540473 197.763327 863.992974 C 205.638339 864.447974 217.360858 872.475487 222.175866 874.05549 C 226.993374 875.640492 239.508394 885.025507 242.170898 886.49301 C 244.020901 887.518011 248.970909 889.550514 252.973415 890.888017 C 254.725918 891.468018 253.100915 889.943015 253.895917 889.548014 C 254.685918 889.153014 257.860923 889.548014 259.388425 889.603015 C 260.918428 889.663015 265.280935 889.040514 266.863437 888.360513 C 268.45094 887.680511 267.770939 883.273004 267.825939 881.973002 C 267.858439 881.300501 268.54344 878.565497 268.168439 875.922993 C 267.818439 873.452989 266.408437 871.067985 266.298436 870.437984 C 266.185936 869.797983 265.010934 867.227979 263.468432 864.840475 C 261.885929 862.397971 259.930926 860.127967 259.613426 859.527966 C 258.993425 858.340465 253.443416 853.310456 252.423414 852.627955 C 251.400913 851.950454 244.775902 847.427947 243.6984 846.922946 C 242.623399 846.412945 240.923396 844.940443 237.24339 844.037942 C 235.695888 843.655441 234.183385 842.88044 232.543382 842.510439 C 230.283379 842.000438 227.998375 841.960438 227.048374 842.060438 C 225.405871 842.227939 225.00837 842.060438 224.045869 841.942938 C 223.083367 841.830438 223.368368 841.662938 222.120866 841.887938 C 220.873364 842.112939 220.363363 842.510439 219.345861 842.90544 C 218.32586 843.30044 217.870859 843.13044 216.795857 843.19044 C 215.720856 843.24294 215.608355 842.452939 215.155855 842.172939 C 214.700854 841.887938 213.793352 842.112939 211.810849 842.172939 C 209.830846 842.227939 210.455847 842.060438 209.943346 841.152937 C 209.433345 840.247936 209.320845 839.460434 209.320845 839.460434 C 209.320845 839.460434 208.470844 839.287934 207.335842 839.342934 C 206.20584 839.400434 205.86334 839.005434 205.185839 838.440433 C 204.505838 837.875432 204.675838 837.817932 203.938337 836.405429 C 203.200836 834.990427 203.713336 835.667928 202.748335 835.555428 C 201.788333 835.442928 201.448333 835.612928 199.295829 835.612928 C 197.143326 835.612928 198.333328 835.217928 197.650827 834.425426 C 196.973326 833.635425 197.085826 833.352925 197.085826 833.352925 C 197.085826 833.352925 196.010824 833.690425 195.160823 833.860425 C 194.310821 834.030426 193.63332 834.540426 192.158318 834.312926 C 190.685815 834.087926 191.308316 833.292924 191.308316 833.292924 L 190.855816 831.880422 C 190.855816 831.880422 189.045813 832.560423 188.080811 832.900424 C 187.11831 833.237924 186.155808 833.410425 185.588307 833.237924 C 185.023306 833.067924 184.850806 832.165423 184.230805 830.185419 C 183.608304 828.205416 182.925803 828.715417 181.963302 828.942918 C 181.0008 829.167918 180.660799 829.392918 179.755798 829.847919 C 178.848297 830.30042 175.675791 831.427921 175.168291 831.372921 C 174.65829 831.315421 173.863289 831.315421 173.975789 829.847919 C 174.030789 829.172918 174.57579 827.555415 174.093289 827.187915 C 173.983289 827.105415 173.835789 827.072915 173.663288 827.072915 Z M 173.663288 827.072915 " transform="matrix(1.562497,0,0,1.562497,-74.621891,-1292.107955)"/>
<path style="fill-rule:nonzero;fill:rgb(50.196078%,50.196078%,50.196078%);fill-opacity:1;stroke-width:0.24;stroke-linecap:butt;stroke-linejoin:miter;stroke:rgb(0%,0%,0%);stroke-opacity:1;stroke-miterlimit:4;" d="M 196.320825 860.375468 C 196.493325 859.017966 197.763327 857.237963 198.700828 855.880461 C 199.63583 854.525458 202.780835 852.317955 204.818338 850.792952 C 206.855841 849.26545 207.195842 848.672949 209.488346 846.385445 C 211.783349 844.092942 212.09835 845.150443 212.658351 843.752941 C 211.550849 844.262942 209.320845 845.875445 208.130843 846.637946 C 206.943342 847.400447 206.17584 847.910448 204.648338 849.09795 C 203.118335 850.285452 201.505833 850.962953 200.230831 852.317955 C 198.955829 853.675457 198.020827 853.930457 197.255826 854.440458 C 196.493325 854.947959 193.51832 857.577963 192.243318 858.592965 C 190.970816 859.612967 190.458315 859.697967 189.780814 858.850465 C 189.098313 858.000464 190.373315 857.067963 191.308316 855.71296 C 192.243318 854.352958 193.51832 853.252956 195.133323 851.555454 C 196.745825 849.860451 196.660825 850.115451 198.700828 848.162948 C 200.738332 846.212945 200.908332 846.722946 203.625836 844.177942 C 204.408337 843.29044 206.01334 842.117939 205.89334 841.780438 C 204.770838 842.312939 203.543336 843.24294 201.080832 844.687943 C 198.613328 846.127945 197.255826 847.147947 196.320825 847.567947 C 195.385823 847.992948 189.780814 851.640454 186.635809 855.035459 C 183.493304 858.425465 183.238304 855.62546 184.085805 853.675457 C 184.935806 851.725454 185.785808 851.810454 186.893309 850.200452 C 187.995811 848.587949 191.818317 845.450444 195.470823 842.397939 C 199.123329 839.342934 199.123329 839.260434 197.255826 840.192936 C 195.385823 841.125437 194.623322 841.550438 193.093319 842.565439 C 191.563317 843.585441 189.610814 844.602943 187.655811 846.467946 C 185.700808 848.335449 189.780814 844.687943 181.368301 851.640454 C 172.958287 858.592965 179.413297 852.150455 179.670798 850.710452 C 179.923298 849.26545 180.6883 847.910448 181.963302 846.212945 C 183.238304 844.517942 185.533307 843.415441 190.883316 839.090434 C 196.235824 834.765427 192.838319 836.71543 191.308316 837.310431 C 189.780814 837.902932 189.098313 838.835433 187.31831 839.852935 C 185.533307 840.872937 183.663304 842.565439 182.133302 843.667941 C 180.605799 844.772943 180.010798 846.042945 174.99829 849.35045 C 169.985782 852.660455 170.155783 851.047953 170.833284 849.43545 C 171.513285 847.825448 172.618287 847.147947 174.57329 844.687943 C 176.525793 842.227939 178.650796 840.955437 182.388302 838.072932 C 186.125808 835.187928 185.700808 834.000426 182.898303 836.54793 C 180.095799 839.090434 180.8583 837.817932 179.073297 839.090434 C 177.293294 840.362936 177.205794 840.785436 168.880781 846.297945 C 160.555767 851.810454 163.868273 847.567947 164.208273 845.280444 C 164.393273 844.042942 166.348277 841.905438 168.880781 839.837935 C 170.855784 838.222932 173.218288 835.965429 175.335791 834.717927 C 175.523291 834.610427 176.668293 834.052926 176.850793 833.947926 C 177.995795 833.052924 178.958297 832.585423 179.355797 831.417921 C 176.888293 833.115424 175.508291 833.662925 173.893289 834.850427 C 172.280786 836.037929 170.748284 836.88543 169.898282 837.140431 C 169.048281 837.392931 167.945779 838.580433 160.383267 844.772943 C 152.823255 850.962953 157.243262 844.855443 157.580763 842.82294 C 157.920763 840.785436 163.698272 836.122929 167.605779 832.135423 C 171.513285 828.150416 167.180778 831.372921 165.395775 832.642923 C 163.613272 833.915425 162.933271 834.087926 160.808268 835.867929 C 158.685764 837.647931 154.945758 840.700436 153.673256 841.550438 C 152.398254 842.397939 149.51075 845.197944 147.638247 847.740448 C 145.770744 850.285452 145.008242 849.09795 144.920742 849.09795 C 144.835742 849.09795 145.008242 847.315447 145.260743 846.385445 C 145.518243 845.450444 148.320748 841.210437 149.68075 839.852935 C 151.038252 838.497933 153.588256 834.425426 153.163255 835.017927 C 152.738255 835.612928 151.123252 836.96793 150.02075 838.155432 C 148.913249 839.342934 142.798239 844.855443 141.780737 845.875445 C 140.758236 846.890446 139.738234 848.842949 138.463232 849.43545 C 137.19323 850.027951 137.36073 848.927949 137.10573 848.335449 C 136.850729 847.740448 139.145733 842.312939 139.908234 840.955437 C 140.673235 839.600435 142.798239 836.46043 142.033238 837.225431 C 141.268236 837.987932 140.505735 839.090434 139.738234 839.767935 C 138.973233 840.447936 138.720732 840.362936 136.935729 843.667941 C 135.150727 846.975446 133.283224 849.01295 132.348222 849.09795 C 131.413221 849.18045 130.73322 848.755449 130.82072 848.417949 C 130.90572 848.077948 131.498221 846.552946 131.923221 845.702944 C 132.348222 844.855443 134.133225 842.312939 133.960725 841.972938 C 133.793224 841.635438 131.413221 844.687943 130.223219 846.467946 C 129.035717 848.250448 121.925705 851.330453 124.305709 850.935453 C 126.685713 850.537952 130.98822 849.635451 135.860728 850.652952 C 140.730736 851.667954 149.68075 851.780454 151.493253 851.840454 C 153.305756 851.892954 162.820771 855.40046 169.220781 856.190461 C 175.620791 856.985462 189.893314 863.540473 197.763327 863.992974 C 198.163327 864.015474 196.150824 861.73047 196.320825 860.375468 Z M 196.320825 860.375468 " transform="matrix(1.562497,0,0,1.562497,-74.621891,-1292.107955)"/>
<path style="fill-rule:nonzero;fill:rgb(80%,80%,80%);fill-opacity:1;stroke-width:0.24;stroke-linecap:round;stroke-linejoin:round;stroke:rgb(0%,0%,0%);stroke-opacity:1;stroke-miterlimit:4;" d="M 141.633237 940.265596 C 141.375737 940.265596 140.773236 940.288096 139.598234 940.315596 C 137.855731 940.360596 134.895726 940.410596 131.760721 940.440596 C 134.895726 944.615603 132.688223 941.730598 134.330725 948.348109 C 134.330725 948.348109 136.538229 956.035621 136.99323 958.068124 C 137.44573 960.105627 140.958236 968.07564 141.635737 969.093142 C 142.318238 970.113143 144.695742 972.488147 145.375743 973.788149 C 146.055744 975.088151 147.130746 976.725654 148.263248 978.478157 C 149.395749 980.23066 149.395749 981.023161 151.263252 982.948164 C 153.133255 984.868167 154.043257 986.225669 154.550758 986.225669 C 155.060758 986.225669 154.775758 986.61817 155.683259 985.093167 C 156.588261 983.565665 157.720763 980.910661 158.513264 980.45566 C 159.308265 980.005659 160.438267 977.235655 160.438267 977.235655 L 161.175768 975.088151 C 161.175768 975.088151 162.08327 974.18065 162.53577 972.090647 C 162.988271 969.998143 163.158271 967.90564 163.838273 966.718138 C 164.518274 965.530636 165.255775 962.253131 165.255775 962.253131 C 165.255775 962.253131 165.935776 958.748125 165.310775 957.335623 C 164.688274 955.923121 162.820771 953.038116 162.763271 953.038116 C 162.708271 953.038116 160.838268 950.890613 157.383262 949.13811 C 153.925757 947.385607 151.150752 944.725603 149.79325 944.500602 C 148.433248 944.275602 145.770744 943.0306 145.770744 942.9756 C 145.770744 942.9181 144.073241 942.240599 142.318238 942.125599 C 141.523237 942.125599 140.560735 941.165597 140.560735 941.165597 C 140.043234 940.428096 142.405738 940.255596 141.633237 940.265596 Z M 141.633237 940.265596 " transform="matrix(1.562497,0,0,1.562497,-74.621891,-1292.107955)"/>
<path style="fill-rule:nonzero;fill:rgb(80%,80%,80%);fill-opacity:1;stroke-width:0.24;stroke-linecap:round;stroke-linejoin:round;stroke:rgb(0%,0%,0%);stroke-opacity:1;stroke-miterlimit:4;" d="M 246.020904 929.350578 C 242.113398 930.76308 236.508389 929.860579 232.938383 931.103081 C 229.370877 932.343083 222.405866 933.928085 219.743362 935.115587 C 217.080858 936.303089 209.375845 937.548091 207.735843 938.113092 C 206.09334 938.678093 192.668319 941.503098 190.913316 941.955598 C 189.155813 942.410599 189.495814 943.2556 189.495814 943.2556 C 189.495814 943.2556 191.760817 946.538106 195.385823 948.573109 C 199.010829 950.605612 207.620843 955.81062 212.26335 956.825622 C 216.910857 957.843124 227.895875 959.540626 230.73088 961.57563 C 233.560884 963.610633 235.148387 963.723133 238.205892 964.515634 C 241.263396 965.305636 243.7584 965.648136 245.795904 964.628135 C 247.835907 963.610633 253.158415 961.238129 255.083419 959.200626 C 257.010922 957.165623 257.688423 957.730624 259.500926 953.773117 C 261.313429 949.815611 262.673431 949.13811 262.22093 944.840603 C 261.768429 940.543096 261.655929 937.263091 261.200928 935.793088 C 260.748428 934.325586 257.800923 930.59308 256.895921 930.36808 C 255.98842 930.140579 248.458408 930.25308 248.458408 930.25308 C 246.475905 930.59308 246.645905 930.028079 246.020904 929.350578 Z M 246.020904 929.350578 " transform="matrix(1.562497,0,0,1.562497,-74.621891,-1292.107955)"/>
<path style=" stroke:none;fill-rule:nonzero;fill:rgb(94.901961%,94.901961%,94.901961%);fill-opacity:1;" d="M 199.140625 72.078125 C 197.816406 72.085938 196.460938 72.210938 195.09375 72.5 C 188.859375 73.828125 170.003906 80.980469 165.359375 84.292969 C 160.710938 87.609375 155.933594 94.101562 153.941406 97.414062 C 151.953125 100.722656 145.710938 107.75 142.925781 110.929688 C 140.136719 114.105469 133.765625 121.792969 131.910156 124.179688 C 130.046875 126.5625 130.179688 130.007812 130.179688 131.597656 C 130.179688 133.1875 130.046875 134.644531 131.640625 139.019531 C 133.234375 143.394531 134.429688 147.632812 136.421875 147.894531 C 138.414062 148.160156 141.996094 148.429688 147.304688 147.894531 C 152.617188 147.367188 165.625 146.039062 168.675781 145.644531 C 171.726562 145.242188 175.316406 146.039062 178.101562 144.183594 C 180.890625 142.328125 187.261719 139.019531 191.113281 135.175781 C 194.960938 131.332031 203.195312 124.179688 205.179688 120.46875 C 207.171875 116.757812 213.015625 106.023438 213.8125 102.183594 C 214.609375 98.339844 216.070312 89.195312 216.070312 87.871094 C 216.070312 86.546875 214.078125 75.945312 210.757812 74.617188 C 208.164062 73.585938 203.871094 72.066406 199.140625 72.078125 Z M 199.140625 72.078125 "/>
<path style="fill-rule:nonzero;fill:rgb(80%,80%,80%);fill-opacity:1;stroke-width:0.24;stroke-linecap:round;stroke-linejoin:round;stroke:rgb(0%,0%,0%);stroke-opacity:1;stroke-miterlimit:4;" d="M 332.523542 872.735488 C 331.886041 872.735488 330.68854 872.942988 328.206036 873.550489 C 323.786028 874.622991 316.423517 877.392995 312.40101 879.030498 C 308.381004 880.673 305.208499 881.463002 301.300992 883.103004 C 298.018487 884.178006 294.163481 885.873009 290.655975 886.94801 C 288.105971 888.305512 278.135955 891.360517 281.25096 890.735516 C 284.368465 890.113015 284.535966 891.528018 284.875966 892.655519 C 285.218467 893.788021 286.575969 896.388025 286.175968 898.028028 C 285.783468 899.668031 285.273467 901.648034 285.158467 903.060536 C 285.045966 904.475538 284.423465 905.21054 284.593466 907.075543 C 284.760966 908.940546 285.838468 913.125552 284.988466 914.425554 C 284.138465 915.725556 283.063463 917.70306 282.270962 918.325561 C 281.475961 918.948062 278.588456 920.755564 277.510954 921.150565 C 276.435953 921.548066 275.813452 922.113067 275.248451 922.113067 C 274.68345 922.113067 281.818461 923.525569 283.175963 924.14807 C 284.535966 924.773071 294.050981 928.785577 296.713485 929.518078 C 299.375989 930.25308 311.608509 934.718087 312.911011 934.835587 C 314.213513 934.948087 325.373531 938.225592 326.336033 938.168092 C 327.298534 938.113092 330.526039 938.113092 330.526039 938.113092 L 330.413539 927.428075 C 330.413539 927.428075 328.826037 919.115562 327.921035 917.418059 C 327.013534 915.725556 325.088531 910.015547 324.408529 909.448046 C 323.731028 908.885545 322.938527 906.963042 322.938527 906.963042 C 322.938527 906.963042 323.448528 905.77554 324.126029 904.755539 C 325.486031 903.003036 326.223532 899.725531 326.958534 897.860528 C 328.713536 894.580523 330.246039 889.718015 330.638539 887.910512 C 330.638539 887.910512 333.188544 878.525497 333.188544 878.467997 C 333.188544 878.410497 333.756044 873.435489 333.358544 873.040488 C 333.186043 872.865488 333.023543 872.737988 332.523542 872.735488 Z M 332.523542 872.735488 " transform="matrix(1.562497,0,0,1.562497,-74.621891,-1292.107955)"/>
<path style=" stroke:none;fill-rule:nonzero;fill:rgb(100%,100%,100%);fill-opacity:1;" d="M 41.242188 104.703125 C 41.773438 105.359375 42.4375 105.625 44.160156 105.097656 C 45.890625 104.566406 46.414062 103.636719 49.605469 103.507812 C 52.789062 103.375 54.25 103.375 55.707031 103.636719 C 57.167969 103.90625 58.101562 102.976562 58.363281 103.636719 C 58.632812 104.300781 60.757812 104.835938 57.570312 105.492188 C 54.382812 106.15625 53.851562 107.75 51.460938 107.75 C 49.070312 107.75 48.941406 108.808594 46.554688 108.539062 C 44.160156 108.277344 41.773438 109.605469 41.640625 110.265625 C 41.503906 110.929688 38.808594 109.824219 38.808594 108.765625 C 38.808594 107.699219 40.707031 104.039062 41.242188 104.703125 Z M 41.242188 104.703125 "/>
<path style="fill:none;stroke-width:0.24;stroke-linecap:butt;stroke-linejoin:miter;stroke:rgb(0%,0%,0%);stroke-opacity:1;stroke-miterlimit:4;" d="M 121.305704 880.3905 C 121.305704 880.3905 123.258208 880.643 124.360709 880.985501 C 125.468211 881.323001 128.013215 882.850504 129.373217 884.628007 C 130.73322 886.410509 133.283224 887.853012 134.558226 888.448013 C 135.833228 889.040514 135.833228 891.413017 135.745728 892.85552 C 135.660727 894.298022 133.875725 898.368029 133.113223 899.38553 C 132.348222 900.403032 129.205717 908.968046 127.505714 911.260549 C 125.808212 913.548053 119.605702 925.165571 118.075699 927.200575 C 116.545697 929.238078 112.12569 928.560577 109.238185 931.780582 C 106.350681 935.003087 102.783175 933.305584 98.363168 934.068086 C 94.863162 934.675587 91.313157 933.648085 91.313157 933.648085 M 51.195592 906.880542 C 49.84559 905.24054 49.73809 903.178036 53.335596 900.178031 C 58.660604 895.260524 69.083121 886.155509 73.385628 882.650503 C 77.693135 879.147998 89.245653 871.115485 93.893161 868.630481 C 98.873169 864.785475 99.55567 863.767973 104.768178 860.772968 C 110.883188 856.417961 121.925705 851.330453 124.305709 850.935453 C 126.685713 850.537952 130.98822 849.635451 135.860728 850.652952 C 140.730736 851.667954 149.68075 851.780454 151.493253 851.840454 C 153.305756 851.892954 162.820771 855.40046 169.220781 856.190461 C 175.620791 856.985462 189.893314 863.540473 197.763327 863.992974 C 205.638339 864.447974 217.360858 872.475487 222.175866 874.05549 C 226.993374 875.640492 239.508394 885.025507 242.170898 886.49301 C 244.833402 887.965512 253.895917 891.528018 257.348422 892.090519 C 260.805928 892.655519 264.200933 893.27802 266.583437 893.27802 C 268.960941 893.27802 270.998444 893.730521 275.075951 892.318019 C 279.155957 890.905517 278.135955 891.355517 281.25096 890.735516 C 284.368465 890.113015 284.535966 891.528018 284.875966 892.655519 C 285.218467 893.788021 286.575969 896.388025 286.175968 898.028028 C 285.783468 899.668031 285.273467 901.648034 285.158467 903.060536 C 285.045966 904.475538 284.423465 905.21054 284.593466 907.075543 C 284.760966 908.940546 285.838468 913.125552 284.988466 914.425554 C 284.138465 915.725556 283.063463 917.70306 282.270962 918.325561 C 281.475961 918.948062 278.588456 920.755564 277.510954 921.150565 C 276.435953 921.548066 275.813452 922.113067 275.248451 922.113067 C 274.68345 922.113067 272.245946 921.828066 270.263443 921.943066 C 268.28094 922.055566 262.22093 922.960568 259.500926 924.03557 C 256.783421 925.110571 255.368419 925.675572 252.705915 926.523074 C 250.04341 927.373075 249.93091 927.935576 246.020904 929.350578 C 242.113398 930.76308 236.508389 929.860579 232.938383 931.103081 C 229.370877 932.343083 222.405866 933.928085 219.743362 935.115587 C 217.080858 936.303089 209.375845 937.548091 207.735843 938.113092 C 206.09334 938.678093 192.668319 941.503098 190.913316 941.955598 C 189.155813 942.410599 189.893314 942.125599 184.455806 942.410599 C 179.020797 942.6906 177.998295 942.465599 176.073292 942.9181 C 174.148289 943.368101 170.748284 942.9756 169.105781 942.9181 C 167.463278 942.8606 152.908255 942.298099 148.660748 941.390597 C 144.410741 940.488096 144.298241 940.205596 139.598234 940.315596 C 134.895726 940.430596 121.360705 940.600596 119.320701 940.315596 C 117.283198 940.035595 106.520681 938.848093 101.368173 937.660591 C 96.210664 936.47309 97.570667 936.135589 97.005666 935.905589 C 96.438165 935.680588 93.893161 934.210586 90.833156 933.475585 C 87.773151 932.740584 80.070639 930.818081 73.385628 926.748074 C 66.705617 922.678067 62.23061 920.530564 59.398105 918.775561 C 56.568101 917.025558 47.388086 910.240548 47.898087 908.828045 C 48.410588 907.413043 49.69809 905.815541 50.493091 905.873041 M 64.268113 894.693023 C 63.700612 895.090523 63.475612 895.598024 63.475612 895.598024 M 60.473107 897.575527 C 60.870608 898.368029 61.038108 898.763029 61.038108 898.705529 " transform="matrix(1.562497,0,0,1.562497,-74.621891,-1292.107955)"/>
<path style="fill:none;stroke-width:0.24;stroke-linecap:round;stroke-linejoin:round;stroke:rgb(0%,0%,0%);stroke-opacity:1;stroke-miterlimit:4;" d="M 175.208291 873.080488 C 174.360789 873.085488 173.493288 873.165488 172.618287 873.350489 C 168.62578 874.20049 156.560761 878.777997 153.588256 880.898001 C 150.613251 883.018004 147.555746 887.175511 146.280744 889.293014 C 145.008242 891.413017 141.013236 895.910525 139.230733 897.943028 C 137.44573 899.978031 133.368224 904.898039 132.180722 906.425541 C 130.98822 907.950544 131.07322 910.155547 131.07322 911.173049 C 131.07322 912.190551 130.98822 913.123052 132.008222 915.923057 C 133.025723 918.723061 133.793224 921.435565 135.068227 921.603066 C 136.343229 921.773066 138.635732 921.943066 142.033238 921.603066 C 145.433243 921.265565 153.758256 920.415564 155.71076 920.163063 C 157.663263 919.905563 159.960766 920.415564 161.743269 919.228062 C 163.525772 918.04056 167.605779 915.923057 170.070783 913.463053 C 172.533286 911.003049 177.800795 906.425541 179.073297 904.050538 C 180.348299 901.675534 184.088305 894.805523 184.598306 892.348019 C 185.108307 889.888015 186.043308 884.035506 186.043308 883.188004 C 186.043308 882.340503 184.768306 875.555492 182.643303 874.705491 C 180.9833 874.04299 178.235796 873.072988 175.208291 873.080488 Z M 175.208291 873.080488 " transform="matrix(1.562497,0,0,1.562497,-74.621891,-1292.107955)"/>
</g>
</svg>
