<?xml version="1.0" encoding="UTF-8"?>
<!-- Created by grConvert v0.1-0 -->
<svg xmlns="http://www.w3.org/2000/svg" xmlns:xlink="http://www.w3.org/1999/xlink" width="373pt" height="213pt" viewBox="0 0 373 213" version="1.1">
<g id="surface5417">
<path style="fill-rule:nonzero;fill:rgb(0%,0%,0%);fill-opacity:1;stroke-width:0.176389;stroke-linecap:butt;stroke-linejoin:miter;stroke:rgb(0%,0%,0%);stroke-opacity:1;stroke-miterlimit:4;" d="M 102.440255 151.662406 C 99.310454 155.353343 100.524231 160.788326 103.851366 163.923638 C 108.02627 168.631017 112.886887 172.724341 117.030923 177.429515 C 115.188762 178.277284 115.995741 183.010019 113.374161 179.281598 C 105.322008 172.959159 96.176244 168.090826 86.811097 164.003013 C 80.669456 161.649324 73.506965 160.086078 67.152555 162.514732 C 64.395376 164.160661 64.555229 168.051138 65.64443 170.873361 C 67.134916 174.234671 69.605463 177.242102 72.238067 179.757848 C 73.779265 182.564637 77.096479 183.579975 78.679569 186.179506 C 80.615437 188.463742 83.03417 190.792076 86.395481 190.226529 C 88.46805 190.279446 91.816132 189.199064 88.408519 191.151468 C 85.101227 193.096156 82.878727 197.140973 85.101227 200.668751 C 86.393276 202.686199 88.27292 204.351972 90.692755 204.938465 C 91.809517 206.6329 94.746392 208.241347 96.781479 208.919341 C 99.478024 210.015157 102.378519 209.688838 105.153336 209.795774 C 107.780428 209.813413 109.841974 208.613968 111.835168 206.634003 C 113.507555 205.44448 116.832486 195.931607 116.305524 198.685479 C 116.68476 202.438152 115.872269 206.228308 115.85022 210.037206 C 117.941531 214.345505 119.060498 206.561242 118.505975 204.857987 C 118.996557 202.066633 117.351731 194.162206 118.306435 197.203812 C 120.204821 200.422909 121.886027 204.428039 124.872512 206.608647 C 126.72239 207.869828 128.747555 209.252275 130.975567 208.798074 C 133.808814 208.606251 136.679543 208.783742 139.338606 207.719897 C 141.973415 207.485079 143.360272 205.241633 145.493475 204.211963 C 146.748041 202.153725 149.673892 201.889142 150.415828 199.514506 C 151.84127 197.426503 153.003232 193.976998 150.814908 191.758907 C 148.057729 189.298282 155.040524 190.258499 155.355819 187.364619 C 157.099864 185.073769 159.442529 183.41902 161.6518 181.499689 C 163.344031 179.320183 165.735203 177.58165 167.111036 175.169532 C 169.724899 172.26573 171.263892 167.453621 169.129586 163.954506 C 167.119856 161.566642 163.068423 161.820201 160.077529 161.777206 C 150.554734 162.293144 142.201618 167.452519 133.973076 171.781763 C 129.296566 174.483821 124.521939 177.117527 120.450663 180.704836 C 120.999673 178.07113 118.731974 175.805635 122.424014 174.398933 C 127.238328 169.597848 132.850802 165.481373 136.884595 159.96481 C 138.822668 158.522831 137.223041 150.953543 137.260524 156.323482 C 137.293597 161.298751 132.268718 164.093413 129.340663 167.464645 C 125.808475 170.37396 122.690802 174.13435 118.824578 176.43843 C 118.066106 176.709628 116.513883 175.330487 116.733267 176.212432 C 111.977382 171.197475 106.40239 166.88146 102.40608 161.200635 C 99.954274 158.162336 101.902269 154.666529 102.440255 151.662406 Z M 100.028137 173.830079 L 100.076644 173.86646 Z M 100.028137 173.830079 " transform="matrix(3.543307,0,0,3.543307,-229.684312,-536.300539)"/>
<path style="fill-rule:nonzero;fill:rgb(30.196078%,30.196078%,30.196078%);fill-opacity:1;stroke-width:0.176389;stroke-linecap:butt;stroke-linejoin:miter;stroke:rgb(0%,0%,0%);stroke-opacity:1;stroke-miterlimit:4;" d="M 102.102911 176.514498 C 99.071227 176.800027 97.543258 177.70402 101.463501 179.046781 C 105.595411 180.5979 110.129708 181.141399 113.999239 183.379333 C 109.252173 182.399272 104.425732 179.901164 99.711739 179.771078 C 98.026123 180.898864 96.147581 181.2781 96.814552 183.66817 C 99.419595 183.768491 105.247043 185.453005 109.132008 185.76389 C 110.798883 185.880748 114.726843 184.65705 111.054647 185.834446 C 106.869821 187.657866 100.756843 182.464315 97.896036 185.589706 C 98.637972 187.136416 100.237599 188.238847 100.454777 187.378951 C 103.833727 187.547623 107.165272 188.447206 110.487998 187.915835 C 113.181236 188.959836 114.120507 184.123473 114.62542 184.475149 C 116.91627 181.798447 111.229934 181.40488 109.518961 179.240808 C 107.374734 177.611416 104.804968 176.623638 102.102911 176.514498 Z M 133.600455 176.688682 C 129.396887 176.691989 126.042191 179.642093 122.614734 181.693716 C 120.207026 182.918517 120.208128 184.399081 123.001687 182.795045 C 127.570159 180.697119 133.169404 180.540574 137.227451 177.67646 C 137.1591 176.285192 134.560672 176.91468 133.600455 176.688682 Z M 137.611097 179.471216 C 133.27193 180.432536 128.878744 181.145808 124.697225 182.700236 C 122.2366 183.057423 118.141071 184.610748 122.808762 185.034081 C 127.698041 186.730722 132.472668 184.297657 137.327772 184.01764 C 140.448753 184.166468 139.070715 181.412597 137.557078 179.860374 L 137.808432 179.408378 Z M 135.845003 184.520348 C 131.817824 185.29646 127.691427 186.661269 123.577156 185.433161 C 121.312764 184.229307 118.479517 185.059437 121.667746 187.054836 C 126.080776 189.808708 131.491505 187.611564 136.217625 187.023968 C 137.763232 186.418734 138.371774 185.146529 135.845003 184.520348 Z M 120.877303 188.346885 C 120.343727 193.636347 126.21417 196.71764 127.489682 201.655427 C 128.240437 203.369706 130.912729 209.620487 129.678007 204.429142 C 128.664873 200.884828 126.398276 197.753925 126.037781 194.035427 C 125.237416 191.578109 122.997277 189.37435 120.877303 188.346885 Z M 108.391175 188.363421 C 105.262477 188.566269 98.161722 188.570678 98.502373 190.174715 C 101.975029 189.096538 105.742034 190.264012 109.17831 189.096538 C 110.004031 188.558552 108.79246 188.168291 108.391175 188.363421 Z M 122.530949 188.833057 C 124.409491 191.729142 129.023163 193.228447 132.660081 193.321052 C 135.996036 192.54494 129.866522 190.480088 127.48858 190.395201 C 125.772095 190.069984 124.143805 189.485696 122.530949 188.833057 Z M 113.915455 189.529793 C 111.195758 192.065383 104.61976 190.873656 103.649621 194.442223 C 106.472946 195.302119 111.157173 192.320045 111.933284 192.321147 C 110.349092 196.687874 109.020663 201.159333 107.492694 205.553621 C 107.211574 209.5808 110.908024 200.104307 110.036001 201.340131 C 111.337972 197.558795 114.541635 193.513977 114.357529 189.775635 C 113.140446 190.435991 114.716922 189.027085 113.915455 189.529793 Z M 120.505784 191.104064 C 119.716444 194.997848 123.245324 198.323881 124.175776 202.043482 C 124.656435 203.608933 126.620967 207.00001 125.962816 203.488769 C 125.084178 199.208031 122.289517 195.657102 120.969908 191.537319 L 120.587364 191.1206 Z M 114.844803 191.228638 C 113.300298 194.212918 112.825151 197.823378 111.461444 200.979637 C 110.641236 202.244124 110.514456 208.483881 111.565073 203.880131 C 112.481192 199.748222 115.207503 195.270149 114.844803 191.228638 Z M 119.6966 192.894411 C 117.662616 194.518291 121.133067 201.042475 121.213545 198.920296 C 120.262147 197.156407 121.074639 194.201894 119.6966 192.894411 Z M 134.549647 193.494133 C 135.691765 195.866564 138.773059 197.643682 140.233779 200.135175 C 139.61752 197.755027 136.924283 194.804923 134.549647 193.494133 Z M 127.987981 193.873369 C 128.925047 197.805739 132.040515 202.015921 133.920159 205.938369 C 134.007251 204.358586 131.418744 198.552085 129.809196 195.611902 C 129.426652 194.81264 128.933866 194.05527 127.987981 193.873369 Z M 102.590185 194.151182 C 101.455784 196.128942 97.876192 198.095678 98.566314 199.917996 C 99.66213 198.062605 102.898866 195.873178 102.590185 194.151182 Z M 108.90601 195.188569 C 105.607538 197.203812 105.696835 202.236407 103.904283 205.512831 C 103.419213 209.330548 106.090402 201.642197 107.085897 200.217857 C 107.303076 198.800131 110.398701 195.669229 108.90601 195.188569 Z M 132.841982 195.417874 C 133.740463 198.4683 136.392911 201.55731 138.171132 204.404888 C 137.865758 202.848256 135.450333 197.328387 132.95443 195.434411 Z M 104.350767 196.535739 C 101.863684 198.74501 100.075541 203.38955 99.688588 205.881043 C 101.0093 202.799749 104.044291 199.468204 104.350767 196.535739 Z M 104.350767 196.535739 " transform="matrix(3.543307,0,0,3.543307,-229.684312,-536.300539)"/>
<path style="fill-rule:nonzero;fill:rgb(70.196078%,70.196078%,70.196078%);fill-opacity:1;stroke-width:0.176389;stroke-linecap:butt;stroke-linejoin:miter;stroke:rgb(0%,0%,0%);stroke-opacity:1;stroke-miterlimit:4;" d="M 76.99726 162.70435 C 74.37568 164.60935 84.338345 164.907006 78.695003 162.983265 C 78.145993 162.813491 77.573831 162.705453 76.99726 162.70435 Z M 158.484517 163.040591 C 156.134135 163.104532 153.536809 165.603742 157.437208 164.715183 C 157.945428 164.694237 160.000359 163.179498 158.484517 163.040591 Z M 76.721652 164.28744 C 74.582937 164.615965 72.092547 168.377458 75.994048 167.033595 C 77.107503 166.893586 78.411678 164.52777 76.721652 164.28744 Z M 158.636652 164.671086 C 154.54443 166.640027 164.824595 168.751182 160.400541 165.206867 L 159.553875 164.818812 Z M 88.260793 165.952111 C 86.412017 168.044524 96.573119 169.835973 91.1668 167.191242 C 90.24627 166.696251 89.327946 166.065661 88.260793 165.952111 Z M 147.602425 166.275123 C 145.444968 166.443795 140.327486 170.513968 145.514422 168.517466 C 145.997286 168.271624 149.413718 166.609159 147.602425 166.275123 Z M 74.445133 167.839472 C 70.76963 168.557154 73.494838 172.323057 75.431809 169.397206 C 75.64568 168.742362 75.235576 167.78876 74.445133 167.839472 Z M 160.863562 168.10626 C 156.538727 169.266017 166.06483 172.336286 162.506184 168.509749 C 162.011192 168.218708 161.431314 168.109567 160.863562 168.10626 Z M 143.297434 169.315626 C 140.776175 170.431286 133.295081 172.0706 137.017989 175.719645 C 138.16121 179.478933 144.1441 175.188274 145.349057 173.187362 C 143.774786 171.620808 142.403362 171.844602 143.297434 169.315626 Z M 93.029908 169.492015 C 92.090637 169.431381 93.796097 172.166512 91.105064 172.217223 C 89.020368 174.459567 95.085941 175.96659 96.680055 177.006182 C 99.985142 176.680965 101.751236 171.822553 97.442937 170.875565 C 96.097972 170.110479 94.600871 169.490913 93.029908 169.492015 Z M 76.028224 171.770739 C 72.902833 172.503855 77.47351 173.093656 76.028224 171.770739 Z M 86.038293 171.841295 C 81.961505 171.08172 78.005984 178.105305 84.30417 175.817762 C 87.544213 175.986433 92.543736 172.407944 86.038293 171.841295 Z M 161.104994 171.915157 C 156.484708 172.54244 167.394361 173.725348 162.543666 172.020991 L 162.04206 171.953742 Z M 73.3416 172.077215 C 70.391496 172.687961 73.729656 170.817137 73.866357 172.164307 Z M 149.507425 172.094854 C 143.289717 172.797102 149.454508 176.794515 152.615177 176.16613 C 158.334586 176.865071 152.186331 171.028803 149.507425 172.094854 Z M 146.303762 174.601781 C 142.783701 175.458369 143.261053 180.670661 147.357685 179.715956 C 149.38726 181.031156 154.200472 183.270192 152.402408 178.832909 C 150.809395 176.887119 148.34877 175.948951 146.303762 174.601781 Z M 89.575993 174.66021 C 86.59502 175.069211 80.626461 179.823994 84.005411 181.647414 C 86.124283 179.301442 93.510567 180.145904 91.832668 175.87619 C 91.348701 175.124333 90.478883 174.618317 89.575993 174.66021 Z M 93.74759 180.876815 C 91.28035 179.535157 83.642711 183.358387 89.625602 183.164359 C 90.562668 182.688109 94.870967 182.158942 93.74759 180.876815 Z M 142.812364 180.942961 C 140.099283 182.781815 151.086106 184.844463 148.110645 181.615444 C 146.37101 181.289124 144.58397 181.071946 142.812364 180.942961 Z M 142.812364 180.942961 " transform="matrix(3.543307,0,0,3.543307,-229.684312,-536.300539)"/>
</g>
</svg>
