<?xml version="1.0" encoding="UTF-8"?>
<!-- Created by grConvert v0.1-0 -->
<svg xmlns="http://www.w3.org/2000/svg" xmlns:xlink="http://www.w3.org/1999/xlink" width="222pt" height="285pt" viewBox="0 0 222 285" version="1.1">
<g id="surface8380">
<path style=" stroke:none;fill-rule:nonzero;fill:rgb(70.196078%,70.196078%,70.196078%);fill-opacity:1;" d="M 123.492188 284.394531 C 111.257812 280.71875 104.4375 270.75 91.636719 270.496094 C 78.023438 262.320312 90.457031 246.664062 88.105469 235.050781 C 82.007812 223.929688 102.335938 202.976562 85.292969 200.019531 C 77.863281 200.296875 66.726562 188.988281 62.152344 197.902344 C 61.742188 206.953125 47.644531 203.660156 54.761719 207.109375 C 42.625 211.355469 30.269531 199.953125 41.394531 188.976562 C 40.554688 176.324219 24.5 174.054688 15.796875 180.003906 C 5.425781 176.457031 6.414062 162.320312 0.425781 154.59375 C -1.980469 143.980469 6.222656 141.308594 14.25 140.558594 C 25.441406 131.519531 41.15625 130.730469 52.003906 119.761719 C 57.6875 108.726562 48.078125 92.515625 50.476562 79.09375 C 43.800781 67.34375 29.980469 59.140625 29.066406 44.707031 C 32.402344 38.257812 31.117188 29.917969 37.605469 25.273438 C 47.582031 26.40625 61.007812 25.921875 68.578125 33.351562 C 70.988281 37.492188 80.96875 54.675781 76.757812 40.128906 C 73.738281 26.292969 83.742188 14.523438 89.269531 2.734375 C 97.066406 -3.636719 109.917969 5.378906 119.105469 7.441406 C 132.875 14.902344 124.613281 27.609375 119.570312 38.273438 C 117.210938 45.339844 118.523438 53.363281 119.507812 60.589844 C 127.074219 71.957031 125.691406 48.363281 133.207031 46.035156 C 141.023438 34.992188 153.945312 29.421875 166.445312 25.726562 C 175.652344 21.648438 166.222656 -3.375 180.519531 10.585938 C 199.34375 10.476562 200.679688 32.191406 189.714844 43.199219 C 184.792969 52.589844 175.636719 73.304688 180.207031 77.113281 C 188.066406 77.171875 195.917969 78.566406 199.140625 68.054688 C 207.425781 51.789062 221.132812 72.859375 221.53125 83.191406 C 226.167969 97.257812 211.089844 108.414062 205.929688 120.683594 C 193.332031 125.011719 178.871094 126.621094 168.992188 136.851562 C 175.949219 144.1875 190.523438 149.902344 197.859375 159.914062 C 204.589844 169.007812 218.414062 172.59375 215.289062 187.441406 C 224.839844 199.648438 214.796875 221.460938 199.378906 209.882812 C 195.90625 219.730469 216.46875 225.339844 213.269531 238.769531 C 220.339844 254.058594 197.230469 247.992188 197.992188 236.246094 C 189.960938 219.871094 175.191406 206.710938 158.300781 200.171875 C 151.867188 199.894531 136.464844 187.742188 144.292969 201.5 C 151.183594 215.234375 141.476562 229.496094 143.1875 243.695312 C 139.304688 256.21875 140.941406 270.765625 134.527344 281.925781 C 131.230469 284.1875 127.449219 285.359375 123.492188 284.394531 Z M 88.59375 265.449219 C 86.28125 258.085938 87.535156 269.359375 88.59375 265.449219 Z M 217.050781 98.539062 C 215.566406 99.746094 216.074219 100.425781 217.050781 98.539062 Z M 125.3125 17.523438 C 123.726562 17.402344 126.210938 19.40625 125.3125 17.523438 Z M 176.628906 11.097656 C 173.691406 6.246094 174.007812 12.804688 176.628906 11.097656 Z M 95.425781 2.097656 C 95.328125 -1.066406 90.472656 3.15625 95.425781 2.097656 Z M 95.425781 2.097656 "/>
<path style=" stroke:none;fill-rule:nonzero;fill:rgb(30.196078%,30.196078%,30.196078%);fill-opacity:1;" d="M 123.722656 284.050781 C 111.4375 280.488281 105.367188 270.074219 92.472656 270.523438 C 92.996094 268.769531 105.171875 272.09375 103.605469 265.097656 C 99.203125 253.851562 114.539062 249.015625 109.199219 240.742188 C 111.75 233.964844 116.421875 222.511719 113.550781 216.25 C 115.519531 210.414062 117.039062 192.421875 111.503906 192.585938 C 108.539062 203.371094 102.523438 191.585938 101.140625 185.5 C 98.675781 179.046875 94.164062 170.757812 90.871094 168.355469 C 86.929688 169.582031 85.234375 158.152344 82.398438 163.980469 C 77.730469 155.808594 70.761719 168.429688 64.972656 170.164062 C 63.207031 177.707031 59.144531 175.230469 56.613281 179.421875 C 53.898438 178.105469 56.335938 175.855469 52.910156 175.539062 C 48.066406 173.175781 54.804688 169.417969 47.023438 171.886719 C 43.058594 169.539062 55.621094 166.734375 53.664062 163.699219 C 56.265625 161.660156 59.886719 153.132812 62.476562 154.167969 C 68.617188 152.730469 61.960938 148.84375 66.511719 147.792969 C 71.375 146.910156 67.113281 135.304688 67.40625 128.515625 C 70.675781 118.089844 71.394531 108.605469 74.851562 98.125 C 78.894531 87.109375 78.320312 77.53125 79.992188 67.175781 C 82.171875 57.058594 74.78125 51.171875 69.117188 44.117188 C 66.523438 47.421875 71.828125 63.21875 69.222656 63.671875 C 65.769531 53.585938 68.269531 70.914062 64.859375 71.597656 C 65.109375 80.675781 60.570312 86.359375 55.644531 91.558594 C 50.359375 98.042969 56.339844 113.699219 65.089844 120.652344 C 59.03125 118.992188 45.152344 125.496094 45.90625 131.394531 C 42.554688 128.839844 36.746094 138.972656 29.191406 136.550781 C 25.15625 137.21875 18.394531 143.167969 13.433594 145.097656 C 4.1875 141.796875 1.058594 146.496094 5.6875 154.9375 C 8.300781 162.121094 10.457031 176.515625 19.144531 177.417969 C 27.757812 168.050781 43.859375 177.261719 44.523438 188.089844 C 42.433594 194.191406 35.554688 198.941406 41.488281 190.398438 C 43.476562 175.828125 23.90625 173.710938 14.984375 179.480469 C 5.378906 175.445312 7.585938 161.96875 0.773438 155.113281 C -0.128906 147.996094 2.976562 140.039062 11.378906 142.519531 C 20.144531 131.398438 36.265625 136.523438 44.667969 124.726562 C 64.042969 119.191406 48.753906 100.335938 51.355469 86.625 C 53.539062 70.136719 32.851562 64.074219 29.835938 49.011719 C 29.125 37.722656 35.707031 18.171875 50.820312 27.539062 C 68.726562 24.382812 71.046875 43.171875 80.117188 52.800781 C 81.429688 45.292969 69.738281 26.609375 83.386719 18.210938 C 84.675781 11.410156 91.230469 -1.21875 87.042969 13.230469 C 86.429688 23.796875 89.757812 16.679688 91.804688 14.6875 C 94.5 23.460938 91.984375 33.363281 93.207031 39.675781 C 97.195312 44.359375 87.140625 50.617188 91.289062 54.738281 C 90.339844 60.269531 92.160156 66.597656 88.964844 73.085938 C 82.210938 77.289062 96.464844 90.070312 100.695312 84.796875 C 108.242188 81.347656 109.714844 80.605469 115.613281 79.695312 C 122.261719 74.335938 113.894531 66.792969 115.09375 60.019531 C 111.101562 60.917969 112.796875 52.15625 112.910156 46.15625 C 112.761719 36.574219 118.210938 29.101562 123.257812 22.890625 C 130.796875 16.480469 116.28125 9.042969 111.363281 6.527344 C 104.601562 8.136719 87.9375 -4.425781 102.144531 2.921875 C 114.285156 3.492188 134.121094 14.070312 123.871094 27.800781 C 117.601562 37.472656 112.9375 60.652344 124.589844 64.34375 C 127.832031 51.90625 136.867188 37.183594 150.363281 33.414062 C 159.457031 26.066406 176.601562 27.875 171.960938 10.683594 C 172.832031 0.792969 186.480469 16.53125 193.261719 15.5625 C 197.945312 20.292969 195.484375 27.433594 193.367188 17.75 C 188.691406 14.820312 174.65625 8.554688 174.015625 10.328125 C 181.15625 17.265625 189.867188 29.191406 175.859375 34.839844 C 170.753906 42.339844 172.191406 35.859375 166.140625 39.785156 C 172.601562 34.59375 172.65625 23.78125 162.917969 29.714844 C 151.542969 33.339844 139.558594 38.941406 134.175781 50.777344 C 125.390625 55.996094 126.660156 69.375 125.4375 75.605469 C 124.25 81.878906 126.46875 90.355469 131.257812 96.125 C 131.9375 97.527344 134.542969 99.863281 136.730469 101.125 C 133.230469 109.589844 142.753906 106.679688 143.46875 105.207031 C 142.121094 110.597656 159.027344 93.277344 155.015625 105.257812 C 151.582031 108.230469 151.738281 110.835938 147.71875 113.714844 C 149.386719 119.394531 135.9375 126.863281 145.308594 124.714844 C 140.285156 131.269531 146.191406 130.71875 141.617188 134.519531 C 148.238281 132.515625 158.039062 129.765625 145.851562 134.652344 C 146.164062 136.957031 162.207031 131.5625 165.824219 133.269531 C 178.804688 126.722656 191.816406 120.828125 205.859375 118.429688 C 207.71875 111.539062 218.246094 95.300781 210.964844 111.65625 C 206.714844 127.640625 186.246094 121.46875 175.675781 130.890625 C 168.007812 134.378906 160.441406 137.164062 172.816406 141.5625 C 183.390625 149.605469 195 156.167969 203.007812 166.804688 C 218.101562 171.144531 214.933594 191.628906 217.980469 203.675781 C 217.894531 218.140625 201.421875 208.730469 196.449219 210.078125 C 201.992188 221.328125 215.03125 228.710938 214.046875 243.671875 C 209.121094 255.808594 197.265625 238.691406 195.273438 231.09375 C 187.28125 216.792969 173.40625 205.585938 158.300781 199.703125 C 151.890625 199.492188 136.550781 187.675781 143.777344 201.292969 C 148.832031 211.726562 145.210938 223.386719 142.457031 233.839844 C 143.390625 243.417969 142.199219 253 138.433594 261.710938 C 139.199219 271.820312 137.851562 286.84375 123.722656 284.050781 Z M 131.378906 281.339844 C 135.121094 274.367188 127.332031 265.75 127.613281 258.898438 C 126.078125 250.582031 142.605469 249.21875 139.628906 243.25 C 137.53125 243.796875 138.199219 231.699219 140.488281 240.839844 C 141.074219 227.21875 148.429688 213.335938 142.046875 200.042969 C 136.265625 190.175781 141.148438 188.539062 149.210938 192.960938 C 142.261719 187.503906 130.804688 184.449219 126.851562 177.742188 C 120.53125 179.375 130.132812 194.71875 125.785156 202.0625 C 123.195312 211.546875 131.132812 223.710938 121.304688 228.085938 C 117.082031 235.269531 116.371094 246.113281 111.058594 249.765625 C 112.304688 252.835938 107.421875 260.851562 114.207031 258.53125 C 107.726562 260.945312 113.765625 268.671875 108.792969 264.300781 C 101.351562 277.371094 122.730469 283.078125 131.378906 281.339844 Z M 110.757812 275.730469 C 112.152344 275.0625 111.542969 276.929688 110.757812 275.730469 Z M 126.015625 274.210938 C 123.457031 268.980469 129.703125 277.40625 126.015625 274.210938 Z M 110.582031 267.089844 C 109.441406 265.730469 112.75 268.25 110.582031 267.089844 Z M 113.585938 266.867188 C 112.410156 263.832031 116.933594 267.113281 113.585938 266.867188 Z M 126.71875 266.859375 C 125.128906 261.863281 130.136719 265.242188 126.71875 266.859375 Z M 123.605469 260.980469 C 122.882812 258.957031 125.628906 261.707031 123.605469 260.980469 Z M 112.65625 256.890625 C 113.511719 255.066406 113.511719 258.710938 112.65625 256.890625 Z M 132.367188 250.683594 C 133.800781 247.210938 133.675781 253.6875 132.367188 250.683594 Z M 210.050781 245.476562 C 216.464844 240.15625 205.945312 220.320312 198.984375 220.660156 C 205.726562 227.265625 199.328125 245.007812 210.050781 245.476562 Z M 126.488281 220.601562 C 125.652344 218.242188 125.285156 222.378906 126.488281 220.601562 Z M 209.800781 211.027344 C 225.84375 205.925781 209.960938 187.726562 211.019531 176.597656 C 207.914062 171.578125 200.742188 168.105469 195.78125 170.9375 C 186.410156 167.695312 182.71875 162.644531 174.355469 159.300781 C 168.101562 158.765625 163.339844 153.5 160.707031 158.125 C 160.328125 151.957031 153.691406 157.9375 145.789062 154.078125 C 134.285156 148.425781 137.230469 159.085938 147.460938 158.019531 C 148.917969 162.527344 156.597656 168.882812 161.835938 172.402344 C 161.125 179.800781 173.503906 187.515625 171.445312 189.652344 C 170.511719 192.109375 164.707031 189.144531 165.058594 188.683594 C 160.4375 184.628906 160.324219 185.164062 155.410156 182.757812 C 151.625 180.425781 147.851562 181.804688 145.125 179.714844 C 141.390625 173.8125 142.53125 184.023438 148.617188 184.285156 C 142.386719 181.703125 153.292969 196.65625 149.988281 186 C 152.9375 182.953125 149.832031 194.53125 155.777344 194.550781 C 157.105469 199.414062 166.046875 196.261719 170.730469 201.71875 C 179.035156 200.707031 186.960938 202.945312 192.417969 209.574219 C 182.921875 190.5625 204.253906 214.066406 209.800781 211.027344 Z M 176.15625 194.992188 C 174.035156 189.144531 179.375 196.832031 176.15625 194.992188 Z M 156.3125 193.898438 C 154.964844 191.941406 158.976562 194.519531 156.3125 193.898438 Z M 157.890625 191.472656 C 159.824219 191.171875 157.296875 192.0625 157.890625 191.472656 Z M 174.785156 191.132812 C 173.71875 189.566406 176.304688 191.425781 174.785156 191.132812 Z M 152.625 188.535156 C 150.90625 184.742188 155.941406 190.492188 152.625 188.535156 Z M 154.734375 188.71875 C 154.105469 186.726562 157.152344 189.175781 154.734375 188.71875 Z M 149.308594 182.910156 C 149.964844 181.167969 150.382812 184.164062 149.308594 182.910156 Z M 207.289062 174.878906 C 206.375 172.273438 210.601562 176.148438 207.289062 174.878906 Z M 155.1875 195.855469 C 154.335938 194.625 154.769531 197.121094 155.1875 195.855469 Z M 151.386719 194.164062 C 149.828125 192.148438 149.449219 195.070312 151.386719 194.164062 Z M 153.460938 194.128906 C 152.574219 192.886719 152.574219 195.367188 153.460938 194.128906 Z M 112.484375 189.976562 C 111.597656 188.699219 111.152344 191.21875 112.484375 189.976562 Z M 152.941406 178.566406 C 151.699219 177.25 152.511719 179.929688 152.941406 178.566406 Z M 151.730469 177.722656 C 150.921875 176.535156 150.734375 178.382812 151.730469 177.722656 Z M 56.484375 175.210938 C 55.496094 172.53125 55.140625 178.007812 56.484375 175.210938 Z M 58.109375 172.898438 C 60.445312 168.753906 53.484375 175.152344 58.109375 172.898438 Z M 70.96875 165.113281 C 69.785156 159.585938 66.632812 165.851562 70.96875 165.113281 Z M 72.371094 160.933594 C 71.941406 159.570312 71.128906 162.25 72.371094 160.933594 Z M 60.292969 159.285156 C 58.535156 159.558594 60.542969 161.488281 60.292969 159.285156 Z M 193.1875 159.417969 C 193.09375 156.660156 181.980469 150.839844 190.804688 159.113281 C 191.027344 160.148438 192.652344 159.902344 193.1875 159.417969 Z M 63.8125 157.492188 C 65.355469 152.855469 59.714844 158.789062 63.8125 157.492188 Z M 150.867188 154.363281 C 149.515625 153.097656 149.515625 155.625 150.867188 154.363281 Z M 185.628906 153.828125 C 184.136719 147.03125 173.074219 153.214844 183.113281 152.976562 C 183.832031 152.800781 184.828125 155.433594 185.628906 153.828125 Z M 155.75 152.734375 C 153.714844 152.527344 154.492188 154.5 155.75 152.734375 Z M 159.855469 153.324219 C 158.617188 152.007812 159.425781 154.6875 159.855469 153.324219 Z M 153.042969 152.910156 C 153.929688 150.40625 149.40625 154.128906 153.042969 152.910156 Z M 133.402344 152.632812 C 130.5 151.515625 134.058594 153.867188 133.402344 152.632812 Z M 148.101562 152.289062 C 147.214844 151.046875 147.214844 153.527344 148.101562 152.289062 Z M 145.15625 151.257812 C 145.929688 148.964844 140.09375 150.371094 144.296875 151.578125 Z M 175.460938 150.488281 C 172.808594 135.425781 152.589844 137.742188 141.011719 139.742188 C 140.523438 141.21875 146.535156 140.808594 141.679688 142.605469 C 147.539062 143.316406 150.46875 148.996094 151.667969 142.777344 C 156.453125 143.761719 160.210938 142.511719 167.429688 145.742188 C 171.113281 145.234375 174.800781 150.433594 175.460938 150.488281 Z M 148.273438 149.867188 C 146.417969 146.992188 146.808594 152.46875 148.273438 149.867188 Z M 155.535156 149.867188 C 154.652344 148.625 154.652344 151.105469 155.535156 149.867188 Z M 136.171875 148.136719 C 134.355469 146.863281 134.355469 149.410156 136.171875 148.136719 Z M 150.175781 148.136719 C 148.140625 145.308594 148.035156 149.335938 150.175781 148.136719 Z M 134.449219 147.015625 C 139.574219 135.519531 125.910156 147.25 134.449219 147.015625 Z M 141.011719 147.101562 C 138.109375 145.980469 141.667969 148.332031 141.011719 147.101562 Z M 138.089844 146.03125 C 137.632812 143.324219 135.664062 147.457031 138.089844 146.03125 Z M 140.453125 145.121094 C 148.5 143.710938 135.800781 143.535156 140.453125 145.121094 Z M 138.050781 143.304688 C 141.648438 139.214844 132.382812 144.332031 138.050781 143.304688 Z M 138.386719 133.316406 C 138.28125 127.726562 133.707031 135.234375 138.386719 133.316406 Z M 140.945312 131.453125 C 139.816406 128.9375 138.164062 134.597656 140.945312 131.453125 Z M 140.808594 128.601562 C 146.4375 125.949219 136.050781 125.683594 140.808594 128.601562 Z M 79.113281 126.527344 C 77.351562 123.441406 77.460938 129.414062 79.113281 126.527344 Z M 101.5 126.957031 C 107.808594 119.710938 92.867188 114.121094 97.179688 121.796875 C 96.925781 115.839844 102.304688 124.714844 97.566406 125.265625 C 98.082031 126.621094 100.128906 128.1875 101.5 126.957031 Z M 79.71875 122.375 C 79.011719 119.382812 79.011719 125.371094 79.71875 122.375 Z M 134.5625 101.460938 C 135.082031 97.171875 132.457031 104.890625 134.5625 101.460938 Z M 52.71875 90.996094 C 52.113281 91.339844 53.277344 92.898438 52.71875 90.996094 Z M 52.378906 87.558594 C 51.738281 86.855469 52.726562 89.582031 52.378906 87.558594 Z M 59.058594 84.859375 C 58.175781 83.617188 58.175781 86.097656 59.058594 84.859375 Z M 88.449219 58.75 C 87.445312 56.960938 87.542969 60.554688 88.449219 58.75 Z M 113.84375 54.464844 C 113.132812 52.722656 112.082031 55.679688 113.84375 54.464844 Z M 67.703125 52.007812 C 66.820312 50.765625 66.820312 53.25 67.703125 52.007812 Z M 66.542969 46.546875 C 64.160156 44.828125 68.175781 50.035156 66.542969 46.546875 Z M 42 43.167969 C 41.746094 39.863281 39.632812 45.207031 42 43.167969 Z M 39.695312 40.746094 C 38.390625 36.496094 37.71875 41.742188 39.695312 40.746094 Z M 45.226562 39.386719 C 44.371094 37.566406 44.371094 41.207031 45.226562 39.386719 Z M 47.738281 39.351562 C 47.304688 34.859375 44.398438 39.769531 47.738281 39.351562 Z M 36.0625 37.023438 C 35.269531 34.761719 34.925781 39.65625 36.0625 37.023438 Z M 42.34375 36.46875 C 46.355469 33.390625 50.476562 28.023438 55.378906 36.792969 C 52.714844 29.597656 59.019531 33.503906 50.070312 29.183594 C 44.847656 23.203125 31.199219 28.414062 36.929688 35.066406 C 39.722656 29.003906 39.683594 37.347656 42.34375 36.46875 Z M 41.554688 35.257812 C 41.367188 29.921875 44.226562 37.203125 41.554688 35.257812 Z M 171.613281 33.679688 C 171.183594 32.316406 170.371094 34.996094 171.613281 33.679688 Z M 81.449219 32.078125 C 81.773438 25.675781 91.347656 22.394531 84.054688 21.980469 C 80.027344 20.863281 75.277344 33.746094 81.449219 32.078125 Z M 85.855469 26.765625 C 85.902344 23.835938 82.820312 28.027344 85.855469 26.765625 Z M 86.894531 20.367188 C 85.65625 17.328125 85.8125 23.371094 86.894531 20.367188 Z M 89.3125 268.46875 C 90.71875 266.378906 92.0625 270.027344 89.3125 268.46875 Z M 96.632812 266.511719 C 96.351562 263.519531 100.554688 267.148438 96.632812 266.511719 Z M 90.710938 260.535156 C 97.972656 254.320312 98.886719 261.261719 90.710938 260.535156 Z M 89.140625 258.789062 C 90.027344 257.550781 90.027344 260.03125 89.140625 258.789062 Z M 85.6875 255.417969 C 88.167969 236.640625 89.386719 265.605469 85.6875 255.417969 Z M 96.921875 257.0625 C 97.339844 255.796875 97.777344 258.292969 96.921875 257.0625 Z M 90.070312 251.160156 C 92.300781 248.015625 88.867188 254.742188 90.070312 251.160156 Z M 97.789062 250.492188 C 98.671875 249.210938 99.117188 251.730469 97.789062 250.492188 Z M 87.6875 247.019531 C 92.832031 239.871094 85.410156 225.335938 90.21875 215.535156 C 98.269531 203.480469 88.632812 198.984375 78 197.347656 C 69.679688 194.238281 61.515625 191.492188 58.664062 202.425781 C 59.289062 193.445312 71.8125 170.117188 75.472656 190.125 C 83.386719 199.644531 89.425781 173.515625 96.257812 188.410156 C 101.265625 197.0625 92.929688 206.191406 91.585938 214.894531 C 88.417969 225.105469 94.304688 237.257812 90.3125 246.175781 C 89.359375 245.675781 87.136719 249.726562 87.6875 247.019531 Z M 97.789062 247.035156 C 96.714844 245.800781 101.148438 248.269531 97.789062 247.035156 Z M 113.695312 208.324219 C 114.351562 206.585938 114.769531 209.578125 113.695312 208.324219 Z M 51.449219 207.257812 C 44.148438 207.636719 40.941406 204.863281 50.28125 206.050781 C 52.90625 206.144531 55.328125 207.726562 51.449219 207.257812 Z M 38.386719 203.246094 C 35.472656 190.765625 41.332031 204.433594 38.386719 203.246094 Z M 57.847656 203.464844 C 58.699219 202.234375 58.265625 204.730469 57.847656 203.464844 Z M 105.957031 201.144531 C 106 199.289062 108.207031 201.480469 105.957031 201.144531 Z M 50.066406 177.355469 C 51.003906 175.75 51.003906 178.964844 50.066406 177.355469 Z M 51.625 175.800781 C 52.953125 174.5625 52.511719 177.082031 51.625 175.800781 Z M 48.769531 174.878906 C 47.421875 172.921875 51.433594 175.5 48.769531 174.878906 Z M 17.5625 148.484375 C 19.375 147.210938 19.375 149.757812 17.5625 148.484375 Z M 21.023438 141.222656 C 21.90625 139.941406 22.351562 142.460938 21.023438 141.222656 Z M 22.921875 140.875 C 23.777344 139.644531 23.339844 142.140625 22.921875 140.875 Z M 28.628906 140.355469 C 29.488281 138.535156 29.484375 142.179688 28.628906 140.355469 Z M 55.085938 124.882812 C 54.257812 118.40625 60.59375 126.21875 55.085938 124.882812 Z M 146.023438 122.203125 C 146.878906 120.972656 146.441406 123.46875 146.023438 122.203125 Z M 148.480469 118.800781 C 148.636719 117.03125 150.226562 119.039062 148.480469 118.800781 Z M 149.53125 116.496094 C 150.734375 114.621094 149.746094 118.402344 149.53125 116.496094 Z M 152.617188 114.632812 C 154.957031 110.757812 155.175781 115.660156 152.617188 114.632812 Z M 138.300781 105.453125 C 141.203125 101.960938 138.050781 108.417969 138.300781 105.453125 Z M 191.21875 102.46875 C 192.386719 101.121094 192.382812 103.8125 191.21875 102.46875 Z M 215.703125 101.609375 C 223.265625 96.675781 222.792969 80.316406 215.09375 82.695312 C 214.136719 71.6875 210.183594 85.648438 210.65625 73.742188 C 206.976562 74.59375 203.546875 76.671875 201.785156 75.660156 C 197.050781 80.84375 192.148438 80.511719 183.816406 77.628906 C 173.410156 83.871094 166.890625 95.023438 158.136719 101.457031 C 157.230469 94.492188 166.296875 86.695312 169.867188 79.535156 C 173.429688 74.546875 171.820312 69.273438 174.488281 63.484375 C 179.316406 57.632812 177.679688 49.203125 184.050781 41.601562 C 190.269531 37.523438 196.183594 16.742188 195.597656 32.476562 C 187.257812 45.664062 180.230469 60.199219 177.683594 75.585938 C 173.738281 84.214844 186.992188 71.828125 191.09375 78.304688 C 198.441406 73.292969 204.015625 53.46875 214.285156 67.375 C 219.378906 77.027344 228.636719 93.128906 216.105469 101.667969 Z M 207.230469 73.101562 C 206.8125 71.835938 206.378906 74.332031 207.230469 73.101562 Z M 202 97.496094 C 202.292969 93.644531 205.039062 99.257812 202 97.496094 Z M 60.097656 92.464844 C 60.980469 91.226562 60.980469 93.707031 60.097656 92.464844 Z M 138.9375 91.429688 C 139.820312 90.1875 139.820312 92.667969 138.9375 91.429688 Z M 58.183594 88.644531 C 57.890625 86.785156 59.902344 89.441406 58.183594 88.644531 Z M 127.59375 83.058594 C 126.039062 79.835938 130.152344 84.648438 127.59375 83.058594 Z M 87.757812 76.855469 C 88.660156 71.765625 92.617188 78.210938 87.757812 76.855469 Z M 129.945312 74.484375 C 130.796875 73.253906 130.363281 75.75 129.945312 74.484375 Z M 113.695312 65.320312 C 115.019531 63.460938 115.019531 67.179688 113.695312 65.320312 Z M 135.996094 49.585938 C 136.414062 48.324219 136.851562 50.820312 135.996094 49.585938 Z M 138.9375 49.070312 C 138.34375 47.347656 142.484375 51.03125 138.9375 49.070312 Z M 111.050781 46.988281 C 111.46875 42.605469 113.96875 49.335938 111.050781 46.988281 Z M 141.703125 41.632812 C 142.554688 40.402344 142.121094 42.898438 141.703125 41.632812 Z M 196.070312 25.726562 C 196.351562 23.5625 196.351562 27.890625 196.070312 25.726562 Z M 91.730469 0.496094 C 93.335938 -0.820312 93.238281 0.953125 91.730469 0.496094 Z M 91.730469 0.496094 "/>
<path style=" stroke:none;fill-rule:nonzero;fill:rgb(0%,0%,0%);fill-opacity:1;" d="M 123.546875 283.347656 C 116.753906 281.050781 110.1875 276.582031 121.011719 281.683594 C 122.59375 282.414062 129.105469 284.742188 123.546875 283.347656 Z M 128.152344 283.453125 C 130.085938 283.152344 127.558594 284.042969 128.152344 283.453125 Z M 133.757812 280.660156 C 136.554688 272.59375 138.539062 277.582031 133.757812 280.660156 Z M 112.484375 278.847656 C 113.769531 277.546875 114.375 280.113281 112.484375 278.847656 Z M 105.535156 271.402344 C 101.542969 271.109375 105.089844 259.445312 105.75 254.523438 C 111.578125 249.09375 105.539062 275.648438 105.535156 271.402344 Z M 107.132812 261.363281 C 109.84375 247.070312 101.328125 264.539062 107.132812 261.363281 Z M 137.207031 269.691406 C 132.203125 264.714844 136.582031 256.496094 138.921875 251.605469 C 143.152344 246.648438 141.832031 237.179688 141.691406 249.460938 C 139.199219 256.019531 137.488281 264.472656 137.207031 269.691406 Z M 206.191406 247.074219 C 200.503906 242.335938 194.402344 229.1875 193.90625 225.53125 C 199.835938 225.445312 190.121094 215.34375 188.746094 214.367188 C 183.113281 206.644531 183.023438 213.019531 188.046875 219.371094 C 182.371094 211.65625 164.617188 203.050781 163.226562 199.46875 C 169.8125 206.777344 181.59375 198.71875 187.945312 206.902344 C 194.277344 214.738281 195.3125 211.34375 190.972656 203.988281 C 191.847656 200.714844 203.332031 210.589844 195.039062 208.511719 C 199.515625 220.324219 201.832031 232.109375 204.5625 244.582031 C 205.558594 244.988281 210.234375 248.734375 206.191406 247.074219 Z M 201.871094 238.285156 C 200.265625 232.296875 199.902344 242.210938 201.871094 238.285156 Z M 200.488281 234.613281 C 201.492188 231.519531 198.0625 235.476562 200.488281 234.613281 Z M 200.832031 231.839844 C 199.15625 227.722656 198.089844 235.582031 200.832031 231.839844 Z M 209.285156 247 C 214.046875 243.453125 215.734375 246.609375 209.285156 247 Z M 89.835938 239.964844 C 91.175781 234.460938 90.605469 244.519531 89.835938 239.964844 Z M 212.148438 240.003906 C 210.96875 235.726562 213.382812 241.429688 212.148438 240.003906 Z M 89.746094 234.386719 C 88.460938 226.292969 90.96875 230.664062 89.746094 234.386719 Z M 210.746094 231.589844 C 209.679688 230.023438 212.265625 231.882812 210.746094 231.589844 Z M 210.273438 230.011719 C 208.109375 226.585938 212.121094 230.453125 210.273438 230.011719 Z M 115.796875 227.8125 C 116.019531 226.480469 116.144531 229.386719 115.796875 227.8125 Z M 143.089844 227.257812 C 144.03125 223.578125 143.492188 229.773438 143.089844 227.257812 Z M 205.925781 224.207031 C 190.1875 209.128906 216.207031 231.183594 205.925781 224.207031 Z M 115.84375 225.007812 C 115.417969 220.519531 118.09375 224.34375 115.914062 225.730469 Z M 143.816406 224.730469 C 145.019531 216.273438 145.285156 226.242188 143.816406 224.730469 Z M 191.726562 223.980469 C 190.660156 222.414062 193.25 224.277344 191.726562 223.980469 Z M 116 221.90625 C 114.242188 214.863281 119.660156 220.464844 116 221.90625 Z M 144.84375 220.234375 C 145.726562 214.636719 145.421875 222.957031 144.84375 220.234375 Z M 121.90625 219.34375 C 120.148438 216.6875 124.546875 220 121.90625 219.34375 Z M 116.128906 215.78125 C 117.164062 210.617188 114.363281 190.753906 118.730469 196.953125 C 120.496094 185.855469 119.585938 198.039062 117.445312 200.984375 C 124.609375 196.425781 119.804688 214.277344 118.441406 214.472656 C 117.761719 214.980469 117.070312 217.789062 116.128906 215.78125 Z M 93.8125 202.425781 C 85.3125 196.121094 68.871094 198.222656 64.367188 190.382812 C 68.914062 186.503906 70.546875 175.988281 73.347656 188.503906 C 80.511719 203.933594 91.558594 172.511719 96.539062 190.964844 C 97.253906 193.789062 97.304688 202.199219 93.8125 202.425781 Z M 152.5 197.9375 C 146.980469 196.304688 133.472656 190.460938 144.585938 192.625 C 145.46875 193.007812 159.65625 199.363281 152.5 197.9375 Z M 141.261719 195.992188 C 140.011719 194.042969 142.605469 195.507812 141.261719 195.992188 Z M 115.328125 193.574219 C 114.175781 188.898438 108.925781 168.972656 107.335938 175.992188 C 109.175781 181.695312 107.515625 193.136719 104.082031 181.878906 C 101.632812 174.855469 98.527344 173.808594 97.011719 168.601562 C 93.472656 164.910156 90.390625 161.085938 86.332031 158.511719 C 82.1875 160.976562 76.117188 150.832031 73.46875 151.882812 C 72.433594 156.199219 60.601562 163.960938 68.394531 153.765625 C 75 147.976562 66.4375 132.226562 73.398438 135.539062 C 80.585938 129.878906 87.484375 113.820312 83.449219 108.003906 C 84.28125 102.035156 82.449219 93.4375 85.1875 90.046875 C 79.117188 87.847656 83.757812 77.164062 79.921875 76.277344 C 83.691406 73.183594 79.441406 59.578125 83.324219 71.289062 C 82.949219 78.542969 92.992188 89.195312 95.019531 90.015625 C 96.882812 88.925781 103.832031 91.75 105.570312 87.324219 C 107.277344 86.804688 113.941406 91.902344 113.328125 86.382812 C 117.324219 93.472656 114.070312 81.125 120.328125 82.167969 C 125.453125 78.867188 123.949219 96.355469 127.9375 100.980469 C 130.035156 106.472656 129.707031 108.09375 134.085938 111.128906 C 134.082031 116.683594 133.960938 120.296875 136.863281 115.289062 C 144.789062 110.21875 138.21875 123.625 132.953125 127.105469 C 132.039062 130.167969 124.59375 133.167969 131.59375 131.625 C 126.265625 138.292969 127.003906 140.320312 118.878906 143.921875 C 115.839844 144.265625 118.570312 153.117188 124.269531 151.96875 C 128.757812 154.890625 130.339844 150.136719 132.019531 156.40625 C 135.125 163.023438 144.511719 160.460938 140.632812 169.785156 C 144.148438 176.484375 123.734375 162.914062 132.640625 174.867188 C 136.078125 188.648438 126.335938 172.941406 121.28125 170.980469 C 114.632812 175.101562 125.257812 179.878906 118.84375 182.714844 C 121.039062 186.785156 115.113281 189.648438 115.328125 193.574219 Z M 107.125 185.136719 C 105.792969 183.898438 106.238281 186.417969 107.125 185.136719 Z M 118.855469 180.152344 C 119.308594 177.746094 116.335938 181.777344 118.855469 180.152344 Z M 117.621094 177.011719 C 116.847656 175.113281 115.988281 178.53125 117.621094 177.011719 Z M 102.28125 175.457031 C 100.953125 174.214844 101.394531 176.734375 102.28125 175.457031 Z M 129.945312 168.078125 C 127.226562 164.753906 127.652344 169.644531 129.945312 168.078125 Z M 138.9375 165.601562 C 135.855469 158.207031 135.15625 166.414062 138.9375 165.601562 Z M 79.113281 153.34375 C 77.179688 149.953125 77.574219 155.539062 79.113281 153.34375 Z M 84.648438 150.210938 C 83.761719 148.972656 83.761719 151.453125 84.648438 150.210938 Z M 77.574219 134.28125 C 77.917969 132.429688 75.960938 135.769531 77.574219 134.28125 Z M 79.738281 133.242188 C 78.570312 131.894531 78.570312 134.589844 79.738281 133.242188 Z M 95.113281 131.367188 C 98.816406 119.199219 88.773438 138.898438 93.21875 126.261719 C 88.253906 127.046875 91.136719 137.179688 95.113281 131.367188 Z M 102.339844 127.855469 C 113.132812 118.660156 89.238281 109.0625 95.394531 122.964844 C 96.378906 125.390625 99.050781 129.816406 102.339844 127.855469 Z M 88.945312 127.773438 C 88.308594 125.363281 87.292969 128.816406 88.945312 127.773438 Z M 113.175781 90.042969 C 111.246094 89.570312 113.316406 92.246094 113.175781 90.042969 Z M 215.550781 192.847656 C 215.117188 191.332031 216.75 194.460938 215.550781 192.847656 Z M 214.578125 191.160156 C 213.289062 188.996094 215.898438 190.046875 214.578125 191.160156 Z M 119.226562 190.351562 C 120.546875 188.738281 120.660156 190.933594 119.226562 190.351562 Z M 42.996094 187.242188 C 43.109375 185.550781 44.5625 187.898438 42.996094 187.242188 Z M 213.5625 185.136719 C 211.75 178.109375 215.191406 179.046875 213.5625 185.136719 Z M 120.78125 184.101562 C 121.664062 182.859375 121.664062 185.339844 120.78125 184.101562 Z M 35.347656 178.390625 C 26.878906 174.546875 29.914062 172.652344 36.238281 177.296875 C 40.523438 179.082031 36.449219 181.304688 35.347656 178.390625 Z M 14.144531 178.761719 C 5.355469 176.339844 7.082031 153.484375 9.777344 170.425781 C 7.058594 176.417969 25.855469 180.957031 14.144531 178.761719 Z M 212.511719 177.617188 C 209.019531 170.382812 209.515625 167.6875 213.066406 176.894531 L 213.195312 178.914062 Z M 146.039062 177.207031 C 146.578125 175.269531 147.71875 178.4375 146.039062 177.207031 Z M 155.777344 174.890625 C 149.421875 171.632812 157.132812 169.609375 155.777344 174.890625 Z M 142.046875 169.402344 C 142.878906 167.757812 146.976562 159.515625 147.746094 166.808594 C 145.644531 162.355469 145.382812 172.09375 142.046875 169.402344 Z M 150.746094 169.25 C 151.550781 167.957031 151.585938 170.304688 150.746094 169.25 Z M 206.710938 168.863281 C 207.707031 168.207031 207.519531 170.050781 206.710938 168.863281 Z M 146.890625 168.539062 C 149.375 167.492188 145.878906 169.722656 146.890625 168.539062 Z M 202.585938 168.234375 C 199.054688 165.207031 210.324219 169.652344 202.585938 168.234375 Z M 198.84375 167.195312 C 196.332031 161.425781 188.269531 151.457031 186.25 151.347656 C 190.527344 152.125 203.777344 168.304688 198.84375 167.195312 Z M 62.75 161.320312 C 65.882812 157.421875 63.167969 163.984375 62.75 161.320312 Z M 68.222656 159.546875 C 69.460938 158.230469 68.652344 160.910156 68.222656 159.546875 Z M 2.160156 157.941406 C -0.714844 152.648438 4.382812 142.566406 2.6875 154.578125 C 1.621094 155.289062 4.726562 161.042969 2.160156 157.941406 Z M 135.476562 158.53125 C 136.132812 156.789062 136.550781 159.785156 135.476562 158.53125 Z M 134.109375 156.96875 C 133.894531 153.164062 137.265625 159.109375 134.109375 156.96875 Z M 182.160156 149.964844 C 178.003906 147.800781 186.675781 150.59375 182.160156 149.964844 Z M 177.132812 149.152344 C 177.457031 146.996094 181.371094 150.617188 177.132812 149.152344 Z M 175.800781 146.496094 C 170.582031 141.351562 177 143.574219 177.15625 147.390625 L 176.753906 147.414062 Z M 11.179688 144.007812 C 14.25 139.488281 19.917969 141.878906 12.148438 144.171875 Z M 167.636719 139.601562 C 163.167969 134.484375 145.234375 140.585938 146.601562 136.957031 C 152.984375 136.179688 164.949219 134.742188 167.636719 139.601562 Z M 135.03125 139.113281 C 137.503906 138.632812 135.988281 140.359375 135.03125 139.113281 Z M 17.21875 138.710938 C 22.804688 132.945312 23.140625 138.269531 17.21875 138.710938 Z M 129.414062 137.742188 C 129.246094 135.828125 131.222656 139.089844 129.414062 137.742188 Z M 24.480469 135.417969 C 29.417969 132.628906 32.96875 135.199219 25.257812 135.574219 Z M 35.199219 134.785156 C 39.457031 123.84375 62.832031 122.242188 53.984375 108.027344 C 55.472656 112.75 69.734375 122.761719 55.441406 119.882812 C 48 123.871094 42.128906 130.949219 35.199219 134.785156 Z M 165.042969 134.652344 C 166.769531 133.398438 165.960938 135.984375 165.042969 134.652344 Z M 168.28125 132.910156 C 171.773438 130.582031 167.144531 135.40625 168.28125 132.910156 Z M 171.441406 131.746094 C 175.316406 129.164062 175.992188 130.71875 171.441406 131.746094 Z M 182.238281 126.816406 C 189.3125 120.925781 195.511719 123.070312 184.160156 126.535156 C 186.28125 127.125 180.386719 128.015625 182.238281 126.816406 Z M 195.53125 122.320312 C 198.429688 119.640625 202.816406 123.820312 195.53125 122.320312 Z M 207.75 116.644531 C 209.796875 108.746094 210.253906 115.285156 207.75 116.644531 Z M 74.273438 115.785156 C 74.097656 111.128906 76.066406 120.441406 74.273438 115.785156 Z M 76.347656 115.328125 C 77.109375 111.367188 75.003906 100.300781 79.601562 96.375 C 81.183594 88.582031 81.003906 104.964844 80.636719 108.804688 C 76.570312 109.226562 81.132812 115.585938 76.347656 115.328125 Z M 142.074219 113.355469 C 142.296875 112.023438 142.425781 114.929688 142.074219 113.355469 Z M 74.792969 111.484375 C 75.210938 110.21875 75.644531 112.714844 74.792969 111.484375 Z M 78.421875 91.773438 C 79.753906 90.535156 79.308594 93.054688 78.421875 91.773438 Z M 53.757812 87.394531 C 52.640625 85.15625 55 87.480469 53.757812 87.394531 Z M 53.566406 84.511719 C 52.128906 73.277344 40.191406 66.042969 34.238281 56.65625 C 39.144531 64.5625 41.546875 60.398438 42.691406 58.300781 C 42.261719 64.125 46.035156 60.519531 46.949219 60.972656 C 47.128906 56.988281 52.070312 64.589844 49.039062 58.917969 C 50.09375 59.351562 47.5 51.289062 53.0625 50.609375 C 59.019531 54.757812 56.605469 56.070312 54.328125 59.195312 C 54.554688 61.160156 58.609375 70.285156 54.5625 74.585938 C 56.507812 78.242188 55.625 83.917969 53.566406 84.511719 Z M 113.695312 84.359375 C 114.351562 82.617188 114.769531 85.613281 113.695312 84.359375 Z M 174.382812 81.765625 C 177.183594 71.574219 175.726562 90.191406 174.332031 82.605469 L 174.378906 81.800781 Z M 217.273438 79.070312 C 214.742188 73.847656 213.058594 72.222656 215.804688 69.375 C 216.402344 69.628906 220.074219 82.773438 217.273438 79.070312 Z M 190.546875 79.085938 C 193.222656 78.550781 191.058594 79.644531 190.546875 79.085938 Z M 186.742188 78.210938 C 184.042969 75.625 190.703125 79.65625 186.742188 78.210938 Z M 121.371094 77.179688 C 122.558594 69.703125 115.847656 59.996094 123.726562 66.867188 C 124.375 65.988281 123.601562 77.929688 121.371094 77.179688 Z M 175.589844 76.535156 C 174.269531 70.480469 181.023438 68.414062 176.117188 76.871094 L 175.746094 76.894531 Z M 195.484375 75.867188 C 198.941406 68.0625 200.0625 72.453125 195.484375 75.867188 Z M 58.855469 73.707031 C 60.882812 67.988281 59.507812 75.953125 58.855469 73.707031 Z M 200.898438 71 C 202.066406 69.652344 202.066406 72.347656 200.898438 71 Z M 199.109375 69.808594 C 200.742188 68.320312 198.710938 71.679688 199.109375 69.808594 Z M 58.019531 69.46875 C 58.957031 67.863281 58.957031 71.078125 58.019531 69.46875 Z M 199.808594 68.734375 C 202.34375 62.59375 205.71875 65.574219 199.808594 68.734375 Z M 60.5625 67.035156 C 61.285156 63.972656 64.445312 67.949219 60.5625 67.035156 Z M 80.714844 63.679688 C 79.363281 53.746094 83.703125 66.128906 80.714844 63.679688 Z M 207.902344 63.949219 C 199.914062 60.679688 212.664062 64.5625 207.902344 63.949219 Z M 57.550781 63.597656 C 58.402344 59.332031 59.320312 65.050781 57.550781 63.597656 Z M 179.738281 62.921875 C 180.394531 61.179688 180.8125 64.175781 179.738281 62.921875 Z M 60.214844 60.8125 C 60.261719 58.1875 62.628906 62.71875 60.214844 60.8125 Z M 56.960938 60.453125 C 56.40625 57.636719 60.066406 62.226562 56.960938 60.453125 Z M 180.65625 60.738281 C 181.65625 50.984375 183.964844 56.8125 180.65625 60.738281 Z M 80.742188 59.054688 C 74.160156 50.628906 70.3125 38.652344 61.957031 32.296875 C 55.96875 30.476562 48.496094 28.046875 59.96875 29.335938 C 73.554688 28.433594 70.5625 55.976562 82.488281 52.355469 C 80.863281 47.867188 75.007812 34.097656 77.535156 34.648438 C 77.203125 43.234375 87.554688 45.117188 83.386719 48.296875 C 88.585938 53.917969 82.402344 55.117188 80.742188 59.054688 Z M 127.179688 56.457031 C 129.984375 50.050781 139.828125 43.371094 129.949219 53.328125 C 129.351562 53.003906 127.59375 58.023438 127.179688 56.457031 Z M 35.199219 54.429688 C 36.527344 53.1875 36.085938 55.710938 35.199219 54.429688 Z M 45.917969 54.03125 C 47.628906 50.898438 49.617188 56.910156 45.917969 54.03125 Z M 32.433594 53.714844 C 33.429688 53.058594 33.238281 54.902344 32.433594 53.714844 Z M 115.207031 52.539062 C 116.476562 48.421875 118.890625 54.339844 115.207031 52.539062 Z M 183.3125 52.050781 C 185.949219 44.253906 190.179688 36.273438 195.582031 29.886719 C 193.300781 36.601562 186.070312 48.867188 183.3125 52.050781 Z M 30.078125 48.480469 C 27.539062 40.785156 32.703125 49.492188 30.078125 48.480469 Z M 32.777344 47.886719 C 33.640625 44.109375 35.175781 48.824219 32.777344 47.886719 Z M 115.65625 46.886719 C 113.238281 41.230469 129.363281 16.398438 120.898438 32.125 C 118.234375 35.9375 118.664062 45.683594 115.65625 46.886719 Z M 135.476562 45.484375 C 140.972656 35.210938 143.382812 38.824219 135.476562 45.484375 Z M 59.746094 44.914062 C 59.292969 43.25 62.058594 45.992188 59.746094 44.914062 Z M 29.898438 44.171875 C 32.871094 40.332031 37.667969 19.390625 34.214844 36.65625 C 33.09375 38.738281 33.101562 44.347656 29.898438 44.171875 Z M 88.453125 39.910156 C 88.359375 36.457031 90.992188 41.628906 88.453125 39.910156 Z M 86.261719 37.945312 C 86.109375 32.457031 89.59375 25.886719 87.90625 36.296875 L 86.902344 37.984375 Z M 141.355469 37.894531 C 142.53125 36.214844 142.664062 38.734375 141.355469 37.894531 Z M 143.257812 36.449219 C 144.984375 35.191406 144.175781 37.78125 143.257812 36.449219 Z M 60.945312 35.386719 C 60.96875 33.367188 63.285156 36.824219 60.945312 35.386719 Z M 147.925781 34.890625 C 155.792969 33.097656 143.789062 36.917969 147.925781 34.890625 Z M 152.511719 32.40625 C 155.128906 31.183594 151.167969 34.246094 152.511719 32.40625 Z M 174.265625 32.039062 C 172.617188 25.828125 164.046875 29.253906 170.773438 23.09375 C 174.839844 16.839844 169.796875 -1.054688 175.789062 14.515625 C 184.601562 20.011719 186.414062 31.800781 174.265625 32.039062 Z M 177.078125 24.949219 C 175.878906 21.378906 176.84375 29.496094 177.078125 24.949219 Z M 180.914062 25.871094 C 180.914062 22.203125 178.664062 27.683594 180.914062 25.871094 Z M 178.855469 22.933594 C 177.292969 22.273438 178.746094 24.625 178.855469 22.933594 Z M 174.359375 21.234375 C 174.773438 18.605469 171.800781 25.84375 174.359375 21.234375 Z M 178.007812 20.714844 C 177.84375 13.902344 176.0625 24.039062 178.007812 20.714844 Z M 158.007812 28.800781 C 164.890625 25.953125 169.117188 29.59375 158.007812 28.800781 Z M 50.933594 28.492188 C 51.363281 27.128906 52.171875 29.8125 50.933594 28.492188 Z M 36.429688 27.699219 C 37.644531 26.125 35.992188 29.140625 36.429688 27.699219 Z M 88.449219 27.4375 C 89.445312 26.777344 89.257812 28.625 88.449219 27.4375 Z M 78.105469 26.5625 C 78.328125 25.230469 78.457031 28.136719 78.105469 26.5625 Z M 124.765625 23.585938 C 125.109375 20.601562 126.082031 24.269531 124.765625 23.585938 Z M 195.300781 20.886719 C 195.546875 18.480469 196.089844 23.292969 195.300781 20.886719 Z M 82.980469 19.941406 C 87.800781 12.019531 82.320312 25.0625 82.980469 19.941406 Z M 85 15.460938 C 85.898438 11.164062 85.449219 18.519531 85 15.460938 Z M 86.035156 11.636719 C 87.046875 9.109375 86.300781 13.449219 86.035156 11.636719 Z M 119.746094 11.550781 C 120.164062 10.285156 120.597656 12.78125 119.746094 11.550781 Z M 176.601562 9.265625 C 174.511719 6.191406 180.460938 12.339844 176.601562 9.265625 Z M 109.027344 5.671875 C 110.039062 4.449219 113.035156 6.433594 109.027344 5.671875 Z M 109.027344 5.671875 "/>
</g>
</svg>
