<?xml version="1.0" encoding="UTF-8"?>
<!-- Created by grConvert v0.1-0 -->
<svg xmlns="http://www.w3.org/2000/svg" xmlns:xlink="http://www.w3.org/1999/xlink" width="258pt" height="144pt" viewBox="0 0 258 144" version="1.1">
<g id="surface11">
<path style="fill-rule:nonzero;fill:rgb(100%,100%,100%);fill-opacity:1;stroke-width:0.347251;stroke-linecap:butt;stroke-linejoin:miter;stroke:rgb(0%,0%,0%);stroke-opacity:1;stroke-miterlimit:4;" d="M 92.466655 152.892501 C 92.466655 152.892501 93.327999 153.005432 93.81418 153.154732 C 94.302275 153.305946 95.425851 153.977794 96.024963 154.762574 C 96.624076 155.549269 97.749565 156.184749 98.310396 156.445066 C 98.873141 156.707298 98.873141 157.754309 98.834859 158.38979 C 98.796577 159.027184 98.009883 160.820694 97.674916 161.270507 C 97.33612 161.72032 95.950313 165.496835 95.199987 166.505565 C 94.451575 167.516208 91.716329 172.638334 91.042566 173.536046 C 90.368804 174.433758 88.420252 174.133245 87.145463 175.555419 C 85.872588 176.977594 84.2992 176.229182 82.350648 176.564149 C 80.807885 176.832123 79.242153 176.378481 79.242153 176.378481 M 61.550147 164.576154 C 60.954862 163.852625 60.908924 162.943429 62.493797 161.620787 C 64.842395 159.452114 69.438144 155.436337 71.335015 153.89166 C 73.235714 152.345069 78.329128 148.803988 80.379127 147.70721 C 82.574598 146.013233 82.875111 145.56342 85.173942 144.240778 C 87.870906 142.322852 92.740371 140.07953 93.789297 139.903433 C 94.840137 139.72925 96.737008 139.331117 98.886539 139.779016 C 101.032243 140.228829 104.979113 140.278596 105.779206 140.303479 C 106.577385 140.328362 110.773087 141.874953 113.596381 142.223319 C 116.417762 142.571685 122.711315 145.463887 126.185403 145.662953 C 129.655662 145.863933 134.825641 149.4031 136.948375 150.101746 C 139.073024 150.800392 144.591368 154.938671 145.76471 155.585636 C 146.939966 156.234516 150.936602 157.80599 152.460224 158.052909 C 153.981932 158.303655 155.480671 158.577371 156.529596 158.577371 C 157.578522 158.577371 158.478148 158.776438 160.275486 158.152442 C 162.074738 157.53036 161.624925 157.729426 162.999247 157.45571 C 164.373569 157.181994 164.448219 157.80599 164.597519 158.303655 C 164.746818 158.801321 165.347845 159.947865 165.171748 160.671394 C 164.997565 161.394923 164.771702 162.267752 164.721935 162.889834 C 164.672169 163.51383 164.398453 163.837312 164.471188 164.660374 C 164.547752 165.483436 165.022449 167.328627 164.647285 167.902856 C 164.272122 168.475171 163.797426 169.348 163.44906 169.621716 C 163.09878 169.897346 161.823991 170.695525 161.349295 170.867794 C 160.874599 171.043891 160.600883 171.292723 160.35205 171.292723 C 160.103217 171.292723 159.027494 171.166393 158.154665 171.218074 C 157.278009 171.26784 154.605928 171.665972 153.407703 172.140669 C 152.209478 172.613451 151.585482 172.864198 150.410226 173.237447 C 149.236884 173.610696 149.187117 173.859529 147.462515 174.483525 C 145.739827 175.10752 143.268726 174.709388 141.695338 175.25682 C 140.120035 175.804252 137.049823 176.502898 135.874566 177.027361 C 134.701224 177.549909 131.303701 178.099255 130.580172 178.348088 C 129.856643 178.596921 123.936338 179.842999 123.163043 180.043979 C 122.385919 180.243045 122.711315 180.116715 120.314865 180.243045 C 117.918414 180.367461 117.466687 180.267928 116.618742 180.466994 C 115.768883 180.666061 114.270144 180.491878 113.544701 180.466994 C 112.821172 180.442111 106.403202 180.191364 104.5293 179.793232 C 102.655398 179.3951 102.605632 179.270683 100.534578 179.32045 C 98.46161 179.370216 92.491539 179.444866 91.591913 179.32045 C 90.692287 179.196033 85.947238 178.671571 83.675204 178.149022 C 81.401256 177.624559 82.000368 177.475259 81.751535 177.375726 C 81.500789 177.276193 80.379127 176.627314 79.029688 176.303832 C 77.680249 175.980349 74.282726 175.132404 71.335015 173.33698 C 68.389218 171.541556 66.415783 170.594078 65.167792 169.820782 C 63.9198 169.049401 59.871483 166.057666 60.097346 165.435584 C 60.32321 164.809674 60.889783 164.105286 61.240063 164.130169 M 67.315409 159.199453 C 67.064663 159.37555 66.967044 159.5995 66.967044 159.5995 M 65.642488 160.472328 C 65.816671 160.820694 65.891321 160.996791 65.891321 160.971908 " transform="matrix(2.040779,0,0,2.040779,-122.266474,-263.683811)"/>
<path style="fill-rule:nonzero;fill:rgb(100%,0%,0%);fill-opacity:1;stroke-width:0.347251;stroke-linecap:butt;stroke-linejoin:miter;stroke:rgb(100%,0%,0%);stroke-opacity:1;stroke-miterlimit:4;" d="M 152.45831 158.052909 C 153.983846 158.303655 155.480671 158.577371 156.53151 158.577371 C 157.580436 158.577371 158.478148 158.776438 160.275486 158.154356 C 162.074738 157.53036 161.624925 157.729426 162.999247 157.45571 C 164.373569 157.181994 164.448219 157.80599 164.597519 158.303655 C 164.748733 158.801321 165.347845 159.947865 165.171748 160.671394 C 164.997565 161.394923 164.773616 162.267752 164.721935 162.889834 C 164.672169 163.51383 164.398453 163.839226 164.473102 164.660374 C 164.547752 165.483436 162.949481 165.757152 162.099621 166.455798 C 161.249762 167.154444 160.951162 167.751642 160.15107 166.555331 C 158.853311 164.660374 157.454106 164.859441 157.354573 164.013409 C 157.255039 163.165464 155.406021 161.51934 155.157188 161.368126 C 154.906441 161.22074 152.010411 159.624383 152.45831 158.052909 Z M 152.45831 158.052909 " transform="matrix(2.040779,0,0,2.040779,-122.266474,-263.683811)"/>
<path style="fill:none;stroke-width:0.347251;stroke-linecap:butt;stroke-linejoin:miter;stroke:rgb(0%,0%,0%);stroke-opacity:1;stroke-miterlimit:4;" d="M 92.466655 152.892501 C 92.466655 152.892501 93.327999 153.005432 93.81418 153.154732 C 94.302275 153.305946 95.425851 153.977794 96.024963 154.762574 C 96.624076 155.549269 97.749565 156.184749 98.310396 156.445066 C 98.873141 156.707298 98.873141 157.754309 98.834859 158.38979 C 98.796577 159.027184 98.009883 160.820694 97.674916 161.270507 C 97.33612 161.72032 95.950313 165.496835 95.199987 166.505565 C 94.451575 167.516208 91.716329 172.638334 91.042566 173.536046 C 90.368804 174.433758 88.420252 174.133245 87.145463 175.555419 C 85.872588 176.977594 84.2992 176.229182 82.350648 176.564149 C 80.807885 176.832123 79.242153 176.378481 79.242153 176.378481 M 61.550147 164.576154 C 60.954862 163.852625 60.908924 162.943429 62.493797 161.620787 C 64.842395 159.452114 69.438144 155.436337 71.335015 153.89166 C 73.235714 152.345069 78.329128 148.803988 80.379127 147.70721 C 82.574598 146.013233 82.875111 145.56342 85.173942 144.240778 C 87.870906 142.322852 92.740371 140.07953 93.789297 139.903433 C 94.840137 139.72925 96.737008 139.331117 98.886539 139.779016 C 101.032243 140.228829 104.979113 140.278596 105.779206 140.303479 C 106.577385 140.328362 110.773087 141.874953 113.596381 142.223319 C 116.417762 142.571685 122.711315 145.463887 126.185403 145.662953 C 129.655662 145.863933 134.825641 149.4031 136.948375 150.101746 C 139.073024 150.800392 144.591368 154.938671 145.76471 155.585636 C 146.939966 156.234516 150.936602 157.80599 152.460224 158.052909 C 153.981932 158.303655 155.480671 158.577371 156.529596 158.577371 C 157.578522 158.577371 158.478148 158.776438 160.275486 158.152442 C 162.074738 157.53036 161.624925 157.729426 162.999247 157.45571 C 164.373569 157.181994 164.448219 157.80599 164.597519 158.303655 C 164.746818 158.801321 165.347845 159.947865 165.171748 160.671394 C 164.997565 161.394923 164.771702 162.267752 164.721935 162.889834 C 164.672169 163.51383 164.398453 163.837312 164.471188 164.660374 C 164.547752 165.483436 165.022449 167.328627 164.647285 167.902856 C 164.272122 168.475171 163.797426 169.348 163.44906 169.621716 C 163.09878 169.897346 161.823991 170.695525 161.349295 170.867794 C 160.874599 171.043891 160.600883 171.292723 160.35205 171.292723 C 160.103217 171.292723 159.027494 171.166393 158.154665 171.218074 C 157.278009 171.26784 154.605928 171.665972 153.407703 172.140669 C 152.209478 172.613451 151.585482 172.864198 150.410226 173.237447 C 149.236884 173.610696 149.187117 173.859529 147.462515 174.483525 C 145.739827 175.10752 143.268726 174.709388 141.695338 175.25682 C 140.120035 175.804252 137.049823 176.502898 135.874566 177.027361 C 134.701224 177.549909 131.303701 178.099255 130.580172 178.348088 C 129.856643 178.596921 123.936338 179.842999 123.163043 180.043979 C 122.385919 180.243045 122.711315 180.116715 120.314865 180.243045 C 117.918414 180.367461 117.466687 180.267928 116.618742 180.466994 C 115.768883 180.666061 114.270144 180.491878 113.544701 180.466994 C 112.821172 180.442111 106.403202 180.191364 104.5293 179.793232 C 102.655398 179.3951 102.605632 179.270683 100.534578 179.32045 C 98.46161 179.370216 92.491539 179.444866 91.591913 179.32045 C 90.692287 179.196033 85.947238 178.671571 83.675204 178.149022 C 81.401256 177.624559 82.000368 177.475259 81.751535 177.375726 C 81.500789 177.276193 80.379127 176.627314 79.029688 176.303832 C 77.680249 175.980349 74.282726 175.132404 71.335015 173.33698 C 68.389218 171.541556 66.415783 170.594078 65.167792 169.820782 C 63.9198 169.049401 59.871483 166.057666 60.097346 165.435584 C 60.32321 164.809674 60.889783 164.105286 61.240063 164.130169 M 67.315409 159.199453 C 67.064663 159.37555 66.967044 159.5995 66.967044 159.5995 M 65.642488 160.472328 C 65.816671 160.820694 65.891321 160.996791 65.891321 160.971908 " transform="matrix(2.040779,0,0,2.040779,-122.266474,-263.683811)"/>
<path style="fill-rule:nonzero;fill:rgb(100%,100%,100%);fill-opacity:1;stroke-width:0.347251;stroke-linecap:butt;stroke-linejoin:miter;stroke:rgb(0%,0%,0%);stroke-opacity:1;stroke-miterlimit:4;" d="M 62.981892 165.720785 C 62.570361 165.487265 61.567374 164.794361 61.240063 164.130169 C 60.889783 164.105286 60.32321 164.809674 60.097346 165.43367 C 59.871483 166.057666 63.9198 169.049401 65.167792 169.820782 C 66.415783 170.594078 68.389218 171.541556 71.335015 173.33698 C 72.186788 173.735112 72.634687 172.638334 73.0845 171.989455 C 73.534313 171.34249 74.433939 169.397767 73.534313 168.850335 C 72.634687 168.300988 70.787583 167.602343 69.83819 167.35351 C 68.888798 167.102763 67.190993 166.505565 65.791788 165.408787 C 64.494029 164.111028 62.346411 161.919386 61.630539 162.489787 C 60.960605 163.362616 61.096505 164.02298 61.550147 164.576154 C 61.986561 165.104445 62.717746 165.535117 63.320687 165.956219 C 63.581005 166.206965 63.749445 166.300756 64.044216 166.557245 C 64.11121 166.628067 65.820499 167.910512 66.691414 168.850335 C 69.717602 171.899492 68.737584 171.49179 71.486229 172.638334 " transform="matrix(2.040779,0,0,2.040779,-122.266474,-263.683811)"/>
<path style="fill-rule:nonzero;fill:rgb(100%,100%,100%);fill-opacity:1;stroke-width:0.347251;stroke-linecap:butt;stroke-linejoin:miter;stroke:rgb(0%,0%,0%);stroke-opacity:1;stroke-miterlimit:4;" d="M 70.100422 160.372795 C 70.550235 161.381525 71.335015 163.065931 72.684454 163.402812 C 74.033893 163.737779 74.144911 164.29861 76.170026 163.626761 C 78.193228 162.952999 78.080296 162.952999 78.979922 161.494456 C 79.877634 160.035914 79.764702 159.251134 79.653684 158.129472 C 79.540752 157.005897 78.193228 155.323405 77.067738 154.988438 C 75.944163 154.651557 74.257842 154.538625 72.684454 154.875506 C 71.111065 155.212387 70.887116 156.223031 70.550235 156.783862 C 70.213354 157.344692 69.650609 159.362151 70.100422 160.372795 Z M 70.100422 160.372795 " transform="matrix(2.040779,0,0,2.040779,-122.266474,-263.683811)"/>
<path style="fill-rule:nonzero;fill:rgb(0%,0%,0%);fill-opacity:1;stroke-width:0.347251;stroke-linecap:butt;stroke-linejoin:miter;stroke:rgb(0%,0%,0%);stroke-opacity:1;stroke-miterlimit:4;" d="M 74.483706 156.334049 C 73.247199 156.445066 72.684454 156.334049 72.123623 157.118829 C 71.562793 157.905523 71.237396 160.770927 71.974324 161.756688 C 72.496872 162.093569 72.984967 162.392168 73.697012 162.392168 C 74.409056 162.392168 75.49435 162.317519 75.982445 162.093569 C 76.468625 161.867706 77.142388 161.944269 77.555833 161.381525 C 77.967364 160.820694 78.154946 160.522095 78.116664 159.662665 C 78.080296 158.801321 78.080296 158.204122 77.705133 157.679659 C 77.329969 157.157111 77.067738 156.445066 76.355694 156.259399 C 75.645563 156.071817 75.720213 156.223031 74.483706 156.334049 Z M 74.483706 156.334049 " transform="matrix(2.040779,0,0,2.040779,-122.266474,-263.683811)"/>
<path style="fill-rule:nonzero;fill:rgb(100%,100%,100%);fill-opacity:1;stroke-width:0.347251;stroke-linecap:round;stroke-linejoin:round;stroke:rgb(0%,0%,0%);stroke-opacity:1;stroke-miterlimit:4;" d="M 116.235922 149.671074 C 115.862673 149.672988 115.479854 149.707442 115.093206 149.789748 C 113.33415 150.162997 108.012958 152.184285 106.703715 153.118364 C 105.390644 154.052444 104.043119 155.884236 103.482288 156.82023 C 102.919544 157.754309 101.158574 159.737315 100.371879 160.635027 C 99.585185 161.532738 97.785933 163.701411 97.26147 164.37326 C 96.737008 165.047022 96.77529 166.019384 96.77529 166.467283 C 96.77529 166.917096 96.737008 167.328627 97.186821 168.56322 C 97.636634 169.795899 97.973515 170.994124 98.53626 171.068774 C 99.09709 171.14151 100.109648 171.218074 101.606473 171.068774 C 103.107125 170.91756 106.778365 170.544311 107.639709 170.433293 C 108.501053 170.320362 109.513611 170.544311 110.298391 170.019848 C 111.085085 169.4973 112.884337 168.56322 113.971545 167.477926 C 115.056838 166.394547 117.380553 164.37326 117.943298 163.328162 C 118.504128 162.281151 120.152167 159.251134 120.37803 158.16584 C 120.60198 157.082461 121.013511 154.500343 121.013511 154.127094 C 121.013511 153.753845 120.45268 150.76211 119.514772 150.386947 C 118.783587 150.096004 117.571963 149.667246 116.235922 149.671074 Z M 116.235922 149.671074 " transform="matrix(2.040779,0,0,2.040779,-122.266474,-263.683811)"/>
<path style="fill-rule:nonzero;fill:rgb(100%,100%,100%);fill-opacity:1;stroke-width:0.347251;stroke-linecap:butt;stroke-linejoin:miter;stroke:rgb(0%,0%,0%);stroke-opacity:1;stroke-miterlimit:4;" d="M 115.556418 129.381637 C 115.231021 129.379723 114.704644 129.659181 114.494093 129.758714 C 114.021311 129.982663 113.320751 130.331029 112.821172 130.581776 C 112.321592 130.828695 111.92346 130.979908 111.173134 131.502457 C 110.424721 132.02692 109.224582 133.098815 108.702033 133.272998 C 108.175656 133.447181 108.351753 133.447181 108.225423 133.148581 C 108.101007 132.849982 108.101007 132.649002 108.225423 131.577107 C 108.351753 130.505212 107.877057 131.278508 107.076964 131.728321 C 106.276871 132.17622 106.202221 132.425052 105.453809 133.123698 C 104.703483 133.82043 104.30535 133.919963 103.780888 134.071176 C 103.254511 134.220476 103.055445 133.921877 102.906145 133.223231 C 102.865949 133.031821 103.132009 132.264268 102.856378 132.375286 C 102.129021 132.664315 100.379536 134.509505 99.908668 135.068421 C 99.259789 135.841717 98.385046 136.065666 98.335279 135.94125 C 98.285513 135.816834 98.136213 135.742184 98.034766 135.742184 C 97.935233 135.742184 96.98584 136.538449 96.637474 136.812165 C 96.287195 137.087795 92.740371 140.07953 93.789297 139.903433 C 94.840137 139.72925 96.737008 139.331117 98.886539 139.779016 C 101.032243 140.228829 104.979113 140.278596 105.779206 140.303479 C 106.577385 140.328362 110.773087 141.874953 113.596381 142.223319 C 116.417762 142.571685 122.711315 145.463887 126.183489 145.662953 C 129.655662 145.863933 134.825641 149.4031 136.948375 150.101746 C 139.07111 150.800392 144.591368 154.938671 145.76471 155.585636 C 146.580116 156.035449 148.764101 156.933161 150.5289 157.522703 C 151.302195 157.779193 150.586323 157.107344 150.934688 156.931247 C 151.284968 156.758978 152.684174 156.931247 153.357936 156.95613 C 154.031699 156.982928 155.955367 156.707298 156.654013 156.408698 C 157.354573 156.110099 157.054059 154.165376 157.078942 153.591146 C 157.092341 153.294461 157.394769 152.090494 157.228242 150.922894 C 157.075114 149.835686 156.453032 148.782933 156.40518 148.505388 C 156.355413 148.222102 155.836693 147.09087 155.157188 146.038116 C 154.458543 144.958565 153.597198 143.959406 153.457469 143.695261 C 153.183753 143.170798 150.735622 140.950444 150.285809 140.651845 C 149.835996 140.353246 146.915083 138.358756 146.438472 138.134806 C 145.96569 137.910857 145.215364 137.261978 143.592209 136.863845 C 142.91079 136.695405 142.24277 136.354695 141.519241 136.190083 C 140.52391 135.966133 139.515181 135.946992 139.095993 135.989103 C 138.372464 136.065666 138.196367 135.989103 137.773352 135.94125 C 137.348422 135.891484 137.472838 135.816834 136.923492 135.916367 C 136.374146 136.013986 136.148282 136.190083 135.700384 136.364266 C 135.250571 136.538449 135.04959 136.463799 134.574894 136.488682 C 134.102112 136.513565 134.052345 136.1652 133.851365 136.040783 C 133.652299 135.916367 133.252252 136.013986 132.379424 136.040783 C 131.504681 136.065666 131.780311 135.989103 131.552533 135.59097 C 131.328584 135.192838 131.278817 134.842558 131.278817 134.842558 C 131.278817 134.842558 130.903654 134.769822 130.404075 134.794705 C 129.904495 134.819589 129.755196 134.643492 129.456596 134.396573 C 129.156083 134.143912 129.230733 134.120943 128.905336 133.496947 C 128.581854 132.874865 128.807717 133.173465 128.380873 133.123698 C 127.957858 133.073932 127.808558 133.148581 126.859166 133.148581 C 125.909773 133.148581 126.434236 132.974398 126.133722 132.624119 C 125.835123 132.275753 125.88489 132.151336 125.88489 132.151336 C 125.88489 132.151336 125.410193 132.300636 125.03503 132.375286 C 124.659867 132.449936 124.361268 132.673885 123.710475 132.574352 C 123.061595 132.474819 123.335311 132.126453 123.335311 132.126453 L 123.136245 131.502457 C 123.136245 131.502457 122.338066 131.802971 121.913137 131.950356 C 121.488207 132.10157 121.063277 132.17622 120.814444 132.10157 C 120.565612 132.02692 120.489048 131.626874 120.215332 130.754045 C 119.941616 129.88313 119.641103 130.10708 119.216173 130.206613 C 118.791243 130.306146 118.641943 130.405679 118.241897 130.606659 C 117.841851 130.803811 116.442645 131.303391 116.218696 131.278508 C 115.994746 131.253624 115.644466 131.253624 115.694233 130.606659 C 115.717202 130.30806 115.958378 129.596016 115.743999 129.433317 C 115.696147 129.39695 115.631068 129.381637 115.556418 129.381637 Z M 115.556418 129.381637 " transform="matrix(2.040779,0,0,2.040779,-122.266474,-263.683811)"/>
<path style="fill-rule:nonzero;fill:rgb(100%,100%,100%);fill-opacity:1;stroke-width:0.347251;stroke-linecap:butt;stroke-linejoin:miter;stroke:rgb(0%,0%,0%);stroke-opacity:1;stroke-miterlimit:4;" d="M 125.546094 144.06851 C 125.622658 143.469397 126.185403 142.684617 126.596934 142.087418 C 127.008465 141.486392 128.394272 140.515944 129.293898 139.842182 C 130.19161 139.168419 130.342824 138.908102 131.353467 137.897458 C 132.366025 136.888729 132.50384 137.353854 132.750759 136.737515 C 132.262664 136.963378 131.278817 137.673509 130.754355 138.01039 C 130.229892 138.347271 129.893011 138.571221 129.219248 139.095683 C 128.543572 139.618232 127.833441 139.916831 127.270697 140.515944 C 126.707952 141.113143 126.296421 141.226074 125.95954 141.450024 C 125.622658 141.673973 124.309587 142.833916 123.748757 143.281815 C 123.187926 143.731628 122.962062 143.76991 122.661549 143.394747 C 122.36295 143.021498 122.92378 142.609967 123.335311 142.010854 C 123.748757 141.411742 124.309587 140.925561 125.023546 140.179063 C 125.733676 139.43065 125.697308 139.541668 126.596934 138.682238 C 127.494646 137.822808 127.569296 138.046758 128.769435 136.925096 C 129.112059 136.53462 129.822189 136.017814 129.76668 135.8666 C 129.272843 136.103948 128.731153 136.513565 127.64586 137.15096 C 126.558652 137.78644 125.95954 138.234339 125.546094 138.420007 C 125.134563 138.607588 122.661549 140.217345 121.275742 141.712255 C 119.889935 143.20908 119.778918 141.972572 120.152167 141.113143 C 120.52733 140.253713 120.900579 140.29008 121.388674 139.57995 C 121.874855 138.86982 123.561175 137.485927 125.170931 136.140316 C 126.784516 134.794705 126.784516 134.756424 125.95954 135.167955 C 125.134563 135.579486 124.797682 135.765153 124.12392 136.214966 C 123.450157 136.664779 122.588813 137.112678 121.725555 137.933826 C 120.864211 138.756888 122.661549 137.15096 118.953941 140.217345 C 115.24442 143.281815 118.090683 140.441294 118.203615 139.8039 C 118.316547 139.168419 118.653428 138.571221 119.216173 137.822808 C 119.778918 137.074396 120.789561 136.588215 123.149644 134.681774 C 125.509727 132.773418 124.010988 133.634762 123.335311 133.896994 C 122.661549 134.159225 122.36295 134.568842 121.576255 135.018655 C 120.789561 135.466554 119.966499 136.214966 119.290823 136.701147 C 118.61706 137.187328 118.354829 137.748158 116.144046 139.206701 C 113.933263 140.665244 114.007913 139.955113 114.306512 139.243069 C 114.607025 138.532939 115.09512 138.234339 115.956464 137.15096 C 116.817808 136.065666 117.755716 135.502922 119.403754 134.233875 C 121.051793 132.961 120.864211 132.436537 119.627704 133.558198 C 118.391197 134.681774 118.728078 134.120943 117.941384 134.681774 C 117.156603 135.242604 117.116407 135.428272 113.445168 137.859176 C 109.775842 140.29008 111.236299 138.420007 111.385598 137.411277 C 111.467905 136.865759 112.331163 135.922109 113.445168 135.010999 C 114.316082 134.298954 115.359266 133.303623 116.293345 132.754277 C 116.375652 132.706425 116.880973 132.46142 116.961366 132.413568 C 117.466687 132.019264 117.891617 131.812541 118.0658 131.299563 C 116.978592 132.046061 116.367995 132.289151 115.655951 132.8117 C 114.94582 133.336163 114.270144 133.709412 113.894981 133.82043 C 113.519818 133.933361 113.033637 134.457824 109.699278 137.187328 C 106.36492 139.916831 108.313471 137.22561 108.462771 136.327898 C 108.613985 135.428272 111.161649 133.372531 112.884337 131.615389 C 114.607025 129.858247 112.696755 131.278508 111.910061 131.839338 C 111.123367 132.400169 110.822854 132.474819 109.88686 133.259599 C 108.950866 134.046293 107.302828 135.391904 106.740083 135.765153 C 106.177338 136.140316 104.904463 137.372995 104.079487 138.494657 C 103.254511 139.618232 102.919544 139.095683 102.881262 139.095683 C 102.84298 139.095683 102.919544 138.308989 103.030561 137.897458 C 103.143493 137.485927 104.38 135.615853 104.979113 135.018655 C 105.578226 134.419542 106.703715 132.624119 106.516134 132.88635 C 106.328552 133.148581 105.616508 133.74578 105.130327 134.270243 C 104.642232 134.794705 101.945268 137.22561 101.495455 137.673509 C 101.045642 138.121408 100.595829 138.980837 100.033084 139.243069 C 99.472253 139.5053 99.546903 139.019119 99.433971 138.756888 C 99.322954 138.494657 100.333597 136.103948 100.672393 135.502922 C 101.00736 134.905723 101.945268 133.52183 101.606473 133.858712 C 101.269591 134.195593 100.93271 134.681774 100.595829 134.980373 C 100.258948 135.280886 100.146016 135.242604 99.359322 136.701147 C 98.572627 138.15969 97.749565 139.057401 97.33612 139.095683 C 96.924589 139.132051 96.624076 138.94447 96.662358 138.79517 C 96.70064 138.64587 96.962871 137.972108 97.148539 137.598859 C 97.33612 137.22561 98.122814 136.103948 98.048165 135.952735 C 97.973515 135.803435 96.924589 137.15096 96.400126 137.933826 C 95.875664 138.72052 92.740371 140.07953 93.789297 139.903433 C 94.840137 139.72925 96.737008 139.331117 98.886539 139.779016 C 101.032243 140.228829 104.979113 140.278596 105.779206 140.303479 C 106.577385 140.328362 110.773087 141.874953 113.596381 142.223319 C 116.417762 142.571685 122.711315 145.463887 126.185403 145.662953 C 126.359586 145.674438 125.471445 144.665708 125.546094 144.06851 Z M 125.546094 144.06851 " transform="matrix(2.040779,0,0,2.040779,-122.266474,-263.683811)"/>
<path style="fill-rule:nonzero;fill:rgb(100%,100%,100%);fill-opacity:1;stroke-width:0.347251;stroke-linecap:round;stroke-linejoin:round;stroke:rgb(0%,0%,0%);stroke-opacity:1;stroke-miterlimit:4;" d="M 101.43229 179.295567 C 101.317444 179.297481 101.051384 179.307051 100.534578 179.32045 C 99.76511 179.339591 98.46161 179.358732 97.077717 179.374045 C 98.46161 181.213493 97.487334 179.944446 98.210863 182.859617 C 98.210863 182.859617 99.185139 186.251398 99.384205 187.14911 C 99.585185 188.044908 101.13369 191.561106 101.434204 192.010919 C 101.732803 192.456903 102.781729 193.505829 103.082242 194.080058 C 103.380841 194.652374 103.855537 195.375903 104.355117 196.147284 C 104.854697 196.92058 104.854697 197.27086 105.677759 198.116891 C 106.502735 198.964836 106.902781 199.563949 107.126731 199.563949 C 107.352594 199.563949 107.226264 199.738132 107.62631 199.066283 C 108.026357 198.392521 108.525936 197.221093 108.874302 197.020113 C 109.224582 196.821047 109.724162 195.599852 109.724162 195.599852 L 110.049558 194.652374 C 110.049558 194.652374 110.449605 194.254241 110.648671 193.331646 C 110.847737 192.409051 110.922387 191.486456 111.2229 190.961993 C 111.521499 190.439444 111.846896 188.9943 111.846896 188.9943 C 111.846896 188.9943 112.147409 187.447709 111.871779 186.823713 C 111.598063 186.199718 110.773087 184.928757 110.748204 184.928757 C 110.725235 184.928757 109.900259 183.983192 108.376637 183.207983 C 106.851101 182.436601 105.627992 181.263259 105.028879 181.16564 C 104.429767 181.066107 103.254511 180.514847 103.254511 180.491878 C 103.254511 180.466994 102.508013 180.168395 101.732803 180.116715 C 101.382523 180.116715 100.957593 179.693699 100.957593 179.693699 C 100.729816 179.368302 101.771085 179.293652 101.43229 179.295567 Z M 101.43229 179.295567 " transform="matrix(2.040779,0,0,2.040779,-122.266474,-263.683811)"/>
<path style="fill-rule:nonzero;fill:rgb(100%,100%,100%);fill-opacity:1;stroke-width:0.347251;stroke-linecap:round;stroke-linejoin:round;stroke:rgb(0%,0%,0%);stroke-opacity:1;stroke-miterlimit:4;" d="M 147.462515 174.483525 C 145.739827 175.10752 143.268726 174.709388 141.693424 175.254906 C 140.120035 175.804252 137.049823 176.502898 135.874566 177.027361 C 134.701224 177.549909 131.303701 178.099255 130.580172 178.348088 C 129.854729 178.596921 123.936338 179.842999 123.163043 180.043979 C 122.385919 180.243045 122.537133 180.616294 122.537133 180.616294 C 122.537133 180.616294 123.536292 182.061438 125.134563 182.961064 C 126.732835 183.856862 130.530405 186.151865 132.576576 186.599764 C 134.626575 187.049577 139.471156 187.797989 140.719148 188.693787 C 141.969054 189.591499 142.6677 189.641265 144.017139 189.989631 C 145.364664 190.339911 146.46527 190.489211 147.362982 190.041312 C 148.262608 189.591499 150.611206 188.544487 151.459151 187.646775 C 152.309011 186.750978 152.60761 186.997896 153.407703 185.254153 C 154.207796 183.508496 154.806908 183.207983 154.605928 181.31494 C 154.406862 179.419983 154.357095 177.972925 154.158029 177.32596 C 153.957049 176.677081 152.657376 175.032871 152.259244 174.931423 C 151.861112 174.83189 148.538238 174.881657 148.538238 174.881657 C 147.663495 175.032871 147.738145 174.784038 147.462515 174.483525 Z M 147.462515 174.483525 " transform="matrix(2.040779,0,0,2.040779,-122.266474,-263.683811)"/>
<path style="fill-rule:nonzero;fill:rgb(100%,100%,100%);fill-opacity:1;stroke-width:0.347251;stroke-linecap:round;stroke-linejoin:round;stroke:rgb(0%,0%,0%);stroke-opacity:1;stroke-miterlimit:4;" d="M 185.608571 149.517946 C 185.327199 149.517946 184.798908 149.609823 183.704044 149.875882 C 181.755492 150.350579 178.509182 151.571773 176.734813 152.295302 C 174.962359 153.018831 173.563153 153.367197 171.840465 154.090726 C 170.391493 154.563508 168.693688 155.31192 167.145183 155.784703 C 166.021608 156.383815 161.624925 157.729426 162.999247 157.45571 C 164.373569 157.181994 164.446305 157.80599 164.597519 158.303655 C 164.746818 158.801321 165.347845 159.947865 165.169834 160.671394 C 164.997565 161.394923 164.771702 162.265838 164.721935 162.889834 C 164.672169 163.51383 164.398453 163.837312 164.471188 164.660374 C 164.547752 165.483436 165.022449 167.328627 164.647285 167.902856 C 164.272122 168.475171 163.797426 169.348 163.447146 169.621716 C 163.09878 169.895432 161.823991 170.693611 161.349295 170.867794 C 160.874599 171.043891 160.600883 171.292723 160.35205 171.292723 C 160.101303 171.292723 163.24808 171.914805 163.847192 172.190435 C 164.446305 172.464151 168.643922 174.232778 169.817264 174.558174 C 170.990606 174.881657 176.384533 176.851264 176.960677 176.90103 C 177.534906 176.952711 182.456052 178.397855 182.879067 178.372971 C 183.303997 178.348088 184.728086 178.348088 184.728086 178.348088 L 184.678319 173.635579 C 184.678319 173.635579 183.97776 169.971996 183.577713 169.223584 C 183.179581 168.475171 182.329721 165.956219 182.029208 165.707386 C 181.730609 165.458553 181.382243 164.610608 181.382243 164.610608 C 181.382243 164.610608 181.606192 164.088059 181.904792 163.638246 C 182.505818 162.864951 182.829301 161.419807 183.154698 160.596745 C 183.927993 159.151601 184.60367 157.005897 184.777853 156.207718 C 184.777853 156.207718 185.901428 152.069439 185.901428 152.046469 C 185.901428 152.021586 186.152175 149.826116 185.976078 149.653847 C 185.899514 149.575369 185.828692 149.517946 185.608571 149.517946 Z M 185.608571 149.517946 " transform="matrix(2.040779,0,0,2.040779,-122.266474,-263.683811)"/>
<path style=" stroke:none;fill-rule:nonzero;fill:rgb(100%,100%,100%);fill-opacity:1;" d="M 24.003906 60.546875 C 24.308594 60.929688 24.691406 61.082031 25.683594 60.777344 C 26.679688 60.472656 26.984375 59.9375 28.820312 59.863281 C 30.652344 59.785156 31.496094 59.785156 32.335938 59.9375 C 33.179688 60.089844 33.714844 59.554688 33.867188 59.9375 C 34.019531 60.320312 35.242188 60.625 33.40625 61.007812 C 31.574219 61.390625 31.265625 62.300781 29.890625 62.300781 C 28.515625 62.300781 28.4375 62.914062 27.0625 62.761719 C 25.683594 62.609375 24.308594 63.371094 24.234375 63.753906 C 24.15625 64.136719 22.601562 63.496094 22.601562 62.886719 C 22.601562 62.277344 23.695312 60.167969 24.003906 60.546875 Z M 24.003906 60.546875 "/>
<path style="fill:none;stroke-width:0.347251;stroke-linecap:butt;stroke-linejoin:miter;stroke:rgb(0%,0%,0%);stroke-opacity:1;stroke-miterlimit:4;" d="M 92.466655 152.892501 C 92.466655 152.892501 93.327999 153.005432 93.81418 153.154732 C 94.302275 153.305946 95.425851 153.977794 96.024963 154.762574 C 96.624076 155.549269 97.749565 156.184749 98.310396 156.445066 C 98.873141 156.707298 98.873141 157.754309 98.834859 158.38979 C 98.796577 159.027184 98.009883 160.820694 97.674916 161.270507 C 97.33612 161.72032 95.950313 165.496835 95.199987 166.505565 C 94.451575 167.516208 91.716329 172.638334 91.042566 173.536046 C 90.368804 174.433758 88.420252 174.133245 87.145463 175.555419 C 85.872588 176.977594 84.2992 176.229182 82.350648 176.564149 C 80.807885 176.832123 79.242153 176.378481 79.242153 176.378481 M 61.550147 164.576154 C 60.954862 163.852625 60.908924 162.943429 62.493797 161.620787 C 64.842395 159.452114 69.438144 155.436337 71.335015 153.89166 C 73.235714 152.345069 78.329128 148.803988 80.379127 147.70721 C 82.574598 146.013233 82.875111 145.56342 85.173942 144.240778 C 87.870906 142.322852 92.740371 140.07953 93.789297 139.903433 C 94.840137 139.72925 96.737008 139.331117 98.886539 139.779016 C 101.032243 140.228829 104.979113 140.278596 105.779206 140.303479 C 106.577385 140.328362 110.773087 141.874953 113.596381 142.223319 C 116.417762 142.571685 122.711315 145.463887 126.185403 145.662953 C 129.655662 145.863933 134.825641 149.4031 136.948375 150.101746 C 139.073024 150.800392 144.591368 154.938671 145.76471 155.585636 C 146.939966 156.234516 150.936602 157.80599 152.460224 158.052909 C 153.981932 158.303655 155.480671 158.577371 156.529596 158.577371 C 157.578522 158.577371 158.478148 158.776438 160.275486 158.152442 C 162.074738 157.53036 161.624925 157.729426 162.999247 157.45571 C 164.373569 157.181994 164.448219 157.80599 164.597519 158.303655 C 164.746818 158.801321 165.347845 159.947865 165.171748 160.671394 C 164.997565 161.394923 164.771702 162.267752 164.721935 162.889834 C 164.672169 163.51383 164.398453 163.837312 164.471188 164.660374 C 164.547752 165.483436 165.022449 167.328627 164.647285 167.902856 C 164.272122 168.475171 163.797426 169.348 163.44906 169.621716 C 163.09878 169.897346 161.823991 170.695525 161.349295 170.867794 C 160.874599 171.043891 160.600883 171.292723 160.35205 171.292723 C 160.103217 171.292723 159.027494 171.166393 158.154665 171.218074 C 157.278009 171.26784 154.605928 171.665972 153.407703 172.140669 C 152.209478 172.613451 151.585482 172.864198 150.410226 173.237447 C 149.236884 173.610696 149.187117 173.859529 147.462515 174.483525 C 145.739827 175.10752 143.268726 174.709388 141.695338 175.25682 C 140.120035 175.804252 137.049823 176.502898 135.874566 177.027361 C 134.701224 177.549909 131.303701 178.099255 130.580172 178.348088 C 129.856643 178.596921 123.936338 179.842999 123.163043 180.043979 C 122.385919 180.243045 122.711315 180.116715 120.314865 180.243045 C 117.918414 180.367461 117.466687 180.267928 116.618742 180.466994 C 115.768883 180.666061 114.270144 180.491878 113.544701 180.466994 C 112.821172 180.442111 106.403202 180.191364 104.5293 179.793232 C 102.655398 179.3951 102.605632 179.270683 100.534578 179.32045 C 98.46161 179.370216 92.491539 179.444866 91.591913 179.32045 C 90.692287 179.196033 85.947238 178.671571 83.675204 178.149022 C 81.401256 177.624559 82.000368 177.475259 81.751535 177.375726 C 81.500789 177.276193 80.379127 176.627314 79.029688 176.303832 C 77.680249 175.980349 74.282726 175.132404 71.335015 173.33698 C 68.389218 171.541556 66.415783 170.594078 65.167792 169.820782 C 63.9198 169.049401 59.871483 166.057666 60.097346 165.435584 C 60.32321 164.809674 60.889783 164.105286 61.240063 164.130169 M 67.315409 159.199453 C 67.064663 159.37555 66.967044 159.5995 66.967044 159.5995 M 65.642488 160.472328 C 65.816671 160.820694 65.891321 160.996791 65.891321 160.971908 " transform="matrix(2.040779,0,0,2.040779,-122.266474,-263.683811)"/>
</g>
</svg>
