<?xml version="1.0" encoding="UTF-8"?>
<!-- Created by grConvert v0.1-0 -->
<svg xmlns="http://www.w3.org/2000/svg" xmlns:xlink="http://www.w3.org/1999/xlink" width="178pt" height="186pt" viewBox="0 0 178 186" version="1.1">
<g id="surface1">
<path style="fill-rule:nonzero;fill:rgb(30.196078%,30.196078%,30.196078%);fill-opacity:1;stroke-width:0.375;stroke-linecap:butt;stroke-linejoin:miter;stroke:rgb(0%,0%,0%);stroke-opacity:1;stroke-miterlimit:4;" d="M 112.334397 109.80638 C 111.134395 107.947002 107.071891 101.065744 106.443765 99.225117 L 105.262513 94.765737 L 102.053135 88.806355 C 98.993756 81.906347 97.90313 78.456343 93.503124 71.806335 C 87.443742 62.646949 80.95311 52.006311 73.812476 43.815677 L 58.962459 28.806284 C 55.843705 24.034403 55.071829 14.296892 49.034322 7.915634 C 45.312443 3.98438 39.484311 1.675002 34.24368 0.725001 C 19.634287 -1.893752 7.612398 5.234381 0.243639 17.806271 C 3.112393 20.146899 9.6124 23.646903 11.084277 26.015656 C 14.053031 30.825036 13.743655 38.025045 13.67178 43.384426 C 13.58428 49.315683 14.743656 57.246943 16.784284 62.806324 C 21.693665 76.17509 29.543674 81.656346 39.112435 91.084483 L 43.693691 96.246989 C 47.22182 99.275117 63.121839 103.175122 68.24372 104.056373 C 70.621847 104.456373 75.834354 104.725124 75.943729 107.956377 C 76.021854 110.084505 73.493726 113.184509 72.221849 114.806386 C 64.934341 124.156397 60.371835 123.365771 50.243698 127.806401 L 50.243698 131.806406 C 64.753091 135.32516 67.421844 125.597023 75.503103 116.084512 C 78.143731 112.975133 81.662486 106.865751 86.243741 107.634502 C 88.812494 108.065753 95.643752 112.225132 98.243755 113.656384 C 112.321897 121.375143 113.734398 121.884519 125.193787 133.897033 C 130.121918 139.065789 135.193799 146.725173 142.243807 148.806426 C 139.803179 136.025161 119.834406 121.384518 112.334397 109.80638 Z M 112.334397 109.80638 " transform="matrix(1.249999,0,0,1.249999,0.000138639,0)"/>
<path style="fill-rule:nonzero;fill:rgb(10.196078%,10.196078%,10.196078%);fill-opacity:1;stroke-width:0.375;stroke-linecap:butt;stroke-linejoin:miter;stroke:rgb(0%,0%,0%);stroke-opacity:1;stroke-miterlimit:4;" d="M 28.693673 11.446889 C 24.034292 8.165635 27.612422 10.884388 23.884292 8.896886 C 20.721789 11.706264 21.393664 9.634386 18.603036 13.896891 C 20.921789 15.775019 19.603037 15.165643 22.421791 15.625018 C 23.034291 16.156269 25.953045 15.615643 26.24367 16.075019 C 27.121796 14.156267 29.912424 12.406265 28.693673 11.446889 Z M 28.693673 11.446889 " transform="matrix(1.249999,0,0,1.249999,0.000138639,0)"/>
<path style=" stroke:none;fill-rule:nonzero;fill:rgb(100%,100%,100%);fill-opacity:1;" d="M 80.777344 83.195312 C 76.316406 79.058594 78.191406 78.746094 74.605469 78.03125 C 72.492188 78.269531 71.867188 77.019531 70.230469 79.996094 C 70.453125 82.882812 69.828125 84.207031 73.980469 86.707031 C 74.730469 87.382812 81.078125 84.832031 80.777344 83.195312 Z M 80.777344 83.195312 "/>
<path style=" stroke:none;fill-rule:nonzero;fill:rgb(50.196078%,50.196078%,50.196078%);fill-opacity:1;" d="M 135.441406 147.808594 C 144.191406 150.582031 117.515625 132.980469 110.777344 122.570312 C 110.105469 121.542969 138.378906 133.957031 136.992188 131.542969 C 135.253906 128.542969 133.492188 125.320312 133.054688 124.03125 L 126.078125 118.820312 C 113.742188 111.632812 110.304688 108.03125 101.703125 105.855469 C 93.117188 103.65625 52.203125 75.605469 43.277344 65.382812 C 40.152344 60.230469 47.492188 60.53125 45.929688 38.03125 C 42.027344 32.082031 60.980469 30.230469 53.429688 22.257812 C 50.941406 19.632812 45.617188 18.246094 41.867188 19.445312 C 38.589844 20.496094 36.953125 24.058594 33.902344 23.507812 C 29.203125 23.980469 18.183594 20.53125 18.023438 29.132812 C 20.785156 31.332031 8.816406 27.15625 11.902344 29.90625 C 12.878906 30.78125 13.589844 31.65625 13.855469 32.519531 C 17.566406 38.53125 17.179688 47.53125 17.089844 54.230469 C 16.980469 61.644531 18.429688 71.558594 20.980469 78.507812 C 27.117188 95.21875 36.929688 102.070312 48.890625 113.855469 L 54.617188 120.308594 C 59.027344 124.09375 78.902344 128.96875 85.304688 130.070312 C 88.277344 130.570312 94.792969 130.90625 94.929688 134.945312 C 95.027344 137.605469 102.078125 133.582031 107.804688 134.542969 C 111.015625 135.082031 119.554688 140.28125 122.804688 142.070312 C 127.742188 144.769531 132.027344 146.71875 135.441406 147.808594 Z M 135.441406 147.808594 "/>
<path style="fill-rule:nonzero;fill:rgb(10.196078%,10.196078%,10.196078%);fill-opacity:1;stroke-width:0.375;stroke-linecap:butt;stroke-linejoin:miter;stroke:rgb(0%,0%,0%);stroke-opacity:1;stroke-miterlimit:4;" d="M 18.221786 18.125021 C 13.562405 14.856268 12.921779 9.115636 9.19365 7.115633 C 5.734271 9.956262 2.721767 13.565641 0.243639 17.806271 C 2.553017 19.684398 7.212398 22.315651 9.712401 24.515654 C 10.312401 25.046905 15.453032 23.025027 15.743658 23.496903 C 17.553035 21.36565 19.553037 19.065648 18.221786 18.125021 Z M 18.221786 18.125021 " transform="matrix(1.249999,0,0,1.249999,0.000138639,0)"/>
<path style=" stroke:none;fill-rule:nonzero;fill:rgb(100%,100%,100%);fill-opacity:1;" d="M 32.757812 13.28125 C 32.113281 13.101562 30.226562 12.8125 30.277344 13.484375 C 30.324219 14.160156 30.824219 14.101562 31.507812 14.636719 C 32.1875 15.167969 32.324219 14.566406 32.703125 14.421875 C 33.082031 14.277344 33.402344 13.460938 32.757812 13.28125 Z M 32.757812 13.28125 "/>
<path style="fill:none;stroke-width:0.375;stroke-linecap:butt;stroke-linejoin:miter;stroke:rgb(0%,0%,0%);stroke-opacity:1;stroke-miterlimit:4;" d="M 112.334397 109.80638 C 111.134395 107.947002 107.071891 101.065744 106.443765 99.225117 L 105.262513 94.765737 L 102.053135 88.806355 C 98.993756 81.906347 97.90313 78.456343 93.503124 71.806335 C 87.443742 62.646949 80.95311 52.006311 73.812476 43.815677 L 58.962459 28.806284 C 55.843705 24.034403 55.071829 14.296892 49.034322 7.915634 C 45.312443 3.98438 39.484311 1.675002 34.24368 0.725001 C 19.634287 -1.893752 7.612398 5.234381 0.243639 17.806271 C 3.112393 20.146899 9.6124 23.646903 11.084277 26.015656 C 14.053031 30.825036 13.743655 38.025045 13.67178 43.384426 C 13.58428 49.315683 14.743656 57.246943 16.784284 62.806324 C 21.693665 76.17509 29.543674 81.656346 39.112435 91.084483 L 43.693691 96.246989 C 47.22182 99.275117 63.121839 103.175122 68.24372 104.056373 C 70.621847 104.456373 75.834354 104.725124 75.943729 107.956377 C 76.021854 110.084505 73.493726 113.184509 72.221849 114.806386 C 64.934341 124.156397 60.371835 123.365771 50.243698 127.806401 L 50.243698 131.806406 C 64.753091 135.32516 67.421844 125.597023 75.503103 116.084512 C 78.143731 112.975133 81.662486 106.865751 86.243741 107.634502 C 88.812494 108.065753 95.643752 112.225132 98.243755 113.656384 C 112.321897 121.375143 113.734398 121.884519 125.193787 133.897033 C 130.121918 139.065789 135.193799 146.725173 142.243807 148.806426 C 139.803179 136.025161 119.834406 121.384518 112.334397 109.80638 Z M 112.334397 109.80638 " transform="matrix(1.249999,0,0,1.249999,0.000138639,0)"/>
</g>
</svg>
