<?xml version="1.0" encoding="UTF-8"?>
<!-- Created by grConvert v0.1-0 -->
<svg xmlns="http://www.w3.org/2000/svg" xmlns:xlink="http://www.w3.org/1999/xlink" width="258pt" height="144pt" viewBox="0 0 258 144" version="1.1">
<g id="surface26">
<path style="fill-rule:nonzero;fill:rgb(100%,100%,100%);fill-opacity:1;stroke-width:4.638647;stroke-linecap:butt;stroke-linejoin:miter;stroke:rgb(0%,0%,0%);stroke-opacity:1;stroke-miterlimit:4;" d="M 480.004723 361.98678 C 480.004723 361.98678 491.500309 363.496716 497.988929 365.492903 C 504.503095 367.514681 519.498449 376.497522 527.494268 386.990298 C 535.490088 397.508667 550.510987 406.005257 557.995892 409.485788 C 565.506342 412.991911 565.506342 426.99081 564.995427 435.4874 C 564.484512 444.009582 553.985209 467.989415 549.514703 474.003567 C 544.993106 480.01772 526.497984 530.511008 516.484051 543.998065 C 506.495664 557.510713 469.99079 625.995275 460.998686 637.997987 C 452.006583 650.0007 426.001011 645.982734 408.987543 664.997693 C 391.999621 684.012651 371.001016 674.006125 344.995444 678.484749 C 324.405571 682.067649 303.509149 676.002312 303.509149 676.002312 M 67.3898 518.20119 C 59.445072 508.527361 58.831974 496.371096 79.983854 478.686929 C 111.328486 449.691036 172.663828 395.998731 197.979664 375.345876 C 223.346592 354.667428 291.323827 307.321973 318.683324 292.657678 C 347.984297 270.008636 351.994979 263.994483 382.675423 246.310316 C 418.669382 220.666994 483.657765 190.673008 497.656835 188.318532 C 511.68145 185.989647 536.997287 180.666482 565.685162 186.655043 C 594.321945 192.669195 646.997278 193.334591 657.675401 193.667288 C 668.327978 193.999986 724.324257 214.678434 762.004236 219.336203 C 799.658669 223.993972 883.653088 262.663692 930.018621 265.325275 C 976.333062 268.012449 1045.332128 315.332312 1073.662362 324.673443 C 1102.018143 334.014573 1175.666535 389.344775 1191.326078 397.994918 C 1207.011167 406.670652 1260.325144 427.681798 1280.685105 430.983184 C 1300.993975 434.335754 1320.996295 437.995429 1334.995365 437.995429 C 1348.994435 437.995429 1361.000937 440.657012 1384.988394 432.313975 C 1409.001398 423.99653 1402.998147 426.658112 1421.339994 422.998436 C 1439.681841 419.338761 1440.678125 427.681798 1442.670693 434.335754 C 1444.663262 440.989709 1452.684627 456.3194 1450.334418 465.993228 C 1448.009755 475.667056 1444.995357 487.337071 1444.331167 495.654516 C 1443.666978 503.997553 1440.013936 508.322624 1440.984674 519.327244 C 1442.006504 530.331863 1448.34185 555.002684 1443.334883 562.680325 C 1438.327916 570.332375 1431.992571 582.002389 1427.343245 585.662065 C 1422.668373 589.347333 1405.654905 600.019255 1399.319559 602.322547 C 1392.984213 604.677024 1389.331171 608.004002 1386.010224 608.004002 C 1382.689277 608.004002 1368.332567 606.314921 1356.683705 607.005908 C 1344.983753 607.671304 1309.321888 612.994469 1293.33025 619.341319 C 1277.338612 625.662577 1269.010698 629.015147 1253.325609 634.005614 C 1237.666065 638.996081 1237.001876 642.323059 1213.985157 650.666096 C 1190.993983 659.009133 1158.014423 653.685968 1137.015818 661.005319 C 1115.991667 668.324671 1075.016287 677.665801 1059.331198 684.678047 C 1043.671654 691.664701 998.327951 699.009644 988.671659 702.336622 C 979.015366 705.6636 900.002367 722.324082 889.681885 725.011256 C 879.310311 727.672839 883.653088 725.983757 851.669812 727.672839 C 819.686535 729.336328 813.657738 728.005536 802.340972 730.667119 C 790.99866 733.328701 770.996339 730.999817 761.314501 730.667119 C 751.658208 730.334421 666.003315 726.981851 640.994027 721.658686 C 615.98474 716.335521 615.32055 714.672033 587.680051 715.337428 C 560.014006 716.002824 480.336817 717.000917 468.330316 715.337428 C 456.323814 713.673939 392.995905 706.661693 362.673102 699.67504 C 332.324753 692.662794 340.320572 690.666607 336.999625 689.335816 C 333.653132 688.005025 318.683324 679.32929 300.673571 675.004219 C 282.663819 670.653555 237.320116 659.34183 197.979664 635.336405 C 158.664758 611.33098 132.327091 598.662871 115.671264 588.323648 C 99.015436 578.010016 44.986179 538.009504 48.000577 529.666467 C 51.014975 521.32343 58.576517 511.905524 63.251389 512.238221 M 144.333593 446.312874 C 140.9871 448.667351 139.684267 451.661631 139.684267 451.661631 M 122.006609 463.331646 C 124.331272 467.989415 125.327556 470.343892 125.327556 470.011194 " transform="matrix(0.152912,0,0,0.152635,-6.960955,-6.91583)"/>
<path style="fill-rule:nonzero;fill:rgb(100%,100%,100%);fill-opacity:1;stroke-width:4.638647;stroke-linecap:butt;stroke-linejoin:miter;stroke:rgb(0%,0%,0%);stroke-opacity:1;stroke-miterlimit:4;" d="M 86.498019 533.505288 C 81.005683 530.383047 67.619711 521.118693 63.251389 512.238221 C 58.576517 511.905524 51.014975 521.32343 48.000577 529.666467 C 44.986179 538.009504 99.015436 578.010016 115.671264 588.323648 C 132.327091 598.662871 158.664758 611.33098 197.979664 635.336405 C 209.347522 640.65957 215.325227 625.995275 221.328478 617.31954 C 227.331728 608.669397 239.33823 582.667785 227.331728 575.348434 C 215.325227 568.00349 190.67358 558.66236 178.002889 555.335382 C 165.332198 551.982812 142.673119 543.998065 123.999178 529.33377 C 106.67916 511.9823 78.016831 482.679302 68.462721 490.305759 C 59.521709 501.975774 61.335457 510.805062 67.3898 518.20119 C 73.21423 525.26462 82.972706 531.022851 91.019617 536.653121 C 94.493838 540.005691 96.741864 541.259706 100.67591 544.689052 C 101.570011 545.635961 124.382364 562.782694 136.005679 575.348434 C 176.393507 616.116709 163.314084 610.665584 199.997778 625.995275 " transform="matrix(0.152912,0,0,0.152635,-6.960955,-6.91583)"/>
<path style="fill-rule:nonzero;fill:rgb(100%,100%,100%);fill-opacity:1;stroke-width:4.638647;stroke-linecap:butt;stroke-linejoin:miter;stroke:rgb(0%,0%,0%);stroke-opacity:1;stroke-miterlimit:4;" d="M 181.502656 462.000855 C 187.505907 475.487911 197.979664 498.008993 215.989416 502.513209 C 233.999169 506.991833 235.480822 514.49033 262.508224 505.507489 C 289.510079 496.499057 288.00288 496.499057 300.009382 476.997848 C 311.990338 457.496638 310.483138 447.003862 309.001485 432.006869 C 307.494286 416.984284 289.510079 394.488795 274.489179 390.010171 C 259.493825 385.505954 236.988021 383.996018 215.989416 388.500235 C 194.990811 393.004451 192.001959 406.5171 187.505907 414.015596 C 183.009856 421.514092 175.499406 448.488206 181.502656 462.000855 Z M 181.502656 462.000855 " transform="matrix(0.152912,0,0,0.152635,-6.960955,-6.91583)"/>
<path style="fill-rule:nonzero;fill:rgb(0%,0%,0%);fill-opacity:1;stroke-width:4.638647;stroke-linecap:butt;stroke-linejoin:miter;stroke:rgb(0%,0%,0%);stroke-opacity:1;stroke-miterlimit:4;" d="M 240.00242 408.001444 C 223.499866 409.485788 215.989416 408.001444 208.504512 418.49422 C 201.019608 429.012589 196.676831 467.324019 206.511944 480.50397 C 213.485933 485.008187 220.000099 489.00056 229.503117 489.00056 C 239.006135 489.00056 253.490575 488.002467 260.00474 485.008187 C 266.49336 481.988314 275.485464 483.012 281.003345 475.487911 C 286.495681 467.989415 288.999164 463.997041 288.488249 452.506172 C 288.00288 440.989709 288.00288 433.004962 282.995914 425.992717 C 277.988947 419.006063 274.489179 409.485788 264.986161 407.00335 C 255.508689 404.495321 256.504973 406.5171 240.00242 408.001444 Z M 240.00242 408.001444 " transform="matrix(0.152912,0,0,0.152635,-6.960955,-6.91583)"/>
<path style="fill-rule:nonzero;fill:rgb(100%,100%,100%);fill-opacity:1;stroke-width:5.798309;stroke-linecap:round;stroke-linejoin:round;stroke:rgb(0%,0%,0%);stroke-opacity:1;stroke-miterlimit:4;" d="M 996.540514 398.644014 C 990.313738 398.676005 983.927301 399.251828 977.476999 400.627405 C 948.131321 406.865489 859.359847 440.647111 837.518232 456.258315 C 815.612753 471.869519 793.132495 502.484114 783.776364 518.127308 C 774.388302 533.738512 745.010692 566.880331 731.886564 581.883722 C 718.762436 596.887113 688.746182 633.131978 679.996763 644.360529 C 671.247344 655.621069 671.885988 671.872077 671.885988 679.357777 C 671.885988 686.875468 671.247344 693.753355 678.751408 714.387016 C 686.255471 734.988687 691.875536 755.014535 701.263598 756.262152 C 710.619728 757.477778 727.511854 758.757385 752.482823 756.262152 C 777.517656 753.734928 838.763587 747.496845 853.13307 745.641415 C 867.502554 743.753994 884.39468 747.496845 897.486876 738.731537 C 910.611004 729.99822 940.627258 714.387016 958.764739 696.248588 C 976.870288 678.142151 1015.63596 644.360529 1025.024023 626.893895 C 1034.380153 609.39527 1061.873764 558.754827 1065.641762 540.6164 C 1069.377828 522.509962 1076.243248 479.355219 1076.243248 473.117136 C 1076.243248 466.879052 1066.887117 416.878413 1051.240347 410.608339 C 1039.042252 405.745833 1018.829179 398.580034 996.540514 398.644014 Z M 996.540514 398.644014 " transform="matrix(0.12233,0,0,0.122108,-6.961045,-6.91583)"/>
<path style="fill-rule:nonzero;fill:rgb(100%,100%,100%);fill-opacity:1;stroke-width:5.798309;stroke-linecap:butt;stroke-linejoin:miter;stroke:rgb(0%,0%,0%);stroke-opacity:1;stroke-miterlimit:4;" d="M 985.204588 59.548187 C 979.776117 59.516197 970.994766 64.186762 967.482225 65.850251 C 959.594976 69.593101 947.907796 75.415312 939.573495 79.606025 C 931.239195 83.732757 924.597301 86.259981 912.079884 94.993298 C 899.5944 103.758605 879.57292 121.673102 870.855433 124.584207 C 862.074082 127.495313 865.011843 127.495313 862.904319 122.504846 C 860.828727 117.514379 860.828727 114.155411 862.904319 96.240914 C 865.011843 78.326418 857.092661 91.250448 843.745008 98.768138 C 830.397355 106.253838 829.151999 110.412561 816.666515 122.088974 C 804.149098 133.733397 797.507204 135.396886 788.757785 137.924109 C 779.976434 140.419343 776.655487 135.428876 774.164777 123.752463 C 773.494201 120.553446 777.932775 107.725386 773.33454 109.580816 C 761.20031 114.411332 732.014292 145.249859 724.158975 154.590989 C 713.333964 167.515019 698.740955 171.257869 697.910719 169.178508 C 697.080482 167.099146 694.589771 165.85153 692.897366 165.85153 C 691.236892 165.85153 675.398528 179.159441 669.58687 183.734036 C 663.743281 188.340621 604.572942 238.34126 622.071779 235.398165 C 639.602549 232.487059 671.247344 225.833103 707.107188 233.318803 C 742.903167 240.836494 808.747333 241.668238 822.094986 242.084111 C 835.410708 242.499983 905.406057 268.348042 952.50603 274.170253 C 999.574071 279.992465 1104.567096 328.329615 1162.49208 331.656593 C 1220.417063 335.015561 1306.665895 394.16539 1342.078689 405.841803 C 1377.491482 417.518216 1469.583904 486.680969 1489.158333 497.493647 C 1502.761444 505.011338 1539.196067 520.014729 1568.637542 529.867702 C 1581.538145 534.154385 1569.595508 522.925834 1575.407165 519.982738 C 1581.250755 517.103623 1604.593182 519.982738 1615.833312 520.398611 C 1627.073441 520.846473 1659.165287 516.239888 1670.820534 511.249421 C 1682.507714 506.258954 1677.494361 473.756939 1677.909479 464.159887 C 1678.133005 459.201411 1683.17829 439.079592 1680.40019 419.565587 C 1677.845615 401.395169 1667.467655 383.800574 1666.66935 379.161999 C 1665.839113 374.427454 1657.185491 355.521262 1645.849566 337.926667 C 1634.194318 319.88421 1619.824835 303.18534 1617.493785 298.770696 C 1612.927483 290.005389 1572.086218 252.896789 1564.582154 247.906322 C 1557.078091 242.915855 1508.349577 209.582095 1500.398462 205.839245 C 1492.511213 202.096395 1479.993796 191.251727 1452.915303 184.597771 C 1441.515513 181.782636 1430.403113 176.088385 1418.332747 173.33723 C 1401.72801 169.59438 1384.899749 169.274478 1377.9066 169.978262 C 1365.836234 171.257869 1362.898473 169.978262 1355.84146 169.178508 C 1348.752515 168.346763 1350.828107 167.099146 1341.66357 168.762635 C 1332.499033 170.394134 1328.731035 173.33723 1321.258904 176.248336 C 1313.754841 179.159441 1310.401961 177.911825 1302.482779 178.327697 C 1294.595529 178.743569 1293.765293 172.921358 1290.412413 170.841997 C 1287.091466 168.762635 1280.417639 170.394134 1265.856563 170.841997 C 1251.263554 171.257869 1255.861789 169.978262 1252.061859 163.324306 C 1248.325793 156.67035 1247.495556 150.816149 1247.495556 150.816149 C 1247.495556 150.816149 1241.236848 149.600522 1232.902548 150.016394 C 1224.568248 150.432267 1222.077537 147.489171 1217.096116 143.330448 C 1212.082763 139.139736 1213.328118 138.755854 1207.899647 128.327057 C 1202.503108 117.930251 1206.271105 122.920718 1199.150228 122.088974 C 1192.093215 121.257229 1189.602505 122.504846 1173.764141 122.504846 C 1157.925777 122.504846 1166.675196 119.59374 1161.661843 113.739539 C 1156.680422 107.917327 1157.510659 105.837966 1157.510659 105.837966 C 1157.510659 105.837966 1149.591477 108.3332 1143.332769 109.580816 C 1137.07406 110.828433 1132.092639 114.571283 1121.235697 112.907794 C 1110.410686 111.244305 1114.976988 105.422094 1114.976988 105.422094 L 1111.656041 94.993298 C 1111.656041 94.993298 1098.34032 100.015755 1091.251375 102.478998 C 1084.16243 105.006222 1077.073485 106.253838 1072.9223 105.006222 C 1068.771116 103.758605 1067.493829 97.072659 1062.927527 82.48514 C 1058.329292 67.929612 1053.347871 71.672462 1046.258926 73.335951 C 1039.169981 74.99944 1036.67927 76.662929 1030.005444 80.021897 C 1023.331617 83.316885 999.98919 91.66632 996.253124 91.250448 C 992.517058 90.834575 986.673469 90.834575 987.503705 80.021897 C 987.886892 75.03143 991.910347 63.131086 988.333942 60.411921 C 987.535638 59.804108 986.449943 59.548187 985.204588 59.548187 Z M 985.204588 59.548187 " transform="matrix(0.12233,0,0,0.122108,-6.961045,-6.91583)"/>
<path style="fill-rule:nonzero;fill:rgb(100%,100%,100%);fill-opacity:1;stroke-width:4.638647;stroke-linecap:butt;stroke-linejoin:miter;stroke:rgb(0%,0%,0%);stroke-opacity:1;stroke-miterlimit:4;" d="M 921.486341 244.007024 C 922.508171 235.996685 930.018621 225.503908 935.510957 217.519161 C 941.003293 209.48323 959.498414 196.508016 971.504916 187.499583 C 983.485872 178.491151 985.503986 175.01062 998.992141 161.497971 C 1012.505842 148.010914 1014.345135 154.229804 1017.640537 145.989135 C 1011.126371 149.009008 997.995857 158.503691 990.996322 163.007907 C 983.996787 167.512123 979.500735 170.506404 970.508632 177.518649 C 961.490983 184.505303 952.01351 188.497677 944.50306 196.508016 C 936.99261 204.492763 931.500274 206.002699 927.004223 208.996979 C 922.508171 211.991259 904.983788 227.500095 897.498884 233.488655 C 890.013979 239.502807 886.999581 240.01465 882.988899 234.998591 C 879.003762 230.008124 886.488666 224.505815 891.981002 216.495475 C 897.498884 208.485136 904.983788 201.984733 914.512352 192.003799 C 923.989824 181.997274 923.504455 183.481618 935.510957 171.990748 C 947.491913 160.499878 948.488197 163.494158 964.505381 148.497165 C 969.07807 143.276369 978.555542 136.366492 977.814716 134.344713 C 971.223913 137.518138 963.994466 142.994855 949.510027 151.517037 C 935.000042 160.013627 927.004223 166.002187 921.486341 168.484625 C 915.994005 170.992654 882.988899 192.515642 864.493777 212.503102 C 845.998656 232.516154 844.517002 215.983633 849.498423 204.492763 C 854.50539 193.001893 859.486811 193.488143 866.000976 183.99346 C 872.489596 174.498777 894.9954 155.995661 916.479374 138.004388 C 938.01444 120.013115 938.01444 119.501273 927.004223 125.003582 C 915.994005 130.505892 911.497954 132.988329 902.50585 139.002482 C 893.513747 145.016634 882.01816 151.005194 870.497028 161.984222 C 859.001441 172.988841 882.988899 151.517037 833.506785 192.515642 C 783.999125 233.488655 821.985652 195.509922 823.492851 186.98774 C 825.000051 178.491151 829.496102 170.506404 837.006552 160.499878 C 844.517002 150.493352 858.005157 143.992949 889.503065 118.503179 C 921.000972 92.987818 900.998651 104.50428 891.981002 108.010403 C 882.988899 111.516526 879.003762 116.993243 868.50446 123.007396 C 858.005157 128.995956 847.020485 139.002482 838.002836 145.502885 C 829.010733 152.003288 825.510966 159.501784 796.005627 179.002993 C 766.500288 198.504203 767.496572 189.009519 771.481708 179.489244 C 775.492391 169.994561 782.006557 166.002187 793.502143 151.517037 C 804.99773 137.006295 817.515146 129.482206 839.510036 112.514619 C 861.504925 95.495847 859.001441 88.483602 842.498888 103.480594 C 825.996335 118.503179 830.492386 111.004683 819.993084 118.503179 C 809.519327 126.001676 808.982867 128.484113 759.986122 160.986128 C 711.014923 193.488143 730.506328 168.484625 732.498897 154.997568 C 733.597364 147.703809 745.118496 135.086885 759.986122 122.905027 C 771.609437 113.384752 785.53187 100.07684 797.998195 92.731896 C 799.096662 92.092093 805.84074 88.816299 806.913661 88.176496 C 813.657738 82.904515 819.328895 80.140565 821.653558 73.281872 C 807.143573 83.262805 798.994479 86.513007 789.491461 93.499661 C 780.013988 100.511906 770.996339 105.502373 765.989373 106.986717 C 760.982406 108.496653 754.493786 115.508899 709.993093 152.003288 C 665.4924 188.497677 691.497971 152.515131 693.490539 140.512418 C 695.508654 128.484113 729.510044 100.998157 752.501218 77.504574 C 775.492391 54.010992 749.997734 73.000358 739.498432 80.498854 C 728.999129 87.997351 724.988447 88.995444 712.496576 99.488221 C 700.004705 110.00659 678.009816 127.997862 670.499366 132.988329 C 662.988916 138.004388 646.000994 154.485725 634.990776 169.482718 C 623.980559 184.505303 619.510053 177.518649 618.999138 177.518649 C 618.488223 177.518649 619.510053 167.000281 620.991706 161.497971 C 622.498906 155.995661 639.001459 130.992143 646.997278 123.007396 C 654.993097 114.997056 670.013997 90.991631 667.510514 94.497754 C 665.00703 98.003877 655.504012 105.988624 649.015392 113.00087 C 642.501226 120.013115 606.507267 152.515131 600.504016 158.503691 C 594.500766 164.492251 588.497515 175.983121 580.987065 179.489244 C 573.502161 182.995367 574.498445 176.494964 572.991246 172.988841 C 571.509592 169.482718 584.997747 137.518138 589.519345 129.482206 C 593.989851 121.497459 606.507267 102.994344 601.98567 107.49856 C 597.489618 112.002776 592.993567 118.503179 588.497515 122.495553 C 584.001463 126.513518 582.494264 126.001676 571.994962 145.502885 C 561.495659 165.004094 550.510987 177.006807 544.993106 177.518649 C 539.50077 178.0049 535.490088 175.49687 536.001003 173.500684 C 536.511918 171.504497 540.011685 162.496064 542.489623 157.505598 C 544.993106 152.515131 555.492408 137.518138 554.496124 135.496359 C 553.49984 133.500172 539.50077 151.517037 532.501235 161.984222 C 525.5017 172.50259 483.657765 190.673008 497.656835 188.318532 C 511.68145 185.989647 536.997287 180.666482 565.685162 186.655043 C 594.321945 192.669195 646.997278 193.334591 657.675401 193.667288 C 668.327978 193.999986 724.324257 214.678434 762.004236 219.336203 C 799.658669 223.993972 883.653088 262.663692 930.018621 265.325275 C 932.343284 265.478827 920.490057 251.991771 921.486341 244.007024 Z M 921.486341 244.007024 " transform="matrix(0.152912,0,0,0.152635,-6.960955,-6.91583)"/>
<path style="fill-rule:nonzero;fill:rgb(100%,100%,100%);fill-opacity:1;stroke-width:5.798309;stroke-linecap:round;stroke-linejoin:round;stroke:rgb(0%,0%,0%);stroke-opacity:1;stroke-miterlimit:4;" d="M 749.576994 893.755913 C 747.661063 893.787903 743.222489 893.947854 734.600799 894.171785 C 721.764061 894.491687 700.018243 894.811589 676.931273 895.06751 C 700.018243 925.842056 683.764761 904.600581 695.835127 953.321614 C 695.835127 953.321614 712.088609 1010.008199 715.409556 1025.01159 C 718.762436 1039.982991 744.595573 1098.748938 749.608926 1106.266628 C 754.590347 1113.752329 772.089185 1131.250953 777.102538 1140.848005 C 782.083959 1150.413066 790.00314 1162.505351 798.337441 1175.429381 C 806.671741 1188.321421 806.671741 1194.175622 820.402581 1208.315278 C 834.165352 1222.486925 840.839179 1232.499849 844.575245 1232.499849 C 848.343243 1232.499849 846.235718 1235.410954 852.909545 1224.182404 C 859.583372 1212.921863 867.917672 1193.343878 873.72933 1189.98491 C 879.57292 1186.657932 887.90722 1166.248202 887.90722 1166.248202 L 893.335691 1150.413066 C 893.335691 1150.413066 900.009518 1143.75911 903.330465 1128.339847 C 906.651413 1112.920584 907.896768 1097.501321 912.910121 1088.736014 C 917.891542 1080.002697 923.320013 1055.850117 923.320013 1055.850117 C 923.320013 1055.850117 928.333366 1030.002057 923.735132 1019.573261 C 919.168829 1009.144465 905.406057 987.90299 904.990939 987.90299 C 904.607753 987.90299 890.844981 972.099845 865.426962 959.143825 C 839.97701 946.251786 819.572344 926.64181 809.57757 925.010311 C 799.582796 923.346822 779.976434 914.165643 779.976434 913.749771 C 779.976434 913.333898 767.522882 908.343432 754.590347 907.479697 C 748.746757 907.479697 741.657812 900.409869 741.657812 900.409869 C 737.857882 895.00353 755.228991 893.723923 749.576994 893.755913 Z M 749.576994 893.755913 " transform="matrix(0.12233,0,0,0.122108,-6.961045,-6.91583)"/>
<path style="fill-rule:nonzero;fill:rgb(100%,100%,100%);fill-opacity:1;stroke-width:5.798309;stroke-linecap:round;stroke-linejoin:round;stroke:rgb(0%,0%,0%);stroke-opacity:1;stroke-miterlimit:4;" d="M 1517.482181 813.332619 C 1488.743215 823.761416 1447.518764 817.10746 1421.238576 826.224659 C 1394.990319 835.405838 1343.771095 847.082251 1324.164733 855.847559 C 1304.590303 864.580876 1247.910675 873.762055 1235.840309 877.920778 C 1223.738011 882.0795 1125.003694 902.905102 1112.103092 906.26407 C 1099.138624 909.591048 1101.661267 915.829132 1101.661267 915.829132 C 1101.661267 915.829132 1118.329868 939.981712 1144.993242 955.017093 C 1171.656617 969.988494 1235.010072 1008.344711 1269.145578 1015.830411 C 1303.344948 1023.348101 1384.165309 1035.856259 1404.985093 1050.827659 C 1425.83681 1065.83105 1437.492058 1066.662795 1460.004248 1072.485006 C 1482.484507 1078.339208 1500.845513 1080.834441 1515.821708 1073.348741 C 1530.829835 1065.83105 1570.010626 1048.332426 1584.156584 1033.329035 C 1598.334474 1018.357634 1603.315895 1022.484367 1616.663548 993.34132 C 1630.011202 964.134292 1640.005976 959.143825 1636.653096 927.505545 C 1633.332149 895.835274 1632.501912 871.650704 1629.180965 860.838025 C 1625.828086 849.993357 1604.146132 822.513799 1597.504237 820.81832 C 1590.862343 819.154831 1535.428069 819.986575 1535.428069 819.986575 C 1520.835061 822.513799 1522.080416 818.355077 1517.482181 813.332619 Z M 1517.482181 813.332619 " transform="matrix(0.12233,0,0,0.122108,-6.961045,-6.91583)"/>
<path style="fill-rule:nonzero;fill:rgb(100%,100%,100%);fill-opacity:1;stroke-width:5.798309;stroke-linecap:round;stroke-linejoin:round;stroke:rgb(0%,0%,0%);stroke-opacity:1;stroke-miterlimit:4;" d="M 2153.858698 396.084801 C 2149.164667 396.05281 2140.351384 397.620329 2122.086174 402.066963 C 2089.57921 410.000526 2035.422224 430.410256 2005.821088 442.502541 C 1976.251885 454.594826 1952.909458 460.417037 1924.170491 472.509322 C 1899.997827 480.410895 1871.673979 492.919052 1845.840841 500.820625 C 1827.096648 510.833549 1753.748419 533.32264 1776.675728 528.748046 C 1799.603037 524.173451 1800.81646 534.602247 1803.339102 542.919692 C 1805.829813 551.237137 1815.856519 570.39925 1812.886826 582.491535 C 1810.012929 594.58382 1806.244931 609.139349 1805.414695 619.568145 C 1804.584458 629.996941 1800.018155 635.40328 1801.231578 649.159055 C 1802.508866 662.914829 1810.428048 693.753355 1804.169339 703.350407 C 1797.910631 712.915468 1789.991449 727.502987 1784.147859 732.077581 C 1778.336202 736.652176 1757.069366 749.992078 1749.150184 752.903184 C 1741.231002 755.84628 1736.6647 760.005002 1732.513516 760.005002 C 1728.3304 760.005002 1780.826912 770.401808 1790.821686 775.008393 C 1800.81646 779.582988 1870.843742 809.141907 1890.418171 814.580236 C 1909.992601 819.986575 1999.977498 852.904463 2009.589086 853.736207 C 2019.168742 854.599942 2101.26639 878.752522 2108.323402 878.33665 C 2115.412348 877.920778 2139.169893 877.920778 2139.169893 877.920778 L 2138.339656 799.160973 C 2138.339656 799.160973 2126.652477 737.931783 2119.97865 725.423626 C 2113.336755 712.915468 2099.158865 670.816401 2094.145512 666.657679 C 2089.164091 662.498956 2083.352434 648.32731 2083.352434 648.32731 C 2083.352434 648.32731 2087.088499 639.593993 2092.06992 632.076303 C 2102.096626 619.152273 2107.493166 594.999693 2112.921637 581.243919 C 2125.82224 557.091338 2137.094301 521.230355 2140.00013 507.890453 C 2140.00013 507.890453 2158.744323 438.7277 2158.744323 438.343818 C 2158.744323 437.927946 2162.927439 401.235218 2159.989678 398.356103 C 2158.71239 397.044506 2157.5309 396.084801 2153.858698 396.084801 Z M 2153.858698 396.084801 " transform="matrix(0.12233,0,0,0.122108,-6.961045,-6.91583)"/>
<path style=" stroke:none;fill-rule:nonzero;fill:rgb(100%,100%,100%);fill-opacity:1;" d="M 24.003906 60.546875 C 24.308594 60.929688 24.691406 61.082031 25.683594 60.777344 C 26.679688 60.472656 26.984375 59.9375 28.820312 59.863281 C 30.652344 59.785156 31.496094 59.785156 32.335938 59.9375 C 33.179688 60.089844 33.714844 59.554688 33.867188 59.9375 C 34.019531 60.320312 35.242188 60.625 33.40625 61.007812 C 31.574219 61.390625 31.265625 62.300781 29.890625 62.300781 C 28.515625 62.300781 28.4375 62.914062 27.0625 62.761719 C 25.683594 62.609375 24.308594 63.371094 24.234375 63.753906 C 24.15625 64.136719 22.601562 63.496094 22.601562 62.886719 C 22.601562 62.277344 23.695312 60.167969 24.003906 60.546875 Z M 24.003906 60.546875 "/>
<path style="fill-rule:nonzero;fill:rgb(100%,0%,0%);fill-opacity:1;stroke-width:0.347251;stroke-linecap:butt;stroke-linejoin:miter;stroke:rgb(100%,0%,0%);stroke-opacity:1;stroke-miterlimit:4;" d="M 67.690573 159.700945 C 67.116343 160.42256 66.691414 160.696276 66.293281 161.195855 C 65.766904 161.668638 65.118025 161.944268 65.343889 162.541466 C 65.567838 163.140579 65.791788 163.364528 66.915363 163.663128 C 68.040853 163.961727 68.940479 163.439178 69.239078 163.364528 C 69.537677 163.289879 69.763541 162.765416 69.688891 162.168217 C 69.614241 161.569105 68.990245 160.872373 68.863915 160.372793 C 68.739498 160.049311 68.990245 159.773681 68.863915 159.176482 C 68.814148 158.627136 68.438985 159.002299 67.690573 159.700945 Z M 67.690573 159.700945 " transform="matrix(2.040779,0,0,2.040779,-122.266474,-263.683807)"/>
</g>
</svg>
