<?xml version="1.0" encoding="UTF-8"?>
<!-- Created by grConvert v0.1-0 -->
<svg xmlns="http://www.w3.org/2000/svg" xmlns:xlink="http://www.w3.org/1999/xlink" width="463pt" height="462pt" viewBox="0 0 463 462" version="1.1">
<g id="surface4279">
<path style=" stroke:none;fill-rule:nonzero;fill:rgb(40%,40%,40%);fill-opacity:1;" d="M 240.019531 0 C 238.574219 0 232.859375 6.753906 230.589844 11.136719 C 229.640625 12.976562 228.171875 18.109375 227.324219 22.550781 C 224.59375 36.863281 223.023438 42.644531 221.800781 42.886719 C 221.144531 43.019531 217.496094 37.648438 213.695312 30.957031 C 205.882812 17.203125 203.085938 13.824219 201.132812 15.777344 C 197.601562 19.304688 192.765625 62.480469 194.984375 70.625 C 195.734375 73.375 197.011719 78.261719 197.820312 81.484375 C 199.296875 87.34375 199.296875 87.34375 200.851562 84.046875 C 201.707031 82.234375 202.425781 78.753906 202.445312 76.3125 C 202.503906 69.402344 204.617188 74.300781 206.257812 85.164062 C 207.023438 90.230469 208.453125 97.921875 209.433594 102.257812 C 211.464844 111.214844 221.765625 131.25 224.339844 131.25 C 225.335938 131.25 226.378906 129.296875 226.84375 126.5625 C 227.285156 123.984375 228.980469 117.890625 230.613281 113.027344 C 232.953125 106.050781 233.628906 101.1875 233.796875 90.070312 C 234.003906 76.652344 234.101562 76.171875 235.789062 80.171875 C 241.820312 94.460938 240.25 127.5 233.535156 127.5 C 232.230469 127.5 231.160156 128.363281 231.160156 129.414062 C 231.160156 130.980469 232.550781 131.996094 236.992188 133.671875 C 237.109375 133.714844 238.09375 133.410156 239.179688 132.992188 C 240.300781 132.5625 241.15625 130.785156 241.15625 128.894531 C 241.15625 127.058594 241.996094 124.363281 243.015625 122.902344 C 247.34375 116.722656 248.71875 106.324219 248.695312 80 C 248.667969 51.28125 248.085938 46.789062 242.285156 30.203125 C 238.527344 19.46875 238.316406 18.082031 239.679688 12.996094 C 241.4375 6.410156 241.605469 0 240.019531 0 Z M 314.011719 21.980469 C 312.898438 22.058594 312.074219 22.882812 310.433594 24.714844 C 308.75 26.589844 305.425781 31.53125 303.046875 35.691406 C 300.664062 39.851562 297.238281 44.632812 295.429688 46.316406 C 292.019531 49.492188 284.910156 59.191406 284.910156 60.671875 C 284.910156 61.136719 285.816406 61.171875 286.921875 60.746094 C 288.402344 60.179688 288.730469 60.503906 288.167969 61.976562 C 286.066406 67.453125 285.953125 70 287.789062 70.703125 C 289.222656 71.253906 289.4375 72.289062 288.664062 74.984375 C 287.398438 79.394531 280.742188 94.519531 271.050781 115 C 266.984375 123.59375 263.65625 131.328125 263.65625 132.1875 C 263.65625 133.046875 263.097656 133.75 262.410156 133.75 C 261.722656 133.75 261.160156 133.015625 261.160156 132.117188 C 261.160156 129.808594 270.207031 107.304688 275.324219 96.875 C 277.6875 92.0625 279.371094 87.703125 279.066406 87.1875 C 277.933594 85.273438 276.105469 86.371094 273.355469 90.609375 C 271.804688 93.007812 270.175781 94.976562 269.738281 94.984375 C 267.433594 95.027344 266.644531 83.238281 268.019531 69.375 C 269.5625 53.847656 263.230469 24.648438 257.9375 22.882812 C 257.046875 22.585938 257.136719 25.394531 258.214844 31.535156 C 259.089844 36.535156 259.839844 44 259.871094 48.125 C 259.90625 52.25 260.773438 58.386719 261.796875 61.761719 C 262.820312 65.136719 263.648438 70.480469 263.632812 73.636719 C 263.605469 80.363281 260.804688 96.59375 258.804688 101.644531 C 258.035156 103.578125 257.410156 108.539062 257.410156 112.671875 C 257.410156 117.675781 256.785156 120.800781 255.535156 122.050781 C 254.503906 123.082031 253.660156 125.011719 253.660156 126.339844 C 253.660156 127.664062 253.027344 128.75 252.253906 128.75 C 249.800781 128.75 253.476562 132.183594 256.835938 133.027344 C 258.527344 133.449219 259.90625 134.347656 259.90625 135.023438 C 259.90625 135.699219 260.945312 136.25 262.214844 136.25 C 263.484375 136.25 265.539062 137.375 266.785156 138.75 C 268.195312 140.3125 270.632812 141.25 273.269531 141.25 C 276.878906 141.25 279.125 139.679688 288.632812 130.511719 C 297.722656 121.75 300.832031 117.71875 305.554688 108.578125 C 308.734375 102.421875 313.785156 94.628906 316.773438 91.257812 L 322.214844 85.136719 L 322 54.960938 L 321.78125 24.785156 L 317.640625 23.042969 C 315.910156 22.316406 314.875 21.921875 314.011719 21.980469 Z M 154.878906 31.25 C 154.304688 31.25 153.652344 32.515625 153.433594 34.0625 C 153.136719 36.140625 152.378906 36.734375 150.535156 36.335938 C 149.160156 36.042969 146.347656 35.761719 144.285156 35.710938 L 140.535156 35.625 L 140.757812 49.550781 C 140.890625 57.757812 141.765625 66.125 142.894531 69.921875 C 145.636719 79.15625 143.101562 79.554688 134.644531 71.21875 C 127.71875 64.394531 121.414062 59.691406 113.035156 55.105469 C 110.285156 53.601562 105.785156 51.003906 103.035156 49.332031 C 96.929688 45.621094 90.421875 45.101562 91.78125 48.4375 C 92.269531 49.640625 93.941406 54.28125 95.492188 58.75 C 97.046875 63.21875 101.769531 74.226562 105.988281 83.207031 C 114.207031 100.710938 114.929688 103.195312 111.472656 102.097656 C 110.269531 101.714844 101.691406 98.816406 92.410156 95.65625 C 67.953125 87.328125 61.695312 85.894531 54 86.855469 C 50.375 87.308594 47.410156 87.785156 47.410156 87.910156 C 47.410156 88.039062 50.851562 91.792969 55.058594 96.257812 C 59.269531 100.722656 65.011719 107.46875 67.824219 111.25 C 70.632812 115.03125 75.726562 120.695312 79.136719 123.835938 C 86.519531 130.636719 86.1875 132.730469 78.023438 130.863281 C 73.519531 129.832031 70.441406 130.007812 63.269531 131.695312 C 58.285156 132.871094 47.886719 134.554688 40.164062 135.433594 C 27.125 136.921875 20.519531 139.105469 25.011719 140.445312 C 36.5 143.871094 51.882812 152.039062 51.25 154.375 C 51.0625 155.0625 50.367188 155.472656 49.707031 155.285156 C 49.046875 155.101562 43.054688 154.714844 36.394531 154.429688 C 26.183594 153.996094 23.15625 154.339844 17.09375 156.621094 C 13.140625 158.113281 9.910156 159.75 9.910156 160.261719 C 9.910156 160.773438 15.816406 163.980469 23.035156 167.382812 C 30.253906 170.789062 36.160156 174.152344 36.160156 174.855469 C 36.160156 175.5625 34.050781 176.476562 31.472656 176.894531 C 21.851562 178.445312 18.507812 179.410156 18.507812 180.625 C 18.511719 182.273438 30.347656 184.636719 44 185.710938 C 50.03125 186.1875 55.265625 187.066406 55.632812 187.664062 C 56.003906 188.261719 49.554688 188.75 41.304688 188.75 C 32.652344 188.75 25.976562 189.277344 25.53125 190 C 25.109375 190.6875 22.261719 191.25 19.210938 191.25 C 16.15625 191.25 13.660156 191.6875 13.660156 192.21875 C 13.660156 193.644531 23.398438 199.71875 28.238281 201.316406 C 30.53125 202.074219 32.410156 203.433594 32.410156 204.335938 C 32.410156 206.214844 30.644531 206.71875 16.785156 208.8125 C 6.757812 210.328125 2.628906 212.320312 4.210938 214.878906 C 4.675781 215.632812 6.453125 216.25 8.15625 216.25 C 9.863281 216.25 13.378906 217.332031 15.972656 218.652344 C 22.941406 222.210938 33.824219 224.664062 49.316406 226.171875 C 56.894531 226.910156 65.046875 228.074219 67.433594 228.757812 C 69.816406 229.441406 73.597656 230 75.835938 230 C 78.078125 230 79.90625 230.4375 79.90625 230.972656 C 79.90625 231.503906 77.660156 231.726562 74.910156 231.464844 C 72.160156 231.203125 69.910156 231.402344 69.910156 231.910156 C 69.910156 232.414062 71.984375 234.789062 74.519531 237.179688 L 79.132812 241.53125 L 94.835938 240.957031 C 107.09375 240.507812 111.800781 239.816406 116.308594 237.804688 C 123.234375 234.714844 137.5 230.921875 138.484375 231.910156 C 138.871094 232.296875 138.507812 233.707031 137.675781 235.039062 C 135.675781 238.238281 135.707031 242.855469 137.722656 242.195312 C 138.582031 241.910156 139.460938 240.457031 139.683594 238.964844 C 139.945312 237.171875 140.96875 236.25 142.6875 236.25 C 145.183594 236.25 145.203125 236.144531 143.117188 233.84375 C 140.507812 230.957031 140.96875 227.066406 143.984375 226.484375 C 145.484375 226.195312 146.160156 226.871094 146.160156 228.660156 C 146.160156 232.53125 150.511719 231.917969 153.574219 227.617188 C 154.996094 225.621094 156.160156 223.371094 156.160156 222.621094 C 156.160156 220.824219 152.050781 220.855469 150.242188 222.664062 C 148.425781 224.480469 144.910156 223.160156 144.910156 220.664062 C 144.910156 219.609375 146.054688 217.605469 147.453125 216.203125 C 148.855469 214.804688 149.644531 213.082031 149.207031 212.378906 C 148.027344 210.46875 151.1875 203.75 153.269531 203.75 C 154.566406 203.75 154.832031 202.957031 154.210938 200.9375 C 153.003906 197.003906 152.597656 196.78125 150.832031 199.085938 C 148.4375 202.21875 146.304688 202.15625 144.59375 198.910156 C 143.183594 196.234375 142.011719 195.890625 132.488281 195.363281 C 114.070312 194.339844 100.148438 189.601562 77.292969 176.570312 C 72.761719 173.988281 66.851562 170.378906 64.167969 168.554688 C 61.480469 166.726562 57.398438 164.84375 55.097656 164.367188 C 52.53125 163.832031 51.359375 163.046875 52.070312 162.339844 C 54.414062 159.992188 60.878906 161.058594 74.53125 166.042969 C 82.699219 169.027344 92.726562 171.683594 98.617188 172.421875 C 106.507812 173.410156 111.605469 175.0625 122.023438 180 C 129.34375 183.46875 136.6875 186.648438 138.339844 187.0625 C 139.988281 187.476562 141.878906 189.234375 142.539062 190.964844 L 143.734375 194.113281 L 146.714844 191.3125 C 148.355469 189.773438 150.015625 187.238281 150.40625 185.683594 C 150.796875 184.125 153.097656 181.503906 155.515625 179.863281 C 160.484375 176.488281 162.273438 172.746094 159.730469 171.070312 C 158.402344 170.195312 158.78125 169.390625 161.46875 167.371094 C 164.046875 165.4375 164.910156 163.722656 164.910156 160.519531 C 164.910156 157.128906 165.40625 156.25 167.335938 156.25 C 168.667969 156.25 170.109375 156.8125 170.535156 157.5 C 171.742188 159.457031 176.160156 158.964844 176.160156 156.875 C 176.160156 155.84375 177.003906 155 178.035156 155 C 179.066406 155 179.910156 155.546875 179.910156 156.210938 C 179.910156 156.875 180.753906 157.097656 181.785156 156.703125 C 184.457031 155.675781 184.101562 154.15625 181.003906 153.347656 C 178.800781 152.769531 178.496094 152.058594 179.21875 149.140625 C 180.347656 144.566406 181.503906 143.480469 184.167969 144.503906 C 185.726562 145.101562 186.132812 146.175781 185.601562 148.292969 C 185.054688 150.46875 185.382812 151.25 186.84375 151.25 C 188.183594 151.25 188.59375 150.519531 188.113281 149.003906 C 187.421875 146.820312 188.582031 145.550781 197.410156 138.820312 C 200.734375 136.28125 200.496094 136.019531 193.464844 134.484375 C 190.574219 133.855469 190.035156 132.957031 189.289062 127.527344 C 188.636719 122.78125 188.878906 120.851562 190.308594 119.421875 C 191.339844 118.390625 191.890625 116.410156 191.527344 115.019531 C 191.160156 113.625 191.480469 112.5 192.238281 112.5 C 192.992188 112.5 193.988281 114.046875 194.449219 115.9375 C 194.90625 117.828125 196.886719 121.222656 198.847656 123.480469 C 200.804688 125.738281 202.410156 128.886719 202.410156 130.472656 C 202.410156 132.0625 203.453125 134.308594 204.730469 135.464844 C 208.78125 139.132812 209.839844 135.703125 207.957031 125 C 205.929688 113.476562 203.242188 105.734375 199.285156 100 C 195.097656 93.925781 187.410156 76.964844 187.410156 73.792969 C 187.410156 72.351562 186.582031 70.855469 185.574219 70.46875 C 184.566406 70.082031 179.6875 63.769531 174.734375 56.445312 C 164.867188 41.851562 156.511719 31.25 154.878906 31.25 Z M 374.167969 46.585938 C 372.730469 46.578125 369.019531 49.222656 352.410156 61.625 C 338.738281 71.832031 335.789062 74.644531 336.894531 76.433594 C 338.109375 78.398438 339.613281 77.539062 347.59375 70.308594 C 356.28125 62.4375 363.660156 56.859375 363.660156 58.160156 C 363.660156 59.882812 357.808594 67.203125 349.015625 76.484375 L 339.910156 86.089844 L 339.910156 94.457031 C 339.910156 102.1875 339.410156 103.742188 333.351562 114.851562 C 325.714844 128.859375 311.730469 144.199219 305.527344 145.371094 C 303.46875 145.761719 299.675781 146.425781 297.097656 146.847656 C 293.234375 147.476562 292.410156 148.128906 292.410156 150.539062 C 292.410156 152.277344 293.671875 154.292969 295.53125 155.507812 C 297.25 156.636719 298.660156 158.617188 298.660156 159.910156 C 298.660156 161.648438 299.3125 162.09375 301.15625 161.613281 C 303.316406 161.046875 303.660156 161.574219 303.660156 165.480469 C 303.660156 170.308594 304.210938 170.617188 311.917969 170.101562 C 315.496094 169.863281 315.867188 170.210938 316.558594 174.472656 C 316.96875 177.019531 316.769531 180.109375 316.109375 181.34375 C 314.523438 184.304688 314.574219 184.605469 316.808594 185.460938 C 317.855469 185.863281 321.585938 185.058594 325.097656 183.675781 C 328.609375 182.289062 331.785156 181.460938 332.152344 181.828125 C 332.523438 182.199219 330.695312 184.339844 328.09375 186.589844 C 324.527344 189.671875 323.261719 191.792969 322.957031 195.214844 C 322.601562 199.160156 322.992188 199.929688 325.917969 201.070312 C 329.097656 202.3125 333.179688 203.199219 337.410156 203.574219 C 338.441406 203.667969 344.347656 202.878906 350.535156 201.820312 C 368.242188 198.796875 383.582031 194.003906 392.410156 188.738281 C 397.070312 185.957031 407.722656 176.945312 417.40625 167.59375 C 430.777344 154.675781 435.65625 150.769531 440.894531 148.769531 C 444.527344 147.382812 448.605469 146.25 449.953125 146.25 C 451.304688 146.25 452.410156 145.609375 452.410156 144.824219 C 452.410156 143.808594 449.28125 143.628906 441.472656 144.195312 C 403.011719 146.976562 401.828125 147.128906 396.417969 149.980469 C 393.464844 151.535156 390.746094 152.507812 390.378906 152.136719 C 388.570312 150.332031 397.277344 139.277344 401.933594 137.464844 C 404.792969 136.351562 406.78125 129.90625 404.664062 128.597656 C 403.832031 128.082031 403.902344 126.875 404.878906 125.050781 C 407.292969 120.542969 405.351562 120.601562 398.359375 125.246094 C 394.734375 127.652344 389.871094 130.601562 387.554688 131.800781 C 382.089844 134.625 371.117188 137.875 370.1875 136.945312 C 368.726562 135.484375 377.175781 128.308594 392.410156 118.074219 C 410.632812 105.832031 414.886719 102.566406 412.667969 102.527344 C 411.78125 102.511719 407.738281 104.226562 403.6875 106.335938 C 397.640625 109.480469 395.851562 109.921875 393.726562 108.785156 C 391.710938 107.707031 389.207031 107.976562 382.421875 109.996094 C 375.273438 112.125 372.984375 113.484375 369.71875 117.546875 C 367.53125 120.269531 365.019531 122.5 364.140625 122.5 C 363.261719 122.5 358.195312 124.75 352.882812 127.5 C 347.566406 130.25 343.007812 132.5 342.75 132.5 C 342.492188 132.5 344.769531 128.984375 347.8125 124.6875 C 355.488281 113.84375 357.703125 109.152344 356.679688 105.875 C 356.207031 104.363281 355.25 102.757812 354.550781 102.308594 C 353.765625 101.804688 354.558594 99.304688 356.617188 95.796875 C 365.457031 80.710938 372.859375 63.949219 374.246094 55.871094 C 375.050781 51.195312 375.246094 47.082031 374.675781 46.730469 C 374.53125 46.640625 374.371094 46.585938 374.167969 46.585938 Z M 158.621094 53.125 L 161.289062 58.75 C 162.910156 62.175781 164.371094 68.742188 165.035156 75.539062 C 166.101562 86.535156 165.777344 90.136719 164.128906 85.492188 C 163.667969 84.191406 162.476562 81.15625 161.484375 78.75 C 160.488281 76.34375 159.441406 69.59375 159.148438 63.75 Z M 282.175781 69.242188 C 281.792969 69.207031 280.917969 69.960938 279.910156 71.25 C 276.714844 75.335938 276.75 77.761719 279.949219 73.921875 C 281.300781 72.300781 282.394531 70.332031 282.378906 69.550781 C 282.375 69.351562 282.304688 69.253906 282.175781 69.242188 Z M 417.84375 83.941406 C 417.09375 83.988281 414.738281 85.058594 412.152344 86.554688 C 409.199219 88.261719 403.921875 90.335938 400.425781 91.15625 C 393.695312 92.738281 374.785156 103.292969 373.945312 105.9375 C 372.964844 109.03125 378.0625 107.375 391.679688 100.183594 C 399.300781 96.15625 407.640625 92.175781 410.21875 91.335938 C 414.460938 89.953125 419.398438 85.324219 418.0625 83.984375 C 418.023438 83.949219 417.949219 83.933594 417.84375 83.941406 Z M 88.765625 104.074219 C 88.816406 104 89.496094 104.320312 90.847656 104.972656 C 92.394531 105.722656 93.660156 106.597656 93.660156 106.917969 C 93.660156 107.875 93.011719 107.601562 90.460938 105.554688 C 89.296875 104.625 88.714844 104.152344 88.765625 104.074219 Z M 379.253906 119.058594 C 380.863281 118.914062 378.070312 122.027344 370.460938 128.5 C 359.527344 137.804688 346.429688 146.019531 340.804688 147.105469 L 336.78125 147.882812 L 339.160156 145.195312 C 340.464844 143.71875 348.679688 137.742188 357.414062 131.917969 C 369.945312 123.558594 377.425781 119.21875 379.253906 119.058594 Z M 412.851562 123.75 C 410.671875 123.75 410.71875 125.273438 413.0625 130.882812 C 416.851562 139.957031 421.15625 141.785156 421.15625 134.316406 C 421.15625 129.738281 416.449219 123.75 412.851562 123.75 Z M 247.332031 127.5 C 246.605469 127.5 246.359375 128.0625 246.78125 128.75 C 247.207031 129.4375 247.804688 130 248.105469 130 C 248.410156 130 248.65625 129.4375 248.65625 128.75 C 248.65625 128.0625 248.0625 127.5 247.332031 127.5 Z M 136.46875 139.761719 C 137.066406 139.664062 138.480469 140.359375 140.222656 141.664062 C 142.457031 143.335938 146.246094 145.699219 148.648438 146.917969 C 154.648438 149.957031 161.160156 155.300781 161.160156 157.1875 C 161.160156 159.398438 160.144531 159.109375 152.539062 154.707031 C 145.050781 150.375 136.15625 142.457031 136.15625 140.128906 C 136.15625 139.914062 136.269531 139.792969 136.46875 139.761719 Z M 289.90625 146.25 C 289.21875 146.25 288.660156 146.8125 288.660156 147.5 C 288.660156 148.1875 289.21875 148.75 289.90625 148.75 C 290.59375 148.75 291.160156 148.1875 291.160156 147.5 C 291.160156 146.8125 290.59375 146.25 289.90625 146.25 Z M 339.324219 151.304688 C 339.71875 151.351562 339.910156 151.671875 339.910156 152.269531 C 339.910156 152.828125 337.519531 154.554688 334.597656 156.101562 L 329.28125 158.917969 L 333.613281 155.082031 C 336.59375 152.441406 338.453125 151.203125 339.324219 151.304688 Z M 317.71875 151.585938 C 319.640625 151.617188 318.203125 153.898438 313.789062 157.394531 C 308.378906 161.679688 307.410156 162.015625 307.410156 159.59375 C 307.410156 157.429688 312.269531 153.019531 315.847656 151.933594 C 316.652344 151.6875 317.277344 151.578125 317.71875 151.585938 Z M 386.753906 156.695312 C 386.933594 156.699219 387.0625 156.738281 387.136719 156.808594 C 389 158.671875 384.628906 161.890625 371.050781 168.652344 C 355.320312 176.480469 351.019531 178.203125 358.660156 173.609375 C 361.066406 172.164062 364.691406 169.308594 366.714844 167.265625 C 370.066406 163.886719 384.050781 156.621094 386.753906 156.695312 Z M 119.65625 162.671875 C 119.839844 162.679688 120.027344 162.699219 120.21875 162.726562 C 122.457031 163.042969 122.960938 163.820312 122.679688 166.511719 C 122.398438 169.214844 123.121094 170.304688 126.265625 171.929688 C 128.429688 173.050781 131.257812 173.6875 132.554688 173.347656 C 134.035156 172.960938 134.910156 173.386719 134.910156 174.492188 C 134.910156 175.597656 136.25 176.25 138.523438 176.25 C 141.898438 176.25 144.433594 178.808594 142.738281 180.5 C 141.632812 181.605469 140.425781 181.320312 127.121094 176.820312 C 115.320312 172.824219 107.410156 168.550781 107.410156 166.164062 C 107.410156 165.523438 109.660156 165 112.410156 165 C 115.160156 165 117.40625 164.398438 117.40625 163.664062 C 117.40625 163.019531 118.378906 162.617188 119.65625 162.671875 Z M 167.691406 168.695312 C 167.175781 168.78125 166.613281 169.257812 166.347656 170.0625 C 166.070312 170.886719 166.519531 171.335938 167.347656 171.0625 C 168.171875 170.789062 168.804688 170.15625 168.753906 169.65625 C 168.675781 168.910156 168.207031 168.609375 167.691406 168.695312 Z M 152.066406 170.273438 C 152.390625 170.316406 152.410156 170.957031 152.410156 172.234375 C 152.410156 175.320312 151.023438 176.460938 148.882812 175.136719 C 147.753906 174.441406 148.019531 173.585938 149.878906 171.902344 C 151.109375 170.785156 151.742188 170.234375 152.066406 170.273438 Z M 0.378906 181.683594 C 0.320312 181.695312 0.269531 181.722656 0.230469 181.761719 C -0.636719 182.628906 1.125 185 2.636719 185 C 3.464844 185 3.367188 184.28125 2.382812 183.09375 C 1.621094 182.175781 0.785156 181.601562 0.378906 181.683594 Z M 156.863281 182.695312 C 155.226562 182.726562 153.660156 184.144531 153.660156 186.210938 C 153.660156 189.199219 154.648438 189.339844 157.964844 186.828125 C 159.773438 185.464844 160.035156 184.628906 158.988281 183.578125 C 158.359375 182.953125 157.605469 182.679688 156.863281 182.695312 Z M 410.277344 190.097656 C 407.976562 190.140625 407.429688 190.699219 406.972656 192.023438 C 406.523438 193.316406 405.828125 195.078125 405.429688 195.9375 C 404.59375 197.730469 421.347656 198.078125 441.023438 196.683594 C 455.621094 195.648438 454.285156 193.859375 437.847656 192.429688 C 431.074219 191.84375 421.542969 190.980469 416.660156 190.515625 C 413.664062 190.230469 411.65625 190.070312 410.277344 190.097656 Z M 70.871094 193.75 C 72.382812 193.75 78.699219 195.4375 84.910156 197.5 C 95.65625 201.070312 97.203125 201.25 117.21875 201.25 C 128.78125 201.25 138.53125 201.539062 138.882812 201.890625 C 139.925781 202.933594 136.914062 211.261719 135.539062 211.132812 C 134.847656 211.066406 132.035156 209.679688 129.285156 208.050781 C 124.835938 205.414062 123.292969 205.171875 115.289062 205.847656 C 108.054688 206.457031 104.621094 206.082031 97.785156 203.925781 C 93.109375 202.449219 85.421875 200.457031 80.699219 199.492188 C 71.914062 197.703125 65.148438 193.75 70.871094 193.75 Z M 411.75 202.539062 C 407.976562 202.515625 404.332031 203.292969 402.636719 204.480469 C 398.117188 207.644531 365.875 213.707031 353.035156 213.804688 C 346.847656 213.851562 339.816406 214.574219 337.410156 215.410156 C 333.28125 216.84375 333.054688 217.210938 333.4375 221.902344 C 333.660156 224.636719 334.667969 227.789062 335.675781 228.90625 C 336.6875 230.023438 337.378906 231.429688 337.214844 232.03125 C 337.046875 232.632812 337.355469 234.433594 337.898438 236.03125 C 338.492188 237.78125 338.261719 240.445312 337.3125 242.730469 C 335.953125 246.011719 336.066406 247.132812 338.132812 250.972656 C 339.996094 254.429688 340.164062 255.539062 338.886719 255.964844 C 337.980469 256.269531 335.867188 257.722656 334.183594 259.195312 C 331.28125 261.742188 331.222656 262.054688 333.039062 265.496094 C 334.285156 267.851562 334.675781 270.597656 334.160156 273.339844 C 333.40625 277.359375 333.167969 277.523438 329.136719 276.765625 C 326.8125 276.328125 324.910156 276.339844 324.910156 276.789062 C 324.910156 277.238281 326.5625 281.140625 328.582031 285.464844 C 334.453125 298.019531 342.632812 304.292969 362.96875 311.855469 C 373.5625 315.792969 376.34375 316.359375 381.738281 315.683594 C 385.21875 315.25 394.25 315.527344 401.800781 316.304688 C 409.355469 317.078125 420.980469 317.898438 427.636719 318.125 C 434.296875 318.347656 440.761719 319.125 442.011719 319.851562 C 445.195312 321.703125 446.160156 321.558594 446.160156 319.230469 C 446.160156 316.796875 439.828125 310.769531 428.035156 301.964844 C 423.222656 298.375 415.347656 291.660156 410.535156 287.042969 C 404.316406 281.078125 398.800781 277.222656 391.472656 273.710938 C 385.800781 270.996094 381.160156 268.628906 381.160156 268.449219 C 381.160156 268.269531 386.921875 268.070312 393.96875 268 C 401.015625 267.933594 411.003906 267.039062 416.160156 266.015625 C 422.371094 264.785156 426.800781 264.527344 429.285156 265.253906 C 441.855469 268.929688 446.769531 269.886719 447.796875 268.863281 C 448.472656 268.1875 447.863281 267.164062 446.292969 266.320312 C 441.675781 263.851562 443.40625 262.738281 453.304688 261.808594 L 462.953125 260.90625 L 456.519531 254.988281 C 448.914062 247.996094 431.710938 239.265625 414.632812 233.730469 C 407.949219 231.566406 401.199219 228.808594 399.632812 227.609375 C 398.066406 226.410156 395.761719 225.054688 394.515625 224.597656 C 391.160156 223.371094 392.898438 221.714844 400.234375 219.15625 L 406.785156 216.875 L 398.65625 216.25 L 390.535156 215.625 L 395.535156 212.984375 C 398.285156 211.53125 403.402344 209.402344 406.910156 208.257812 C 410.417969 207.109375 414.355469 205.363281 415.660156 204.375 C 417.824219 202.734375 417.484375 202.578125 411.75 202.539062 Z M 335.214844 206.25 C 334.527344 206.25 333.265625 207.09375 332.410156 208.125 C 331.539062 209.171875 331.40625 210 332.101562 210 C 332.789062 210 334.050781 209.15625 334.90625 208.125 C 335.777344 207.078125 335.914062 206.25 335.214844 206.25 Z M 83.136719 206.84375 C 105.320312 207.242188 136.785156 213.144531 136.785156 217.628906 C 136.785156 219.867188 133.664062 220.328125 130.621094 218.542969 C 129.296875 217.761719 120.015625 216.667969 109.996094 216.113281 C 99.980469 215.554688 88.914062 214.285156 85.410156 213.292969 C 81.90625 212.300781 75.296875 211.089844 70.722656 210.597656 C 66.148438 210.109375 62.410156 209.292969 62.410156 208.789062 C 62.410156 208.28125 67.769531 207.492188 74.320312 207.03125 C 76.992188 206.84375 79.96875 206.789062 83.136719 206.84375 Z M 70.894531 221.394531 C 78.839844 221.246094 100.398438 223.171875 106.15625 224.542969 C 109.089844 225.238281 109.132812 225.347656 106.785156 226.304688 C 102.019531 228.246094 85.695312 227.285156 74.28125 224.390625 L 63.03125 221.539062 Z M 132.148438 243.886719 C 131.597656 243.855469 131.160156 244.457031 131.160156 245.925781 C 131.160156 249.996094 125.894531 253.558594 116.753906 255.667969 C 99.835938 259.574219 56.457031 275.574219 36.992188 285.085938 C 21.644531 292.585938 34.421875 284.902344 56.898438 273.113281 C 69.554688 266.476562 79.90625 260.53125 79.90625 259.898438 C 79.90625 257.527344 74.828125 258.90625 65.683594 263.75 C 59.355469 267.101562 54.648438 268.75 51.394531 268.75 C 44.617188 268.75 26.394531 281.859375 16.527344 293.832031 C 12.542969 298.667969 9.09375 303.15625 8.867188 303.808594 C 8.222656 305.648438 22.207031 305.191406 29.910156 303.125 C 39.773438 300.476562 43.660156 300.65625 43.660156 303.75 C 43.660156 306.601562 43.722656 306.628906 47.640625 305.183594 C 49.230469 304.597656 52.222656 303.707031 54.285156 303.207031 L 58.035156 302.296875 L 55.222656 305.292969 C 52.78125 307.890625 51.460938 311.25 52.878906 311.25 C 53.136719 311.25 59.929688 308.15625 67.976562 304.375 C 76.027344 300.59375 83.164062 297.5 83.839844 297.5 C 86.773438 297.5 104.613281 288.3125 108.03125 285.042969 C 110.09375 283.070312 116.285156 278.699219 121.785156 275.332031 C 136.777344 266.144531 137.410156 265.71875 137.410156 264.785156 C 137.410156 264.308594 136.171875 263.527344 134.664062 263.046875 C 132.136719 262.246094 132.296875 261.988281 136.71875 259.71875 C 140.566406 257.746094 142.105469 257.527344 144.519531 258.628906 C 148.507812 260.445312 148.660156 260.40625 148.660156 257.5 C 148.660156 255.695312 147.824219 255 145.667969 255 C 144.019531 255 142.34375 254.132812 141.9375 253.074219 C 141.46875 251.851562 139.960938 251.28125 137.8125 251.511719 C 134.835938 251.832031 134.417969 251.433594 134.355469 248.234375 C 134.304688 245.75 133.070312 243.9375 132.148438 243.886719 Z M 138.730469 245 C 137.15625 245 136.027344 246.953125 137.027344 247.949219 C 138.433594 249.359375 139.90625 248.808594 139.90625 246.875 C 139.90625 245.84375 139.378906 245 138.730469 245 Z M 148.566406 262.5 C 147.929688 262.5 147.40625 263.0625 147.40625 263.75 C 147.40625 264.4375 145.8125 265 143.859375 265 C 141.296875 265 139.917969 265.859375 138.90625 268.085938 C 137.292969 271.617188 129.878906 277.316406 119.910156 282.6875 C 116.128906 284.722656 110.503906 287.886719 107.410156 289.714844 C 104.316406 291.546875 95.035156 296.292969 86.785156 300.265625 C 68.15625 309.234375 52.457031 317.824219 52.429688 319.0625 C 52.394531 320.683594 54.679688 320.125 67.152344 315.46875 C 83.761719 309.265625 107.777344 297.75 118.3125 290.933594 C 123.117188 287.824219 128.398438 284.910156 130.042969 284.453125 C 132.5 283.773438 132.148438 284.402344 128.089844 287.964844 C 121.769531 293.511719 109.050781 301.070312 98.65625 305.449219 C 94.1875 307.332031 89.125 310.007812 87.40625 311.394531 L 84.285156 313.914062 L 91.785156 313.148438 C 104.035156 311.894531 125.132812 299.800781 130.875 290.742188 C 132.660156 287.929688 137.402344 282.222656 141.417969 278.0625 C 146.503906 272.792969 148.867188 269.289062 149.21875 266.5 C 149.5 264.300781 149.203125 262.5 148.566406 262.5 Z M 313.816406 267.539062 C 312.242188 267.574219 312.460938 268.148438 314.773438 270.074219 C 318.09375 272.835938 319.90625 272.382812 317.433594 269.40625 C 316.5625 268.355469 314.9375 267.519531 313.816406 267.539062 Z M 152.65625 281.25 C 151.253906 281.25 145.742188 288.308594 144.480469 291.722656 C 143.722656 293.78125 144.078125 293.976562 147.386719 293.316406 C 152.757812 292.242188 152.0625 294.121094 145.222656 299.152344 C 141.957031 301.554688 137.875 305.054688 136.15625 306.929688 C 134.4375 308.804688 130.121094 312.222656 126.558594 314.527344 C 113.910156 322.707031 73.304688 362.5625 75.441406 364.699219 C 76.390625 365.648438 101.390625 347.1875 110.816406 338.578125 C 118.898438 331.195312 121.070312 332.117188 116.144531 340.839844 C 112.703125 346.9375 112.25 348.730469 112.902344 353.652344 C 113.953125 361.570312 110.339844 373.59375 101.605469 391.25 C 94.992188 404.613281 91.804688 414.261719 93.234375 416.574219 C 93.5625 417.109375 95.621094 416.082031 97.808594 414.292969 C 99.996094 412.503906 104.878906 408.574219 108.660156 405.554688 C 112.441406 402.539062 120.296875 394.894531 126.121094 388.574219 C 132.90625 381.210938 140.378906 374.691406 146.917969 370.429688 C 152.53125 366.769531 158.945312 361.707031 161.164062 359.179688 C 166.5625 353.027344 174.453125 336.457031 176.148438 327.703125 C 176.902344 323.808594 178.074219 319.296875 178.75 317.671875 C 180.292969 313.972656 178.316406 311.25 174.085938 311.25 C 171.464844 311.25 171.246094 310.925781 172.398438 308.769531 C 173.65625 306.421875 173.425781 306.328125 168.066406 307.0625 L 162.40625 307.839844 L 162.40625 303.542969 C 162.40625 299.214844 156.070312 288.75 153.449219 288.75 C 152.722656 288.75 152.550781 287.203125 153.03125 285 C 153.503906 282.863281 153.339844 281.25 152.65625 281.25 Z M 277.917969 291.484375 C 277.359375 291.332031 277.871094 292.890625 279.476562 297.1875 C 280.234375 299.214844 280.335938 299.207031 280.847656 297.039062 C 281.152344 295.753906 280.46875 293.785156 279.335938 292.664062 C 278.644531 291.980469 278.171875 291.554688 277.917969 291.484375 Z M 325.660156 295 C 325.136719 295 325.070312 296.632812 325.507812 298.628906 C 326.382812 302.609375 325.101562 304.007812 320.097656 304.542969 C 315.167969 305.066406 313.875 305.929688 313.441406 308.976562 C 313.148438 311.039062 312.003906 312.039062 309.410156 312.492188 C 307.414062 312.839844 305.445312 313.96875 305.03125 315 C 304.621094 316.03125 303.160156 316.875 301.785156 316.875 C 299.972656 316.875 299.171875 317.84375 298.878906 320.390625 C 298.519531 323.539062 298.109375 323.828125 294.96875 323.140625 C 291.980469 322.480469 291.347656 322.824219 290.683594 325.472656 C 290.253906 327.179688 290.460938 330.042969 291.140625 331.832031 C 292.109375 334.378906 291.976562 335.242188 290.519531 335.800781 C 289.496094 336.195312 288.660156 337.863281 288.660156 339.507812 C 288.660156 343.976562 286.945312 343.179688 281.660156 336.25 C 279.039062 332.8125 276.1875 330 275.320312 330 C 273.054688 330 271.167969 334.140625 271.992188 337.296875 C 273.039062 341.292969 268.242188 340.859375 265.203125 336.683594 C 262.308594 332.710938 259.90625 333.679688 259.90625 338.824219 C 259.90625 342.679688 258.832031 343.421875 256.542969 341.132812 C 255.554688 340.144531 254.3125 340.332031 252.050781 341.816406 C 250.070312 343.109375 247.757812 343.570312 245.753906 343.066406 C 243.082031 342.398438 242.261719 342.910156 240.476562 346.359375 C 239.316406 348.609375 237.992188 354.421875 237.535156 359.285156 L 236.707031 368.125 L 235.816406 357.398438 C 235.328125 351.5 234.292969 344.863281 233.523438 342.648438 C 232.152344 338.722656 232.058594 338.679688 229.621094 340.875 C 228.246094 342.113281 226.597656 344.496094 225.957031 346.171875 L 224.792969 349.21875 L 222.527344 345.496094 C 219.660156 340.78125 214.476562 337.363281 208.050781 335.957031 C 197.734375 333.699219 198.820312 332.578125 190.890625 353.75 C 186.898438 364.40625 181.339844 381 178.535156 390.625 C 175.726562 400.25 173.136719 408.40625 172.777344 408.75 C 172.070312 409.425781 173.097656 401.542969 174.890625 392.5 C 177.179688 380.964844 177.5625 377.253906 176.390625 377.980469 C 173.527344 379.75 170.140625 400.714844 170.105469 416.875 C 170.082031 425.8125 169.382812 437.34375 168.546875 442.5 C 166.578125 454.617188 166.449219 460.277344 168.140625 460.855469 C 170.382812 461.625 181.128906 444.21875 182.398438 437.765625 C 183.515625 432.082031 196.3125 395.480469 198.613281 391.382812 C 199.585938 389.648438 199.8125 389.632812 200.253906 391.25 C 202.445312 399.253906 208.796875 416.488281 213.386719 426.875 C 216.425781 433.75 220.777344 443.992188 223.054688 449.640625 C 228.320312 462.675781 229.179688 464.027344 229.632812 460 C 229.824219 458.28125 230.769531 453.21875 231.730469 448.75 C 234.890625 434.054688 236.183594 425.730469 236.484375 418.125 C 236.726562 412.011719 237.175781 410.625 238.914062 410.625 C 240.085938 410.625 241.949219 409.5 243.058594 408.125 C 244.960938 405.769531 245.042969 406.042969 244.460938 412.8125 C 244.117188 416.765625 244.21875 419.996094 244.6875 419.992188 C 245.503906 419.988281 249.351562 406.746094 252.679688 392.5 C 253.5625 388.71875 254.839844 385.6875 255.523438 385.757812 C 256.207031 385.832031 258.367188 388.644531 260.328125 392.007812 C 265.21875 400.398438 267.121094 402.300781 284.28125 415.984375 C 303.234375 431.089844 302.371094 430.453125 303.007812 429.816406 C 303.304688 429.519531 302.820312 426.808594 301.929688 423.792969 C 300.855469 420.15625 300.652344 416.488281 301.324219 412.894531 C 301.917969 409.726562 301.832031 406.148438 301.121094 404.28125 C 300.453125 402.523438 299.90625 397.324219 299.90625 392.730469 C 299.902344 387.753906 298.628906 379.621094 296.757812 372.628906 C 295.023438 366.167969 293.808594 360.679688 294.058594 360.433594 C 294.304688 360.1875 297.355469 365.191406 300.839844 371.554688 C 307.652344 383.996094 319.097656 412.792969 324.050781 429.949219 C 326.9375 439.957031 328.753906 442.882812 330.414062 440.195312 C 330.816406 439.542969 330.03125 431.78125 328.664062 422.941406 C 327.300781 414.105469 326.179688 402.429688 326.171875 396.996094 C 326.160156 388.039062 325.75 386.382812 321.78125 379.292969 C 319.375 374.988281 317.410156 371.136719 317.410156 370.734375 C 317.410156 368.0625 324.523438 371.582031 340.703125 382.257812 C 350.921875 389 361.8125 395.984375 364.90625 397.78125 C 368 399.574219 372.757812 403.339844 375.476562 406.144531 C 383.054688 413.972656 384.433594 412.820312 379.460938 402.804688 C 377.84375 399.542969 372.5 389.160156 367.589844 379.730469 C 360.761719 366.625 358.660156 361.382812 358.660156 357.46875 C 358.660156 354.507812 359.164062 352.667969 359.863281 353.097656 C 360.523438 353.507812 364.691406 359.359375 369.125 366.101562 C 376.679688 377.597656 386.480469 387.59375 388.355469 385.71875 C 389.6875 384.390625 383.605469 367.886719 377.121094 355.226562 C 369.574219 340.488281 369.523438 339.417969 376.417969 340.519531 C 379.308594 340.984375 384.164062 342.460938 387.199219 343.804688 C 390.238281 345.148438 394.320312 346.25 396.273438 346.25 C 398.222656 346.25 402.667969 347.375 406.15625 348.75 C 423.164062 355.453125 414.496094 348.730469 391.785156 337.597656 C 372.453125 328.121094 357.796875 318.984375 348.882812 310.84375 C 343.207031 305.660156 327.578125 295 325.660156 295 Z M 30.191406 307.445312 C 29.679688 307.53125 29.113281 308.007812 28.84375 308.8125 C 28.570312 309.636719 29.023438 310.085938 29.847656 309.8125 C 30.671875 309.539062 31.304688 308.90625 31.253906 308.40625 C 31.175781 307.660156 30.707031 307.359375 30.191406 307.445312 Z M 42.722656 310.019531 C 41.222656 310.046875 31.648438 318.652344 33.054688 318.703125 C 33.757812 318.726562 36.425781 317.324219 38.992188 315.582031 C 43.246094 312.691406 45.066406 309.972656 42.722656 310.019531 Z M 116.792969 317.96875 C 115.660156 317.976562 111.949219 319.207031 107.835938 320.96875 C 103.132812 322.980469 97.425781 325.351562 95.15625 326.242188 C 92.632812 327.230469 88.777344 330.820312 85.230469 335.488281 C 82.042969 339.6875 76.167969 346.660156 72.175781 350.976562 C 68.183594 355.296875 63.789062 361.039062 62.410156 363.742188 C 58.316406 371.769531 59.089844 371.972656 67.210938 365.007812 C 70.414062 362.257812 75.847656 357.671875 79.285156 354.808594 C 90.113281 345.789062 117.878906 318.804688 117.117188 318.042969 C 117.066406 317.992188 116.957031 317.964844 116.792969 317.96875 Z M 87.605469 323.976562 C 86.269531 323.886719 82.511719 324.84375 73.710938 327.046875 C 61.292969 330.15625 42.40625 337.625 42.40625 339.429688 C 42.40625 341.257812 60.8125 338.3125 66.160156 335.625 C 69.253906 334.074219 75.0625 331.773438 79.066406 330.519531 C 83.070312 329.261719 86.886719 327.226562 87.546875 325.992188 C 88.210938 324.75 88.640625 324.046875 87.605469 323.976562 Z M 190.945312 325.457031 C 189.617188 325.414062 187.839844 326.242188 185.777344 327.941406 C 183.164062 330.09375 181.652344 333.203125 179.859375 340.105469 C 178.535156 345.203125 177.457031 350.5 177.460938 351.875 C 177.472656 354.011719 177.785156 353.878906 179.605469 350.9375 C 180.777344 349.046875 182.679688 347.5 183.828125 347.5 C 186.320312 347.5 193.960938 332.089844 193.398438 328.195312 C 193.144531 326.417969 192.269531 325.503906 190.945312 325.457031 Z M 172.070312 364.144531 C 171.734375 364.011719 171.070312 364.628906 169.867188 366.074219 C 168.515625 367.699219 167.425781 369.949219 167.449219 371.074219 C 167.484375 372.683594 168.023438 372.488281 169.949219 370.171875 C 171.300781 368.550781 172.390625 366.300781 172.367188 365.175781 C 172.355469 364.570312 172.273438 364.222656 172.070312 364.144531 Z M 160.210938 367.5 C 158.3125 367.5 148.207031 378.820312 144.574219 385.019531 C 141.074219 390.988281 138.707031 401.25 140.828125 401.25 C 141.507812 401.25 146.054688 394.640625 150.933594 386.5625 C 160.539062 370.65625 162.074219 367.5 160.210938 367.5 Z M 158.261719 386.484375 C 157.976562 386.519531 157.4375 386.957031 156.652344 387.609375 C 152.3125 391.210938 141.03125 409.851562 137.378906 419.453125 C 135.476562 424.457031 139.171875 423.203125 144.050781 417.1875 C 149.0625 411.003906 153.015625 403.503906 156.3125 393.925781 C 158.269531 388.238281 158.882812 386.398438 158.261719 386.484375 Z M 137.710938 390 C 136.328125 389.761719 131.929688 394.6875 130.359375 398.398438 C 128.460938 402.882812 128.074219 410 129.730469 410 C 130.316406 410 132.523438 405.644531 134.632812 400.320312 C 136.742188 394.996094 138.230469 390.40625 137.945312 390.117188 C 137.882812 390.054688 137.800781 390.015625 137.710938 390 Z M 183.132812 411.589844 C 183.933594 411.546875 183.695312 413.011719 182.410156 415 C 181.363281 416.617188 181.195312 416.582031 181.179688 414.761719 C 181.167969 413.597656 181.722656 412.300781 182.410156 411.875 C 182.703125 411.691406 182.945312 411.601562 183.132812 411.589844 Z M 344.386719 443.75 C 343.296875 443.75 342.40625 444.640625 342.40625 445.726562 C 342.40625 447.9375 345.097656 447.550781 345.871094 445.234375 C 346.144531 444.417969 345.476562 443.75 344.386719 443.75 Z M 344.386719 443.75 "/>
<path style=" stroke:none;fill-rule:nonzero;fill:rgb(0%,0%,0%);fill-opacity:1;" d="M 239.015625 334.128906 C 237.148438 332.0625 235.640625 331.636719 231.949219 332.132812 C 229.367188 332.480469 226.941406 332.253906 226.554688 331.632812 C 225.367188 329.707031 223.828125 330.378906 223.105469 333.132812 C 222.039062 337.210938 219.128906 335.199219 219.128906 330.386719 C 219.128906 326.105469 215.503906 319.332031 214.011719 320.824219 C 213.574219 321.265625 213.820312 323.363281 214.5625 325.492188 C 215.976562 329.550781 216.132812 329.359375 209.890625 331.273438 C 206.960938 332.171875 200.945312 328.785156 200.195312 325.8125 C 199.621094 323.542969 198.605469 323 194.929688 323 C 191.285156 323 189.742188 322.191406 187.175781 318.9375 C 181.882812 312.226562 181.808594 311.835938 185.285156 309.101562 C 189.480469 305.800781 188.175781 303.792969 182.410156 304.679688 C 177.074219 305.503906 171.375 302.597656 175.96875 301.398438 C 179.191406 300.554688 180.546875 297.058594 178.757812 294.191406 C 177.691406 292.484375 177.78125 291.621094 179.140625 290.488281 C 180.121094 289.679688 181.640625 289.273438 182.523438 289.589844 C 184.679688 290.359375 188.503906 288.292969 188.503906 286.355469 C 188.503906 284.441406 181.484375 281.644531 179.039062 282.582031 C 178.054688 282.960938 176.324219 282.914062 175.191406 282.476562 C 173.359375 281.773438 173.425781 281.367188 175.816406 278.824219 C 178.773438 275.679688 179.34375 270.589844 177.003906 268.25 C 174.550781 265.800781 172.777344 266.535156 172.828125 269.980469 C 172.875 272.9375 172.382812 273.246094 166.941406 273.691406 C 160.226562 274.238281 159.488281 273.0625 164.332031 269.535156 C 166.542969 267.921875 167.394531 266.421875 166.871094 265.054688 C 165.789062 262.234375 162.625 262.472656 161.003906 265.5 C 160.269531 266.875 158.558594 268 157.210938 268 C 154.007812 268 154.039062 265.980469 157.253906 265.140625 C 158.75 264.746094 159.753906 263.433594 159.753906 261.867188 C 159.753906 259.890625 160.539062 259.25 162.96875 259.25 C 165.359375 259.25 166.078125 258.6875 165.769531 257.0625 C 165.226562 254.21875 160.613281 253.582031 158.554688 256.066406 C 156.503906 258.535156 153.503906 258.570312 153.503906 256.125 C 153.503906 255.085938 154.613281 254.25 156.003906 254.25 C 158.011719 254.25 158.503906 253.417969 158.503906 250.03125 C 158.503906 247.710938 157.617188 243.289062 159.304688 241.804688 L 160.109375 237.792969 L 154.984375 238.210938 C 149.65625 238.640625 146.976562 236.429688 151.972656 235.722656 C 153.535156 235.5 155.714844 233.945312 156.816406 232.261719 C 158.3125 229.980469 159.226562 229.542969 160.425781 230.539062 C 161.566406 231.488281 162.28125 231.46875 162.894531 230.472656 C 163.371094 229.703125 164.945312 228.636719 166.394531 228.101562 C 168.226562 227.421875 169.046875 226.019531 169.078125 223.5 C 169.15625 217.71875 173.429688 218.679688 176.566406 225.1875 C 178.132812 228.441406 179.976562 230.5 181.316406 230.5 C 183.0625 230.5 183.496094 229.429688 183.464844 225.1875 C 183.429688 220.503906 183.226562 220.132812 181.761719 222.0625 C 179.710938 224.765625 177.253906 224.910156 177.253906 222.324219 C 177.253906 221.265625 176.160156 218.875 174.820312 217.011719 C 173.484375 215.148438 171.996094 211.425781 171.519531 208.738281 C 170.753906 204.4375 170.910156 203.949219 172.804688 204.675781 C 173.988281 205.128906 175.191406 205.5 175.480469 205.5 C 175.769531 205.5 176.011719 206.765625 176.023438 208.3125 C 176.035156 209.859375 176.457031 211.777344 176.964844 212.574219 C 178.179688 214.488281 184.753906 213.195312 184.753906 211.042969 C 184.753906 210.125 185.734375 208.828125 186.929688 208.15625 C 190.347656 206.246094 187.625 204.878906 184.128906 206.75 C 180.492188 208.695312 180.253906 208.554688 179.046875 203.742188 C 178.175781 200.265625 178.289062 200.144531 181.757812 200.832031 C 186.035156 201.679688 189.695312 199.15625 192.746094 193.257812 C 194.445312 189.96875 194.527344 188.84375 193.214844 186.695312 C 191.855469 184.46875 191.976562 183.839844 194.0625 182.292969 C 195.402344 181.300781 197.4375 180.789062 198.585938 181.152344 C 201.378906 182.039062 207.609375 179.585938 206.621094 177.988281 C 206.191406 177.292969 207.433594 175.128906 209.382812 173.179688 C 212.214844 170.347656 213.355469 169.90625 215.050781 170.972656 C 216.714844 172.023438 217.726562 171.714844 219.761719 169.53125 C 223.136719 165.90625 230.355469 165.703125 232.214844 169.179688 C 233.367188 171.332031 234.464844 171.523438 242.019531 170.890625 C 249.78125 170.242188 250.800781 170.4375 253.671875 173.152344 C 255.398438 174.789062 257.148438 177.039062 257.558594 178.15625 C 258.28125 180.125 261.453125 181.140625 271.398438 182.585938 C 274.917969 183.097656 275.980469 183.757812 275.460938 185.113281 C 275.054688 186.167969 276.308594 188.5 278.410156 190.597656 C 282.839844 195.027344 285.371094 195.390625 284.246094 191.4375 C 283.804688 189.890625 283.105469 187.078125 282.691406 185.1875 C 282.277344 183.296875 281.449219 181.75 280.847656 181.75 C 280.246094 181.75 279.753906 180.855469 279.753906 179.757812 C 279.753906 178.664062 278.628906 177.472656 277.253906 177.113281 C 275.570312 176.671875 274.753906 175.40625 274.753906 173.25 C 274.753906 171.480469 273.546875 168.753906 272.070312 167.183594 L 269.390625 164.328125 L 272.730469 163.058594 C 274.566406 162.359375 276.390625 160.949219 276.78125 159.925781 C 277.398438 158.320312 277.898438 158.359375 280.460938 160.222656 C 284.375 163.066406 284.289062 165.5 280.273438 165.5 C 278.234375 165.5 277.246094 166.078125 277.589844 167.0625 C 278.207031 168.839844 287.714844 168.511719 291.308594 166.589844 C 292.953125 165.707031 293.503906 165.886719 293.503906 167.304688 C 293.503906 168.34375 294.9375 170.132812 296.691406 171.28125 C 298.921875 172.742188 299.488281 173.769531 298.566406 174.6875 C 295.167969 178.085938 300.460938 182.292969 304.21875 179.175781 C 305.738281 177.917969 305.921875 178.011719 305.265625 179.714844 C 304.832031 180.851562 305.148438 182.59375 305.972656 183.585938 C 307.566406 185.511719 306.742188 188 304.503906 188 C 303.761719 188 302.488281 187.089844 301.671875 185.972656 C 300.671875 184.605469 299.304688 184.226562 297.472656 184.808594 C 293.070312 186.203125 294.320312 189.03125 300.066406 190.671875 C 305.847656 192.328125 305.648438 192.316406 308.808594 191.085938 C 310.703125 190.351562 310.949219 190.953125 310.683594 195.683594 C 310.40625 200.601562 310.046875 201.164062 306.945312 201.519531 C 304.542969 201.796875 303.285156 202.8125 302.765625 204.886719 C 301.625 209.429688 303.144531 210.792969 306.726562 208.449219 C 309.582031 206.574219 309.992188 206.578125 312.109375 208.496094 C 313.90625 210.125 315.117188 210.300781 317.703125 209.316406 C 319.519531 208.628906 321.003906 207.488281 321.003906 206.78125 C 321.003906 205.183594 330.59375 205.078125 331.574219 206.664062 C 332.4375 208.0625 327.292969 211.921875 325.800781 211 C 325.222656 210.644531 324.753906 211.582031 324.753906 213.082031 C 324.753906 215.425781 324.242188 215.710938 321.152344 215.09375 C 316.105469 214.082031 314.578125 216.878906 319.277344 218.644531 L 322.617188 221.304688 L 318.058594 225.859375 C 315.554688 228.367188 313.503906 230.71875 313.503906 231.085938 C 313.503906 231.449219 314.96875 231.75 316.761719 231.75 C 319.257812 231.75 319.839844 232.226562 319.242188 233.785156 C 318.355469 236.09375 320.496094 239.25 322.949219 239.25 C 325.6875 239.25 326.457031 234.320312 324.117188 231.738281 C 322.957031 230.457031 322.378906 228.808594 322.828125 228.078125 C 324.257812 225.765625 327.273438 226.640625 328.4375 229.707031 C 329.054688 231.332031 330.449219 233 331.53125 233.417969 C 334.457031 234.539062 334.039062 240.816406 330.90625 242.773438 C 328.914062 244.015625 327.898438 244.054688 326.546875 242.933594 C 325.578125 242.128906 323.949219 241.792969 322.925781 242.183594 C 321.902344 242.578125 319.058594 242.058594 316.605469 241.035156 C 314.152344 240.011719 311.605469 239.503906 310.949219 239.910156 C 308.738281 241.273438 309.726562 244.304688 312.757812 245.453125 C 314.410156 246.082031 316.152344 247.234375 316.632812 248.011719 C 317.144531 248.839844 320.128906 249.285156 323.847656 249.085938 C 331.695312 248.667969 333.988281 251.042969 330.960938 256.441406 C 328.371094 261.054688 325.148438 261.484375 323.316406 257.464844 C 322.511719 255.695312 320.851562 254.25 319.625 254.25 C 316.824219 254.25 314.96875 257.03125 317.261719 257.796875 C 320.046875 258.722656 327.242188 267.203125 327.246094 269.5625 C 327.257812 273.238281 322.53125 272.160156 320.378906 268 C 318.25 263.882812 317.664062 263.679688 312.960938 265.46875 C 308.335938 267.226562 308.933594 270.875 314.441406 274.527344 C 317.980469 276.871094 319.550781 279.070312 320.84375 283.496094 C 321.789062 286.722656 322.351562 289.476562 322.09375 289.617188 C 321.839844 289.757812 320.503906 290.5 319.128906 291.257812 C 317.753906 292.019531 316.34375 294.269531 315.996094 296.257812 C 315.488281 299.171875 314.640625 299.957031 311.621094 300.292969 C 307.695312 300.730469 303.503906 303.679688 303.503906 306.007812 C 303.503906 308.113281 295.203125 314.25 292.351562 314.25 C 290.75 314.25 289.0625 315.742188 287.761719 318.3125 C 284.050781 325.636719 282.402344 326.75 275.289062 326.75 C 271.597656 326.75 268.511719 327.355469 268.25 328.132812 C 268 328.890625 265.5625 330.289062 262.835938 331.234375 C 258.375 332.785156 257.71875 332.738281 256.269531 330.804688 C 254.796875 328.828125 254.398438 328.988281 251.492188 332.699219 C 247.71875 337.523438 242.617188 338.105469 239.015625 334.128906 Z M 262.703125 321.496094 C 263.757812 319.820312 263.425781 318.703125 261.140625 316.273438 C 256.324219 311.144531 253.296875 314.007812 256.007812 321.136719 C 257.398438 324.792969 260.519531 324.960938 262.703125 321.496094 Z M 251.242188 314.855469 C 251.527344 312.4375 251.265625 310.621094 250.660156 310.824219 C 250.058594 311.023438 249.703125 311.457031 249.871094 311.78125 C 250.039062 312.109375 249.539062 313.566406 248.757812 315.023438 C 247.414062 317.539062 247.84375 319.25 249.824219 319.25 C 250.324219 319.25 250.960938 317.273438 251.242188 314.855469 Z M 222.253906 316.011719 C 222.253906 314.914062 221.117188 312.574219 219.726562 310.808594 L 217.199219 307.59375 L 219.726562 304.90625 C 221.117188 303.425781 222.253906 301.378906 222.253906 300.359375 C 222.253906 299.335938 222.929688 297.824219 223.753906 297 C 224.921875 295.835938 224.921875 295.5 223.753906 295.5 C 222.929688 295.5 222.253906 296.0625 222.253906 296.75 C 222.253906 297.4375 220.917969 298 219.28125 298 C 217.648438 298 215.609375 298.84375 214.753906 299.875 C 213.898438 300.90625 211.789062 301.75 210.066406 301.75 C 207.011719 301.75 206.953125 301.917969 207.792969 308.242188 C 208.265625 311.8125 208.933594 315.1875 209.277344 315.742188 C 210.308594 317.410156 213.1875 316.878906 213.957031 314.875 C 215 312.152344 217.253906 312.578125 217.253906 315.5 C 217.253906 317.167969 218.085938 318 219.753906 318 C 221.207031 318 222.253906 317.167969 222.253906 316.011719 Z M 272.253906 316.75 C 272.253906 316.0625 271.410156 315.5 270.378906 315.5 C 269.347656 315.5 268.503906 316.0625 268.503906 316.75 C 268.503906 317.4375 269.347656 318 270.378906 318 C 271.410156 318 272.253906 317.4375 272.253906 316.75 Z M 203.582031 309.0625 C 204.871094 305.949219 204.847656 305.082031 203.457031 304.222656 C 202.515625 303.640625 200.761719 303.710938 199.507812 304.382812 C 196.234375 306.132812 196.464844 301.59375 199.753906 299.539062 C 202.386719 297.894531 203.121094 293.683594 201.003906 292.375 C 200.316406 291.949219 199.753906 292.1875 199.753906 292.902344 C 199.753906 293.617188 198.332031 294.558594 196.59375 294.996094 C 194.859375 295.433594 192.890625 296.8125 192.21875 298.0625 C 191 300.339844 190.507812 310.835938 191.570312 311.898438 C 191.878906 312.210938 194.355469 312.554688 197.070312 312.660156 C 201.472656 312.835938 202.179688 312.445312 203.582031 309.0625 Z M 228.757812 308.496094 C 229.113281 305.433594 228.730469 303.78125 227.558594 303.332031 C 224.910156 302.316406 223.707031 304.457031 224.40625 308.9375 C 225.257812 314.417969 228.097656 314.128906 228.757812 308.496094 Z M 239.753906 309.25 C 239.753906 308.5625 239.191406 308 238.503906 308 C 237.816406 308 237.253906 308.5625 237.253906 309.25 C 237.253906 309.9375 237.816406 310.5 238.503906 310.5 C 239.191406 310.5 239.753906 309.9375 239.753906 309.25 Z M 262.972656 305.8125 C 261.851562 301.109375 261.828125 300.179688 262.785156 297.894531 C 263.269531 296.734375 262.589844 294.660156 261.144531 292.894531 L 258.675781 289.875 L 256.140625 295.5625 C 253.121094 302.34375 253.746094 305.859375 258.28125 307.660156 C 263.410156 309.691406 263.859375 309.515625 262.972656 305.8125 Z M 272.234375 296.199219 C 272.207031 292.3125 270.300781 290.023438 267.867188 290.957031 C 266.140625 291.621094 265.898438 292.675781 266.605469 296.441406 C 267.085938 299.007812 267.796875 301.617188 268.183594 302.242188 C 269.183594 303.859375 272.257812 299.273438 272.234375 296.199219 Z M 285.417969 300.859375 C 286.734375 299.058594 287.296875 298.980469 288.976562 300.375 C 291.570312 302.527344 294.753906 301.261719 294.753906 298.085938 C 294.753906 294.863281 290.535156 292.628906 286.238281 293.574219 C 283.574219 294.160156 282.613281 293.738281 281.625 291.550781 C 280.15625 288.292969 278.554688 287.613281 276.0625 289.191406 C 274.640625 290.085938 274.539062 290.972656 275.59375 293.230469 C 276.335938 294.824219 277.5625 297.671875 278.320312 299.5625 C 279.882812 303.453125 283.09375 304.042969 285.417969 300.859375 Z M 186.316406 300.011719 C 187.519531 299.097656 188.503906 297.710938 188.503906 296.925781 C 188.503906 295.054688 185.652344 295.101562 183.753906 297 C 182.09375 298.660156 181.722656 301.773438 183.191406 301.710938 C 183.707031 301.6875 185.113281 300.925781 186.316406 300.011719 Z M 209.753906 295.5 C 209.753906 294.8125 209.191406 294.25 208.503906 294.25 C 207.816406 294.25 207.253906 294.8125 207.253906 295.5 C 207.253906 296.1875 207.816406 296.75 208.503906 296.75 C 209.191406 296.75 209.753906 296.1875 209.753906 295.5 Z M 197.253906 288.699219 C 197.253906 287.710938 196.730469 286.574219 196.089844 286.179688 C 194.605469 285.261719 193.109375 287.601562 194.128906 289.25 C 195.277344 291.109375 197.253906 290.761719 197.253906 288.699219 Z M 237.253906 288.191406 C 237.253906 287.609375 239.28125 285.046875 241.761719 282.492188 C 246.0625 278.066406 246.375 277.949219 248.632812 279.992188 C 250.429688 281.621094 250.660156 282.53125 249.597656 283.816406 C 248.484375 285.15625 248.855469 285.5 251.402344 285.5 C 253.164062 285.5 254.953125 286.0625 255.378906 286.75 C 257.109375 289.546875 258.386719 287.707031 257.929688 283.082031 C 257.332031 277.105469 259.554688 269.25 261.839844 269.25 C 262.753906 269.25 263.503906 270.074219 263.503906 271.082031 C 263.503906 272.742188 267.0625 275.5 269.210938 275.5 C 269.6875 275.5 269.761719 273.53125 269.371094 271.125 C 268.613281 266.453125 269.699219 265.546875 272.296875 268.679688 C 274.355469 271.15625 276.332031 269.300781 276.5 264.730469 C 276.667969 260.304688 279.433594 259.417969 280.449219 263.46875 C 280.949219 265.449219 280.5 267.667969 279.246094 269.460938 C 278.152344 271.027344 277.253906 272.746094 277.253906 273.277344 C 277.253906 275.046875 281.066406 274.289062 281.800781 272.375 C 282.199219 271.34375 283.605469 270.5 284.933594 270.5 C 286.820312 270.5 287.269531 271.25 286.988281 273.9375 C 286.683594 276.867188 287.136719 277.433594 290.066406 277.769531 C 292.980469 278.105469 293.503906 277.707031 293.503906 275.128906 C 293.503906 272.425781 294.019531 272.105469 298.191406 272.234375 C 303.621094 272.398438 304.875 269.210938 299.847656 268.023438 C 298.179688 267.628906 296.554688 266.535156 296.242188 265.589844 C 295.839844 264.386719 296.425781 264.070312 298.199219 264.535156 C 299.589844 264.898438 301.492188 264.722656 302.429688 264.144531 C 303.816406 263.285156 303.722656 262.6875 301.917969 260.878906 C 300.101562 259.0625 299.320312 258.945312 297.542969 260.21875 C 296.351562 261.070312 294.535156 262.085938 293.503906 262.476562 C 292.472656 262.863281 290.578125 263.75 289.292969 264.445312 C 286.441406 265.984375 284.066406 264.097656 285.183594 261.179688 C 285.730469 259.757812 286.851562 259.417969 289.101562 259.980469 C 291.769531 260.648438 292.253906 260.339844 292.253906 257.972656 C 292.253906 255.398438 291.808594 255.226562 286.628906 255.808594 C 283.535156 256.160156 281.003906 256.25 281.003906 256.015625 C 281.003906 254.484375 285.660156 245.945312 286.941406 245.125 C 289.132812 243.722656 288.882812 240.492188 286.367188 237.710938 C 284.671875 235.839844 284.566406 235.140625 285.851562 234.347656 C 286.742188 233.792969 287.28125 232 287.050781 230.359375 C 286.726562 228.054688 285.75 227.289062 282.773438 227 C 280.425781 226.769531 278.285156 227.382812 277.304688 228.5625 C 276.421875 229.628906 274.890625 230.5 273.902344 230.5 C 272.914062 230.5 272.4375 231.039062 272.84375 231.695312 C 273.25 232.355469 274.410156 232.574219 275.417969 232.1875 C 276.429688 231.800781 277.253906 232.105469 277.253906 232.867188 C 277.253906 233.628906 276.625 234.25 275.859375 234.25 C 275.078125 234.25 274.75 235.351562 275.117188 236.75 C 275.476562 238.125 275.308594 239.53125 274.746094 239.882812 C 274.183594 240.230469 273.34375 242.746094 272.882812 245.46875 C 271.984375 250.792969 268.074219 256.75 265.480469 256.75 C 264.605469 256.75 262.871094 257.875 261.628906 259.25 C 260.382812 260.625 258.730469 261.75 257.953125 261.75 C 257.179688 261.75 255.515625 263.488281 254.261719 265.613281 C 252.632812 268.371094 251.59375 269.089844 250.632812 268.128906 C 249.671875 267.167969 248.675781 267.339844 247.144531 268.722656 C 245.96875 269.789062 243.121094 270.703125 240.816406 270.753906 C 238.511719 270.808594 235.003906 271.992188 233.015625 273.386719 C 229.832031 275.617188 229.238281 275.695312 228.015625 274.023438 C 227.078125 272.738281 225.816406 272.441406 224.128906 273.101562 C 220.230469 274.621094 218.503906 274.410156 218.503906 272.417969 C 218.503906 270.167969 214.679688 268 210.710938 268 C 209.085938 268 207.078125 267.324219 206.253906 266.5 C 205.105469 265.355469 204.410156 265.34375 203.289062 266.46875 C 201.496094 268.261719 203.789062 274.234375 206.289062 274.277344 C 207.164062 274.292969 209.285156 275.40625 211.003906 276.75 C 212.722656 278.09375 215.074219 279.207031 216.230469 279.222656 C 217.390625 279.238281 218.703125 280.410156 219.152344 281.828125 C 219.800781 283.867188 220.667969 284.25 223.339844 283.660156 C 226.832031 282.894531 234.753906 285.96875 234.753906 288.09375 C 234.753906 288.730469 235.316406 289.25 236.003906 289.25 C 236.691406 289.25 237.253906 288.773438 237.253906 288.191406 Z M 271.003906 286.75 C 271.003906 286.0625 270.441406 285.5 269.753906 285.5 C 269.066406 285.5 268.503906 286.0625 268.503906 286.75 C 268.503906 287.4375 269.066406 288 269.753906 288 C 270.441406 288 271.003906 287.4375 271.003906 286.75 Z M 301.003906 286.125 C 301.003906 285.085938 299.890625 284.25 298.503906 284.25 C 296.011719 284.25 295.253906 285.582031 296.835938 287.167969 C 298.359375 288.691406 301.003906 288.027344 301.003906 286.125 Z M 293.265625 285.40625 C 293.019531 284.667969 292.28125 284.0625 291.628906 284.0625 C 290.976562 284.0625 290.238281 284.667969 289.992188 285.40625 C 289.746094 286.144531 290.484375 286.75 291.628906 286.75 C 292.773438 286.75 293.511719 286.144531 293.265625 285.40625 Z M 284.753906 283.777344 C 284.753906 281.25 281.449219 278.773438 280.378906 280.5 C 279.144531 282.5 280.621094 285.5 282.839844 285.5 C 283.890625 285.5 284.753906 284.726562 284.753906 283.777344 Z M 195.378906 281.75 C 195.804688 281.0625 195.554688 280.5 194.828125 280.5 C 194.097656 280.5 193.503906 281.0625 193.503906 281.75 C 193.503906 282.4375 193.75 283 194.054688 283 C 194.359375 283 194.953125 282.4375 195.378906 281.75 Z M 306.003906 280.652344 C 306.003906 279.078125 302.335938 276.253906 301.445312 277.144531 C 300.164062 278.425781 302.074219 281.75 304.089844 281.75 C 305.140625 281.75 306.003906 281.257812 306.003906 280.652344 Z M 199.179688 264.167969 C 200.644531 261.796875 198.507812 261.210938 196.332031 263.386719 C 194.382812 265.335938 194.378906 265.5 196.285156 265.5 C 197.425781 265.5 198.726562 264.902344 199.179688 264.167969 Z M 311.628906 263 C 312.054688 262.3125 311.492188 261.75 310.378906 261.75 C 309.265625 261.75 308.703125 262.3125 309.128906 263 C 309.554688 263.6875 310.117188 264.25 310.378906 264.25 C 310.640625 264.25 311.203125 263.6875 311.628906 263 Z M 172.253906 259.25 C 172.253906 258.5625 171.691406 258 171.003906 258 C 170.316406 258 169.753906 258.5625 169.753906 259.25 C 169.753906 259.9375 170.316406 260.5 171.003906 260.5 C 171.691406 260.5 172.253906 259.9375 172.253906 259.25 Z M 309.128906 254.148438 C 309.128906 253.171875 307.863281 252.195312 306.316406 251.976562 C 303.28125 251.546875 302.253906 254.792969 305.066406 255.917969 C 307.429688 256.863281 309.128906 256.125 309.128906 254.148438 Z M 316.003906 250.5 C 316.003906 249.8125 315.441406 249.25 314.753906 249.25 C 314.066406 249.25 313.503906 249.8125 313.503906 250.5 C 313.503906 251.1875 314.066406 251.75 314.753906 251.75 C 315.441406 251.75 316.003906 251.1875 316.003906 250.5 Z M 177.253906 246.125 C 177.253906 245.09375 176.691406 244.25 176.003906 244.25 C 175.316406 244.25 174.753906 245.09375 174.753906 246.125 C 174.753906 247.15625 175.316406 248 176.003906 248 C 176.691406 248 177.253906 247.15625 177.253906 246.125 Z M 313.503906 234.113281 C 313.503906 233.609375 311.839844 232.835938 309.808594 232.386719 C 307.738281 231.933594 305.78125 230.519531 305.351562 229.164062 C 304.503906 226.5 302.847656 226.027344 301.574219 228.085938 C 301.121094 228.824219 301.625 230.371094 302.691406 231.523438 C 303.761719 232.679688 305.875 234.976562 307.386719 236.628906 C 310.019531 239.503906 310.203125 239.535156 311.820312 237.328125 C 312.746094 236.058594 313.503906 234.613281 313.503906 234.113281 Z M 293.503906 237.449219 C 293.503906 237.148438 292.941406 236.550781 292.253906 236.125 C 291.566406 235.699219 291.003906 235.949219 291.003906 236.675781 C 291.003906 237.40625 291.566406 238 292.253906 238 C 292.941406 238 293.503906 237.753906 293.503906 237.449219 Z M 173.941406 233.664062 C 174.742188 231.578125 172.878906 229.964844 171.003906 231.125 C 169.132812 232.28125 169.496094 235.5 171.496094 235.5 C 172.453125 235.5 173.554688 234.675781 173.941406 233.664062 Z M 232.253906 231.035156 C 232.253906 229.871094 231.402344 229.234375 230.167969 229.472656 C 227.035156 230.078125 226.601562 233 229.648438 233 C 231.183594 233 232.253906 232.195312 232.253906 231.035156 Z M 220.824219 230.320312 C 226.289062 230.195312 227.15625 229.8125 227.808594 227.214844 C 228.40625 224.832031 229.375 224.25 232.75 224.25 C 237.25 224.25 238.730469 222.09375 240.230469 213.363281 C 241 208.890625 239.292969 206.8125 237.496094 210.023438 C 236.855469 211.167969 235.695312 211.707031 234.917969 211.226562 C 233.300781 210.226562 233.019531 207.164062 234.484375 206.542969 C 236.269531 205.785156 241.292969 197.871094 240.496094 197.074219 C 240.0625 196.644531 239.046875 196.957031 238.234375 197.773438 C 236.0625 199.941406 234.175781 199.578125 236.027344 197.347656 C 237.945312 195.035156 236.566406 193.1875 234.484375 195.273438 C 232.207031 197.550781 230.746094 197.027344 231.628906 194.25 C 232.089844 192.792969 231.851562 191.75 231.054688 191.75 C 230.195312 191.75 230.40625 190.363281 231.628906 188 C 233.648438 184.09375 232.445312 182.878906 229.757812 186.121094 C 228.90625 187.148438 228.511719 189.144531 228.882812 190.5625 C 229.886719 194.40625 224.957031 202.683594 220.800781 204.136719 C 218.847656 204.816406 217.253906 205.960938 217.253906 206.6875 C 217.253906 208.773438 213.746094 208.210938 212.464844 205.921875 C 211.449219 204.105469 211.183594 204.210938 210.375 206.765625 C 209.71875 208.832031 210.046875 210.125 211.496094 211.183594 C 212.703125 212.066406 213.222656 213.527344 212.761719 214.734375 C 212.328125 215.859375 212.738281 217.726562 213.675781 218.875 C 215.167969 220.707031 215.097656 220.863281 213.144531 220.132812 C 210.03125 218.964844 208.921875 222.507812 211.507812 225.367188 C 212.769531 226.761719 213.226562 228.515625 212.695312 229.898438 C 212.125 231.390625 212.296875 231.871094 213.207031 231.308594 C 213.960938 230.84375 217.390625 230.398438 220.824219 230.320312 Z M 226.835938 210.917969 C 225.320312 209.398438 225.972656 208.066406 227.878906 208.800781 C 228.910156 209.195312 229.753906 210.019531 229.753906 210.632812 C 229.753906 211.945312 228.03125 212.113281 226.835938 210.917969 Z M 232.980469 203.167969 C 232.445312 202.296875 232.339844 201.246094 232.753906 200.835938 C 233.871094 199.714844 235.09375 201.359375 234.488281 203.171875 C 234.0625 204.445312 233.769531 204.441406 232.980469 203.167969 Z M 281.292969 223 C 282.152344 221.625 283.84375 220.5 285.054688 220.5 C 287.527344 220.5 287.988281 218.605469 285.839844 217.273438 C 285.0625 216.792969 283.90625 217.324219 283.277344 218.449219 C 282.644531 219.578125 281.300781 220.5 280.285156 220.5 C 278.664062 220.5 278.660156 220.070312 280.253906 216.988281 C 281.382812 214.8125 281.660156 212.808594 280.984375 211.71875 C 280.324219 210.652344 280.453125 209.289062 281.3125 208.253906 C 282.375 206.976562 282.328125 205.90625 281.125 203.980469 C 279.890625 202.003906 279.867188 201.203125 281.023438 200.488281 C 283.582031 198.90625 281.199219 194.046875 278.082031 194.492188 C 275.886719 194.804688 275.371094 195.730469 275.335938 199.421875 C 275.3125 201.925781 274.59375 204.8125 273.742188 205.835938 C 271.714844 208.277344 272.738281 216.332031 275.453125 219.332031 C 276.609375 220.609375 277.226562 222.523438 276.820312 223.578125 C 275.71875 226.449219 279.441406 225.96875 281.292969 223 Z M 314.042969 221.609375 C 312.976562 219.886719 309.753906 220.304688 309.753906 222.167969 C 309.753906 223.085938 310.125 224.203125 310.574219 224.65625 C 311.707031 225.789062 314.890625 222.984375 314.042969 221.609375 Z M 309.753906 216.199219 C 309.753906 213.5625 307.417969 212.558594 305.324219 214.296875 C 302.605469 216.550781 303.117188 218 306.628906 218 C 308.515625 218 309.753906 217.289062 309.753906 216.199219 Z M 271.003906 207.449219 C 271.003906 207.148438 270.441406 206.550781 269.753906 206.125 C 269.066406 205.699219 268.503906 205.949219 268.503906 206.675781 C 268.503906 207.40625 269.066406 208 269.753906 208 C 270.441406 208 271.003906 207.753906 271.003906 207.449219 Z M 266.074219 202.292969 C 268.101562 199.847656 266.40625 198 262.140625 198 C 258.335938 198 256.433594 200.3125 257.644531 203.472656 C 258.441406 205.542969 264.023438 204.761719 266.074219 202.292969 Z M 211.003906 201.125 C 211.003906 200.09375 210.441406 199.25 209.753906 199.25 C 209.066406 199.25 208.503906 200.09375 208.503906 201.125 C 208.503906 202.15625 209.066406 203 209.753906 203 C 210.441406 203 211.003906 202.15625 211.003906 201.125 Z M 218.503906 199.25 C 218.503906 198.5625 217.941406 198 217.253906 198 C 216.566406 198 216.003906 198.5625 216.003906 199.25 C 216.003906 199.9375 216.566406 200.5 217.253906 200.5 C 217.941406 200.5 218.503906 199.9375 218.503906 199.25 Z M 302.777344 199.742188 C 305.117188 198.84375 305.445312 195.492188 303.191406 195.519531 C 300.550781 195.550781 298.136719 197.644531 299.042969 199.109375 C 300.039062 200.726562 300.160156 200.746094 302.777344 199.742188 Z M 292.585938 194.085938 C 291.039062 192.539062 287.253906 193.449219 287.253906 195.371094 C 287.253906 196.976562 291.328125 197.832031 292.816406 196.535156 C 293.558594 195.890625 293.472656 194.96875 292.585938 194.085938 Z M 289.753906 184.25 C 289.753906 183.5625 288.910156 183 287.878906 183 C 286.847656 183 286.003906 183.5625 286.003906 184.25 C 286.003906 184.9375 286.847656 185.5 287.878906 185.5 C 288.910156 185.5 289.753906 184.9375 289.753906 184.25 Z M 293.976562 178.9375 C 294.707031 175.898438 294.449219 175.5 291.726562 175.5 C 287.300781 175.5 286.398438 177.972656 289.867188 180.585938 C 291.503906 181.820312 292.910156 182.726562 292.996094 182.601562 C 293.082031 182.476562 293.523438 180.828125 293.976562 178.9375 Z M 287.253906 176.226562 C 287.253906 175.941406 287.59375 174.816406 288.011719 173.726562 C 288.496094 172.472656 288.09375 171.75 286.914062 171.75 C 284.691406 171.75 281.9375 174.765625 283.097656 175.929688 C 284 176.832031 287.253906 177.066406 287.253906 176.226562 Z M 169.851562 298.523438 C 169.914062 297.066406 170.207031 296.769531 170.609375 297.765625 C 170.96875 298.667969 170.925781 299.746094 170.507812 300.164062 C 170.09375 300.578125 169.796875 299.839844 169.851562 298.523438 Z M 144.753906 243 C 144.753906 242.3125 145.316406 241.75 146.003906 241.75 C 146.691406 241.75 147.253906 242.3125 147.253906 243 C 147.253906 243.6875 146.691406 244.25 146.003906 244.25 C 145.316406 244.25 144.753906 243.6875 144.753906 243 Z M 160.34375 226.695312 C 159.9375 226.039062 159.953125 224.9375 160.378906 224.25 C 161.535156 222.382812 164.753906 222.742188 164.753906 224.742188 C 164.753906 226.863281 161.375 228.359375 160.34375 226.695312 Z M 157.253906 217.242188 C 157.253906 215.953125 157.9375 215.496094 159.167969 215.96875 C 160.445312 216.457031 161.484375 215.652344 162.28125 213.550781 C 163.300781 210.871094 163.855469 210.601562 165.992188 211.746094 C 167.375 212.484375 168.503906 214.265625 168.503906 215.699219 C 168.503906 217.929688 167.960938 218.203125 164.800781 217.574219 C 162.765625 217.164062 160.765625 217.375 160.351562 218.042969 C 159.175781 219.949219 157.253906 219.453125 157.253906 217.242188 Z M 165.371094 200.488281 C 164.941406 199.796875 164.925781 198.175781 165.335938 196.886719 C 165.808594 195.390625 165.359375 194.273438 164.085938 193.78125 C 161.785156 192.898438 162.785156 190.5 165.453125 190.5 C 166.519531 190.5 167.253906 191.722656 167.253906 193.492188 C 167.253906 195.136719 168.097656 196.808594 169.128906 197.203125 C 171.855469 198.25 171.433594 201.75 168.578125 201.75 C 167.242188 201.75 165.800781 201.183594 165.371094 200.488281 Z M 172.175781 193.3125 C 172.128906 192.796875 171.914062 190.546875 171.695312 188.3125 C 171.472656 186.078125 171.792969 184.25 172.398438 184.25 C 173.007812 184.25 173.503906 185.34375 173.503906 186.675781 C 173.503906 188.011719 174.066406 189.449219 174.753906 189.875 C 176.683594 191.070312 176.230469 194.25 174.128906 194.25 C 173.097656 194.25 172.21875 193.828125 172.175781 193.3125 Z M 179.753906 186.75 C 179.753906 186.0625 180.597656 185.5 181.628906 185.5 C 182.660156 185.5 183.503906 186.0625 183.503906 186.75 C 183.503906 187.4375 182.660156 188 181.628906 188 C 180.597656 188 179.753906 187.4375 179.753906 186.75 Z M 179.933594 179.386719 C 178.761719 178.644531 178.5 177.105469 179.09375 174.40625 C 180.285156 168.980469 181.644531 169.527344 181.800781 175.5 C 181.875 178.25 181.863281 180.492188 181.78125 180.480469 C 181.695312 180.472656 180.867188 179.980469 179.933594 179.386719 Z M 169.183594 178.085938 C 167.929688 176.0625 170.652344 175.445312 172.265625 177.390625 C 173.519531 178.902344 173.445312 179.25 171.855469 179.25 C 170.78125 179.25 169.578125 178.726562 169.183594 178.085938 Z M 267.253906 177.480469 C 267.253906 176.390625 268.144531 175.5 269.234375 175.5 C 271.441406 175.5 271.054688 178.191406 268.738281 178.964844 C 267.921875 179.238281 267.253906 178.570312 267.253906 177.480469 Z M 190.480469 175.667969 C 189.945312 174.796875 189.839844 173.746094 190.253906 173.335938 C 191.371094 172.214844 192.59375 173.859375 191.988281 175.671875 C 191.5625 176.945312 191.269531 176.941406 190.480469 175.667969 Z M 186.847656 166.25 C 186.066406 164.210938 187.117188 162.769531 188.679688 163.734375 C 190.097656 164.609375 190.066406 168 188.636719 168 C 188.023438 168 187.21875 167.210938 186.847656 166.25 Z M 261.050781 166.179688 C 259.03125 163.75 260.453125 161.75 264.203125 161.75 C 267.625 161.75 267.800781 162.140625 265.960938 165.582031 C 264.414062 168.472656 263.085938 168.632812 261.050781 166.179688 Z M 242.839844 165.4375 C 241.652344 163.515625 243.277344 162.277344 244.882812 163.878906 C 245.78125 164.777344 245.800781 165.476562 244.949219 166.003906 C 244.25 166.4375 243.300781 166.183594 242.839844 165.4375 Z M 199.230469 164.417969 C 198.695312 163.546875 198.589844 162.496094 199.003906 162.085938 C 200.121094 160.964844 201.34375 162.609375 200.738281 164.421875 C 200.3125 165.695312 200.019531 165.691406 199.230469 164.417969 Z M 234.753906 161.75 C 234.753906 161.0625 235.316406 160.5 236.003906 160.5 C 236.691406 160.5 237.253906 161.0625 237.253906 161.75 C 237.253906 162.4375 236.691406 163 236.003906 163 C 235.316406 163 234.753906 162.4375 234.753906 161.75 Z M 253.503906 160.589844 C 253.503906 158.640625 254.300781 158 256.71875 158 C 260.824219 158 260.457031 162.183594 256.304688 162.773438 C 254.175781 163.078125 253.503906 162.550781 253.503906 160.589844 Z M 189.074219 160.414062 C 188.605469 159.652344 188.773438 158.480469 189.445312 157.808594 C 190.246094 157.007812 190.925781 157.25 191.40625 158.5 C 192.28125 160.78125 190.304688 162.402344 189.074219 160.414062 Z M 211.835938 160.917969 C 210.398438 159.480469 210.925781 158 212.878906 158 C 213.910156 158 214.753906 158.84375 214.753906 159.875 C 214.753906 161.828125 213.273438 162.355469 211.835938 160.917969 Z M 201.710938 157.140625 C 201.21875 155.863281 201.660156 154.609375 202.828125 153.953125 C 203.886719 153.363281 204.753906 152.0625 204.753906 151.0625 C 204.753906 150.066406 205.878906 149.25 207.253906 149.25 C 208.953125 149.25 209.753906 148.417969 209.753906 146.648438 C 209.753906 145.121094 210.398438 144.257812 211.316406 144.5625 C 213.242188 145.203125 214.179688 149.25 212.402344 149.25 C 210.464844 149.25 204.753906 155.359375 204.753906 157.433594 C 204.753906 159.925781 202.703125 159.726562 201.710938 157.140625 Z M 248.085938 155.917969 C 247.628906 155.460938 247.253906 153.804688 247.253906 152.242188 C 247.253906 150.679688 246.691406 149.050781 246.003906 148.625 C 244.074219 147.433594 244.527344 144.25 246.628906 144.25 C 247.660156 144.25 248.503906 145.339844 248.503906 146.667969 C 248.503906 149.660156 252.96875 151.253906 255.492188 149.15625 C 256.820312 148.054688 257.746094 147.996094 258.699219 148.945312 C 260.453125 150.703125 258.960938 153 256.0625 153 C 254.800781 153 253.449219 153.84375 253.050781 154.875 C 252.308594 156.808594 249.554688 157.386719 248.085938 155.917969 Z M 263.503906 155.5 C 263.503906 154.8125 264.03125 154.25 264.679688 154.25 C 265.328125 154.25 266.203125 154.8125 266.628906 155.5 C 267.054688 156.1875 266.523438 156.75 265.453125 156.75 C 264.378906 156.75 263.503906 156.1875 263.503906 155.5 Z M 239.222656 152.167969 C 238.15625 149.394531 240.507812 147.003906 242.417969 148.917969 C 243.949219 150.445312 243.0625 154.25 241.175781 154.25 C 240.542969 154.25 239.660156 153.3125 239.222656 152.167969 Z M 217.878906 148 C 216.859375 146.351562 218.355469 144.011719 219.839844 144.929688 C 221.359375 145.867188 221.347656 149.25 219.828125 149.25 C 219.179688 149.25 218.304688 148.6875 217.878906 148 Z M 261.835938 146.535156 C 261.0625 143.578125 261.726562 141.75 263.578125 141.75 C 264.222656 141.75 264.753906 143.4375 264.753906 145.5 C 264.753906 149.847656 262.875 150.511719 261.835938 146.535156 Z M 253.070312 145.1875 C 250.734375 138.941406 250.71875 138.480469 252.929688 140.664062 C 254.066406 141.789062 254.746094 143.757812 254.441406 145.039062 C 253.929688 147.207031 253.832031 147.21875 253.070312 145.1875 Z M 253.070312 145.1875 "/>
<path style=" stroke:none;fill-rule:nonzero;fill:rgb(91.372549%,72.156863%,1.568627%);fill-opacity:1;" d="M 396.40625 197.242188 C 391.855469 199.496094 392.128906 198.183594 396.40625 197.242188 Z M 396.40625 197.242188 "/>
<path style=" stroke:none;fill-rule:nonzero;fill:rgb(91.372549%,72.156863%,1.568627%);fill-opacity:1;" d="M 165.332031 380.617188 C 165.375 381.101562 164.839844 380.179688 165.332031 380.617188 Z M 165.332031 380.617188 "/>
</g>
</svg>
